<svg width="16" height="16" viewBox="0 0 16 16" fill="none" xmlns="http://www.w3.org/2000/svg">
<path d="M8 3.5C7.65388 3.5 7.31554 3.39737 7.02775 3.20507C6.73997 3.01278 6.51566 2.73947 6.38321 2.4197C6.25076 2.09993 6.2161 1.74806 6.28363 1.40859C6.35115 1.06913 6.51782 0.757306 6.76256 0.512564C7.00731 0.267822 7.31913 0.101151 7.65859 0.0336265C7.99806 -0.0338976 8.34993 0.00075826 8.6697 0.133212C8.98947 0.265665 9.26278 0.489967 9.45507 0.777753C9.64736 1.06554 9.75 1.40388 9.75 1.75C9.7495 2.21398 9.56497 2.65881 9.23689 2.98689C8.90881 3.31497 8.46398 3.4995 8 3.5Z" fill="black"/>
<path d="M13.4997 3.52496L13.4856 3.52871L13.4725 3.53277C13.4412 3.54152 13.41 3.55089 13.3787 3.56058C12.7972 3.73121 9.97469 4.52683 7.98625 4.52683C6.13844 4.52683 3.57125 3.83933 2.75 3.60589C2.66827 3.57429 2.5848 3.54737 2.5 3.52527C1.90625 3.36902 1.5 3.97214 1.5 4.52339C1.5 5.06933 1.99062 5.32933 2.48594 5.51589V5.52464L5.46156 6.45402C5.76562 6.57058 5.84688 6.68964 5.88656 6.79277C6.01563 7.12371 5.9125 7.77902 5.87594 8.00777L5.69469 9.41402L4.68875 14.92C4.68563 14.935 4.68281 14.9503 4.68031 14.9659L4.67313 15.0056C4.60063 15.5103 4.97125 16 5.67313 16C6.28563 16 6.55594 15.5771 6.67313 15.0018C6.79031 14.4265 7.54813 10.0778 7.98563 10.0778C8.42313 10.0778 9.32438 15.0018 9.32438 15.0018C9.44156 15.5771 9.71187 16 10.3244 16C11.0281 16 11.3988 15.5081 11.3244 15.0018C11.318 14.9593 11.3101 14.9169 11.3006 14.875L10.2809 9.41464L10.1 8.00839C9.96906 7.18933 10.0744 6.91871 10.11 6.85527C10.111 6.85377 10.1118 6.85221 10.1125 6.85058C10.1462 6.78808 10.3 6.64808 10.6587 6.51339L13.4487 5.53808C13.4659 5.53352 13.4828 5.52809 13.4994 5.52183C13.9994 5.33433 14.4994 5.07496 14.4994 4.52402C14.4994 3.97308 14.0934 3.36902 13.4997 3.52496Z" fill="black"/>
</svg>
