<svg width="444" height="189" viewBox="0 0 444 189" fill="none" xmlns="http://www.w3.org/2000/svg">
<path d="M24 0.5H420C432.979 0.5 443.5 11.0213 443.5 24V165C443.5 177.979 432.979 188.5 420 188.5H24C11.0213 188.5 0.5 177.979 0.5 165V24C0.5 11.2241 10.6951 0.829477 23.3936 0.507812L24 0.5Z" fill="white"/>
<path d="M24 0.5H420C432.979 0.5 443.5 11.0213 443.5 24V165C443.5 177.979 432.979 188.5 420 188.5H24C11.0213 188.5 0.5 177.979 0.5 165V24C0.5 11.2241 10.6951 0.829477 23.3936 0.507812L24 0.5Z" stroke="#E1D1FA"/>
<g clip-path="url(#clip0_1_9294)">
<rect width="1440" height="8" transform="translate(40 22.5)" fill="#F5F5F5"/>
<rect x="40" y="22.5" width="167" height="8" rx="4" fill="#49C17A"/>
</g>
<path d="M48.1323 60.5H47.0755C47.013 60.196 46.9036 59.929 46.7473 59.6989C46.5939 59.4688 46.4064 59.2756 46.1848 59.1193C45.9661 58.9602 45.7232 58.8409 45.4561 58.7614C45.1891 58.6818 44.9107 58.642 44.6209 58.642C44.0925 58.642 43.6138 58.7756 43.1848 59.0426C42.7587 59.3097 42.4192 59.7031 42.1664 60.223C41.9164 60.7429 41.7914 61.3807 41.7914 62.1364C41.7914 62.892 41.9164 63.5298 42.1664 64.0497C42.4192 64.5696 42.7587 64.9631 43.1848 65.2301C43.6138 65.4972 44.0925 65.6307 44.6209 65.6307C44.9107 65.6307 45.1891 65.5909 45.4561 65.5114C45.7232 65.4318 45.9661 65.3139 46.1848 65.1577C46.4064 64.9986 46.5939 64.804 46.7473 64.5739C46.9036 64.3409 47.013 64.0739 47.0755 63.7727H48.1323C48.0527 64.2187 47.9078 64.6179 47.6976 64.9702C47.4874 65.3224 47.226 65.6222 46.9135 65.8693C46.601 66.1136 46.2502 66.2997 45.861 66.4276C45.4746 66.5554 45.0613 66.6193 44.6209 66.6193C43.8766 66.6193 43.2147 66.4375 42.6351 66.0739C42.0556 65.7102 41.5996 65.1932 41.2672 64.5227C40.9348 63.8523 40.7686 63.0568 40.7686 62.1364C40.7686 61.2159 40.9348 60.4205 41.2672 59.75C41.5996 59.0795 42.0556 58.5625 42.6351 58.1989C43.2147 57.8352 43.8766 57.6534 44.6209 57.6534C45.0613 57.6534 45.4746 57.7173 45.861 57.8452C46.2502 57.973 46.601 58.1605 46.9135 58.4077C47.226 58.652 47.4874 58.9503 47.6976 59.3026C47.9078 59.652 48.0527 60.0511 48.1323 60.5ZM53.8287 63.8239V59.9545H54.8343V66.5H53.8287V65.392H53.7605C53.6071 65.7244 53.3684 66.0071 53.0446 66.2401C52.7207 66.4702 52.3116 66.5852 51.8173 66.5852C51.4082 66.5852 51.0446 66.4957 50.7264 66.3168C50.4082 66.1349 50.1582 65.8622 49.9764 65.4986C49.7946 65.1321 49.7037 64.6705 49.7037 64.1136V59.9545H50.7093V64.0455C50.7093 64.5227 50.8429 64.9034 51.1099 65.1875C51.3798 65.4716 51.7235 65.6136 52.1412 65.6136C52.3912 65.6136 52.6454 65.5497 52.9039 65.4219C53.1653 65.294 53.3841 65.098 53.5602 64.8338C53.7392 64.5696 53.8287 64.233 53.8287 63.8239ZM56.6763 66.5V59.9545H57.6479V60.9432H57.7161C57.8354 60.6193 58.0513 60.3565 58.3638 60.1548C58.6763 59.9531 59.0286 59.8523 59.4206 59.8523C59.4945 59.8523 59.5868 59.8537 59.6976 59.8565C59.8084 59.8594 59.8922 59.8636 59.949 59.8693V60.892C59.915 60.8835 59.8368 60.8707 59.7147 60.8537C59.5953 60.8338 59.4689 60.8239 59.3354 60.8239C59.0172 60.8239 58.7331 60.8906 58.4831 61.0241C58.236 61.1548 58.04 61.3366 57.8951 61.5696C57.753 61.7997 57.682 62.0625 57.682 62.358V66.5H56.6763ZM61.1412 66.5V59.9545H62.1127V60.9432H62.1809C62.3002 60.6193 62.5162 60.3565 62.8287 60.1548C63.1412 59.9531 63.4934 59.8523 63.8855 59.8523C63.9593 59.8523 64.0517 59.8537 64.1625 59.8565C64.2733 59.8594 64.3571 59.8636 64.4139 59.8693V60.892C64.3798 60.8835 64.3017 60.8707 64.1795 60.8537C64.0602 60.8338 63.9338 60.8239 63.8002 60.8239C63.4821 60.8239 63.198 60.8906 62.948 61.0241C62.7008 61.1548 62.5048 61.3366 62.3599 61.5696C62.2179 61.7997 62.1468 62.0625 62.1468 62.358V66.5H61.1412ZM68.1511 66.6364C67.5204 66.6364 66.9764 66.4972 66.519 66.2188C66.0645 65.9375 65.7136 65.5455 65.4664 65.0426C65.2221 64.5369 65.1 63.9489 65.1 63.2784C65.1 62.608 65.2221 62.017 65.4664 61.5057C65.7136 60.9915 66.0574 60.5909 66.4977 60.304C66.9409 60.0142 67.4579 59.8693 68.0488 59.8693C68.3897 59.8693 68.7264 59.9261 69.0588 60.0398C69.3912 60.1534 69.6937 60.3381 69.9664 60.5938C70.2392 60.8466 70.4565 61.1818 70.6184 61.5994C70.7804 62.017 70.8613 62.5312 70.8613 63.142V63.5682H65.8159V62.6989H69.8386C69.8386 62.3295 69.7647 62 69.617 61.7102C69.4721 61.4205 69.2647 61.1918 68.9949 61.0241C68.7278 60.8565 68.4125 60.7727 68.0488 60.7727C67.6483 60.7727 67.3017 60.8722 67.0091 61.071C66.7193 61.267 66.4963 61.5227 66.34 61.8381C66.1838 62.1534 66.1056 62.4915 66.1056 62.8523V63.4318C66.1056 63.9261 66.1909 64.3452 66.3613 64.6889C66.5346 65.0298 66.7747 65.2898 67.0815 65.4688C67.3883 65.6449 67.7449 65.733 68.1511 65.733C68.4153 65.733 68.6539 65.696 68.867 65.6222C69.0829 65.5455 69.269 65.4318 69.4252 65.2812C69.5815 65.1278 69.7022 64.9375 69.7875 64.7102L70.7591 64.983C70.6568 65.3125 70.4849 65.6023 70.2434 65.8523C70.002 66.0994 69.7037 66.2926 69.3485 66.4318C68.9934 66.5682 68.5943 66.6364 68.1511 66.6364ZM73.3968 62.5625V66.5H72.3912V59.9545H73.3627V60.9773H73.448C73.6014 60.6449 73.8343 60.3778 74.1468 60.1761C74.4593 59.9716 74.8627 59.8693 75.3571 59.8693C75.8002 59.8693 76.188 59.9602 76.5204 60.142C76.8528 60.321 77.1113 60.5938 77.296 60.9602C77.4806 61.3239 77.573 61.7841 77.573 62.3409V66.5H76.5673V62.4091C76.5673 61.8949 76.4338 61.4943 76.1667 61.2074C75.8997 60.9176 75.5332 60.7727 75.0673 60.7727C74.7463 60.7727 74.4593 60.8423 74.2065 60.9815C73.9565 61.1207 73.7591 61.3239 73.6142 61.5909C73.4693 61.858 73.3968 62.1818 73.3968 62.5625ZM82.2573 59.9545V60.8068H78.8652V59.9545H82.2573ZM79.8539 58.3864H80.8596V64.625C80.8596 64.9091 80.9007 65.1222 80.9831 65.2642C81.0684 65.4034 81.1763 65.4972 81.307 65.5455C81.4405 65.5909 81.5811 65.6136 81.7289 65.6136C81.8397 65.6136 81.9306 65.608 82.0016 65.5966C82.0726 65.5824 82.1294 65.571 82.1721 65.5625L82.3766 66.4659C82.3084 66.4915 82.2132 66.517 82.0911 66.5426C81.9689 66.571 81.8141 66.5852 81.6266 66.5852C81.3425 66.5852 81.0641 66.5241 80.7914 66.402C80.5215 66.2798 80.2971 66.0938 80.1181 65.8438C79.9419 65.5938 79.8539 65.2784 79.8539 64.8977V58.3864ZM87.2814 66.5V57.7727H90.2303C90.915 57.7727 91.4746 57.8963 91.9093 58.1435C92.3468 58.3878 92.6706 58.7188 92.8809 59.1364C93.0911 59.554 93.1962 60.0199 93.1962 60.5341C93.1962 61.0483 93.0911 61.5156 92.8809 61.9361C92.6735 62.3565 92.3525 62.6918 91.9178 62.9418C91.4831 63.1889 90.9263 63.3125 90.2473 63.3125H88.1337V62.375H90.2132C90.682 62.375 91.0584 62.294 91.3425 62.1321C91.6266 61.9702 91.8326 61.7514 91.9604 61.4759C92.0911 61.1974 92.1564 60.8835 92.1564 60.5341C92.1564 60.1847 92.0911 59.8722 91.9604 59.5966C91.8326 59.321 91.6252 59.1051 91.3382 58.9489C91.0513 58.7898 90.6706 58.7102 90.1962 58.7102H88.3382V66.5H87.2814ZM95.7679 62.5625V66.5H94.7623V57.7727H95.7679V60.9773H95.8532C96.0066 60.6392 96.2367 60.3707 96.5435 60.1719C96.8532 59.9702 97.2651 59.8693 97.7793 59.8693C98.2253 59.8693 98.6159 59.9588 98.9512 60.1378C99.2864 60.3139 99.5463 60.5852 99.731 60.9517C99.9185 61.3153 100.012 61.7784 100.012 62.3409V66.5H99.0066V62.4091C99.0066 61.8892 98.8716 61.4872 98.6017 61.2031C98.3347 60.9162 97.964 60.7727 97.4895 60.7727C97.16 60.7727 96.8645 60.8423 96.6032 60.9815C96.3446 61.1207 96.1401 61.3239 95.9895 61.5909C95.8418 61.858 95.7679 62.1818 95.7679 62.5625ZM103.778 66.6534C103.363 66.6534 102.987 66.5753 102.649 66.419C102.311 66.2599 102.042 66.0312 101.844 65.733C101.645 65.4318 101.545 65.0682 101.545 64.642C101.545 64.267 101.619 63.9631 101.767 63.7301C101.915 63.4943 102.112 63.3097 102.359 63.1761C102.606 63.0426 102.879 62.9432 103.177 62.8778C103.479 62.8097 103.781 62.7557 104.085 62.7159C104.483 62.6648 104.805 62.6264 105.052 62.6009C105.302 62.5724 105.484 62.5256 105.598 62.4602C105.714 62.3949 105.773 62.2812 105.773 62.1193V62.0852C105.773 61.6648 105.657 61.3381 105.427 61.1051C105.2 60.8722 104.855 60.7557 104.392 60.7557C103.912 60.7557 103.535 60.8608 103.263 61.071C102.99 61.2812 102.798 61.5057 102.687 61.7443L101.733 61.4034C101.903 61.0057 102.131 60.696 102.415 60.4744C102.702 60.25 103.014 60.0937 103.352 60.0057C103.693 59.9148 104.028 59.8693 104.358 59.8693C104.568 59.8693 104.809 59.8949 105.082 59.946C105.358 59.9943 105.623 60.0952 105.879 60.2486C106.138 60.402 106.352 60.6335 106.523 60.9432C106.693 61.2528 106.778 61.6676 106.778 62.1875V66.5H105.773V65.6136H105.721C105.653 65.7557 105.54 65.9077 105.381 66.0696C105.221 66.2315 105.01 66.3693 104.746 66.483C104.481 66.5966 104.159 66.6534 103.778 66.6534ZM103.932 65.75C104.329 65.75 104.665 65.6719 104.937 65.5156C105.213 65.3594 105.42 65.1577 105.559 64.9105C105.702 64.6634 105.773 64.4034 105.773 64.1307V63.2102C105.73 63.2614 105.636 63.3082 105.491 63.3509C105.349 63.3906 105.184 63.4261 104.997 63.4574C104.812 63.4858 104.632 63.5114 104.456 63.5341C104.282 63.554 104.142 63.571 104.034 63.5852C103.773 63.6193 103.528 63.6747 103.301 63.7514C103.077 63.8253 102.895 63.9375 102.756 64.0881C102.619 64.2358 102.551 64.4375 102.551 64.6932C102.551 65.0426 102.68 65.3068 102.939 65.4858C103.2 65.6619 103.531 65.75 103.932 65.75ZM113.25 61.4205L112.347 61.6761C112.29 61.5256 112.206 61.3793 112.095 61.2372C111.987 61.0923 111.84 60.973 111.652 60.8793C111.465 60.7855 111.225 60.7386 110.932 60.7386C110.531 60.7386 110.198 60.831 109.931 61.0156C109.666 61.1974 109.534 61.429 109.534 61.7102C109.534 61.9602 109.625 62.1577 109.807 62.3026C109.989 62.4474 110.273 62.5682 110.659 62.6648L111.631 62.9034C112.216 63.0455 112.652 63.2628 112.939 63.5554C113.226 63.8452 113.369 64.2187 113.369 64.6761C113.369 65.0511 113.262 65.3864 113.046 65.6818C112.833 65.9773 112.534 66.2102 112.151 66.3807C111.767 66.5511 111.321 66.6364 110.813 66.6364C110.145 66.6364 109.593 66.4915 109.155 66.2017C108.718 65.9119 108.441 65.4886 108.324 64.9318L109.279 64.6932C109.369 65.0455 109.541 65.3097 109.794 65.4858C110.05 65.6619 110.384 65.75 110.796 65.75C111.264 65.75 111.637 65.6506 111.912 65.4517C112.191 65.25 112.33 65.0085 112.33 64.7273C112.33 64.5 112.25 64.3097 112.091 64.1562C111.932 64 111.688 63.8835 111.358 63.8068L110.267 63.5511C109.668 63.4091 109.227 63.1889 108.946 62.8906C108.668 62.5895 108.529 62.2131 108.529 61.7614C108.529 61.392 108.632 61.0653 108.84 60.7812C109.05 60.4972 109.335 60.2741 109.696 60.1122C110.06 59.9503 110.472 59.8693 110.932 59.8693C111.58 59.8693 112.088 60.0114 112.458 60.2955C112.83 60.5795 113.094 60.9545 113.25 61.4205ZM117.628 66.6364C116.997 66.6364 116.453 66.4972 115.996 66.2188C115.541 65.9375 115.19 65.5455 114.943 65.0426C114.699 64.5369 114.577 63.9489 114.577 63.2784C114.577 62.608 114.699 62.017 114.943 61.5057C115.19 60.9915 115.534 60.5909 115.974 60.304C116.417 60.0142 116.934 59.8693 117.525 59.8693C117.866 59.8693 118.203 59.9261 118.535 60.0398C118.868 60.1534 119.17 60.3381 119.443 60.5938C119.716 60.8466 119.933 61.1818 120.095 61.5994C120.257 62.017 120.338 62.5312 120.338 63.142V63.5682H115.292V62.6989H119.315C119.315 62.3295 119.241 62 119.094 61.7102C118.949 61.4205 118.741 61.1918 118.471 61.0241C118.204 60.8565 117.889 60.7727 117.525 60.7727C117.125 60.7727 116.778 60.8722 116.486 61.071C116.196 61.267 115.973 61.5227 115.817 61.8381C115.66 62.1534 115.582 62.4915 115.582 62.8523V63.4318C115.582 63.9261 115.667 64.3452 115.838 64.6889C116.011 65.0298 116.251 65.2898 116.558 65.4688C116.865 65.6449 117.221 65.733 117.628 65.733C117.892 65.733 118.131 65.696 118.344 65.6222C118.559 65.5455 118.746 65.4318 118.902 65.2812C119.058 65.1278 119.179 64.9375 119.264 64.7102L120.236 64.983C120.133 65.3125 119.961 65.6023 119.72 65.8523C119.479 66.0994 119.18 66.2926 118.825 66.4318C118.47 66.5682 118.071 66.6364 117.628 66.6364Z" fill="black"/>
<path d="M41.4091 92.5V80.8636H45.3409C46.2538 80.8636 47 81.0284 47.5795 81.358C48.1629 81.6837 48.5947 82.125 48.875 82.6818C49.1553 83.2386 49.2955 83.8598 49.2955 84.5455C49.2955 85.2311 49.1553 85.8542 48.875 86.4148C48.5985 86.9754 48.1705 87.4223 47.5909 87.7557C47.0114 88.0852 46.2689 88.25 45.3636 88.25H42.5455V87H45.3182C45.9432 87 46.4451 86.892 46.8239 86.6761C47.2027 86.4602 47.4773 86.1686 47.6477 85.8011C47.822 85.4299 47.9091 85.0114 47.9091 84.5455C47.9091 84.0795 47.822 83.6629 47.6477 83.2955C47.4773 82.928 47.2008 82.6402 46.8182 82.4318C46.4356 82.2197 45.928 82.1136 45.2955 82.1136H42.8182V92.5H41.4091ZM51.3835 92.5V83.7727H52.679V85.0909H52.7699C52.929 84.6591 53.2169 84.3087 53.6335 84.0398C54.0502 83.7708 54.5199 83.6364 55.0426 83.6364C55.1411 83.6364 55.2642 83.6383 55.4119 83.642C55.5597 83.6458 55.6714 83.6515 55.7472 83.6591V85.0227C55.7017 85.0114 55.5975 84.9943 55.4347 84.9716C55.2756 84.9451 55.107 84.9318 54.929 84.9318C54.5047 84.9318 54.1259 85.0208 53.7926 85.1989C53.4631 85.3731 53.2017 85.6155 53.0085 85.9261C52.8191 86.233 52.7244 86.5833 52.7244 86.9773V92.5H51.3835ZM60.6165 92.6818C59.8286 92.6818 59.1373 92.4943 58.5426 92.1193C57.9517 91.7443 57.4896 91.2197 57.1562 90.5455C56.8267 89.8712 56.6619 89.0833 56.6619 88.1818C56.6619 87.2727 56.8267 86.4792 57.1562 85.8011C57.4896 85.1231 57.9517 84.5966 58.5426 84.2216C59.1373 83.8466 59.8286 83.6591 60.6165 83.6591C61.4044 83.6591 62.0938 83.8466 62.6847 84.2216C63.2794 84.5966 63.7415 85.1231 64.071 85.8011C64.4044 86.4792 64.571 87.2727 64.571 88.1818C64.571 89.0833 64.4044 89.8712 64.071 90.5455C63.7415 91.2197 63.2794 91.7443 62.6847 92.1193C62.0938 92.4943 61.4044 92.6818 60.6165 92.6818ZM60.6165 91.4773C61.215 91.4773 61.7074 91.3239 62.0938 91.017C62.4801 90.7102 62.7661 90.3068 62.9517 89.8068C63.1373 89.3068 63.2301 88.7652 63.2301 88.1818C63.2301 87.5985 63.1373 87.0549 62.9517 86.5511C62.7661 86.0473 62.4801 85.6402 62.0938 85.3295C61.7074 85.0189 61.215 84.8636 60.6165 84.8636C60.018 84.8636 59.5256 85.0189 59.1392 85.3295C58.7528 85.6402 58.4669 86.0473 58.2812 86.5511C58.0956 87.0549 58.0028 87.5985 58.0028 88.1818C58.0028 88.7652 58.0956 89.3068 58.2812 89.8068C58.4669 90.3068 58.7528 90.7102 59.1392 91.017C59.5256 91.3239 60.018 91.4773 60.6165 91.4773ZM69.9134 92.6818C69.1861 92.6818 68.544 92.4981 67.9872 92.1307C67.4304 91.7595 66.9948 91.2367 66.6804 90.5625C66.366 89.8845 66.2088 89.0833 66.2088 88.1591C66.2088 87.2424 66.366 86.447 66.6804 85.7727C66.9948 85.0985 67.4323 84.5777 67.9929 84.2102C68.5535 83.8428 69.2012 83.6591 69.9361 83.6591C70.5043 83.6591 70.9531 83.7538 71.2827 83.9432C71.616 84.1288 71.8698 84.3409 72.044 84.5795C72.2221 84.8144 72.3603 85.0076 72.4588 85.1591H72.5724V80.8636H73.9134V92.5H72.6179V91.1591H72.4588C72.3603 91.3182 72.2202 91.5189 72.0384 91.7614C71.8565 92 71.5971 92.214 71.2599 92.4034C70.9228 92.589 70.474 92.6818 69.9134 92.6818ZM70.0952 91.4773C70.633 91.4773 71.0876 91.3371 71.4588 91.0568C71.83 90.7727 72.1122 90.3807 72.3054 89.8807C72.4986 89.3769 72.5952 88.7955 72.5952 88.1364C72.5952 87.4848 72.5005 86.9148 72.3111 86.4261C72.1217 85.9337 71.8414 85.5511 71.4702 85.2784C71.099 85.0019 70.6406 84.8636 70.0952 84.8636C69.527 84.8636 69.0535 85.0095 68.6747 85.3011C68.2997 85.589 68.0175 85.9811 67.8281 86.4773C67.6425 86.9697 67.5497 87.5227 67.5497 88.1364C67.5497 88.7576 67.6444 89.322 67.8338 89.8295C68.027 90.3333 68.3111 90.7348 68.6861 91.0341C69.0649 91.3295 69.5346 91.4773 70.0952 91.4773ZM82.0554 88.9318V83.7727H83.3963V92.5H82.0554V91.0227H81.9645C81.7599 91.4659 81.4418 91.8428 81.0099 92.1534C80.5781 92.4602 80.0327 92.6136 79.3736 92.6136C78.8281 92.6136 78.3433 92.4943 77.919 92.2557C77.4948 92.0133 77.1615 91.6496 76.919 91.1648C76.6766 90.6761 76.5554 90.0606 76.5554 89.3182V83.7727H77.8963V89.2273C77.8963 89.8636 78.0743 90.3712 78.4304 90.75C78.7902 91.1288 79.2486 91.3182 79.8054 91.3182C80.1387 91.3182 80.4777 91.233 80.8224 91.0625C81.1709 90.892 81.4626 90.6307 81.6974 90.2784C81.9361 89.9261 82.0554 89.4773 82.0554 88.9318ZM89.3977 92.6818C88.5795 92.6818 87.875 92.4886 87.2841 92.1023C86.6932 91.7159 86.2386 91.1837 85.9205 90.5057C85.6023 89.8277 85.4432 89.053 85.4432 88.1818C85.4432 87.2955 85.6061 86.5133 85.9318 85.8352C86.2614 85.1534 86.7197 84.6212 87.3068 84.2386C87.8977 83.8523 88.5871 83.6591 89.375 83.6591C89.9886 83.6591 90.5417 83.7727 91.0341 84C91.5265 84.2273 91.9299 84.5455 92.2443 84.9545C92.5587 85.3636 92.7538 85.8409 92.8295 86.3864H91.4886C91.3864 85.9886 91.1591 85.6364 90.8068 85.3295C90.4583 85.0189 89.9886 84.8636 89.3977 84.8636C88.875 84.8636 88.4167 85 88.0227 85.2727C87.6326 85.5417 87.3277 85.9223 87.108 86.4148C86.892 86.9034 86.7841 87.4773 86.7841 88.1364C86.7841 88.8106 86.8902 89.3977 87.1023 89.8977C87.3182 90.3977 87.6212 90.786 88.0114 91.0625C88.4053 91.339 88.8674 91.4773 89.3977 91.4773C89.7462 91.4773 90.0625 91.4167 90.3466 91.2955C90.6307 91.1742 90.8712 91 91.0682 90.7727C91.2652 90.5455 91.4053 90.2727 91.4886 89.9545H92.8295C92.7538 90.4697 92.5663 90.9337 92.267 91.3466C91.9716 91.7557 91.5795 92.0814 91.0909 92.3239C90.6061 92.5625 90.0417 92.6818 89.3977 92.6818ZM98.5852 83.7727V84.9091H94.0625V83.7727H98.5852ZM95.3807 81.6818H96.7216V90C96.7216 90.3788 96.7765 90.6629 96.8864 90.8523C97 91.0379 97.1439 91.1629 97.3182 91.2273C97.4962 91.2879 97.6837 91.3182 97.8807 91.3182C98.0284 91.3182 98.1496 91.3106 98.2443 91.2955C98.339 91.2765 98.4148 91.2614 98.4716 91.25L98.7443 92.4545C98.6534 92.4886 98.5265 92.5227 98.3636 92.5568C98.2008 92.5947 97.9943 92.6136 97.7443 92.6136C97.3655 92.6136 96.9943 92.5322 96.6307 92.3693C96.2708 92.2064 95.9716 91.9583 95.733 91.625C95.4981 91.2917 95.3807 90.8712 95.3807 90.3636V81.6818ZM102.602 90.9091L102.511 91.5227C102.447 91.9545 102.348 92.4167 102.216 92.9091C102.087 93.4015 101.953 93.8655 101.812 94.3011C101.672 94.7367 101.557 95.0833 101.466 95.3409H100.443C100.492 95.0985 100.557 94.7784 100.636 94.3807C100.716 93.983 100.795 93.5379 100.875 93.0455C100.958 92.5568 101.027 92.0568 101.08 91.5455L101.148 90.9091H102.602ZM109.132 82.1136V80.8636H117.859V82.1136H114.2V92.5H112.791V82.1136H109.132ZM122.246 92.6818C121.405 92.6818 120.679 92.4962 120.07 92.125C119.464 91.75 118.996 91.2273 118.666 90.5568C118.34 89.8826 118.178 89.0985 118.178 88.2045C118.178 87.3106 118.34 86.5227 118.666 85.8409C118.996 85.1553 119.454 84.6212 120.041 84.2386C120.632 83.8523 121.321 83.6591 122.109 83.6591C122.564 83.6591 123.013 83.7348 123.456 83.8864C123.899 84.0379 124.303 84.2841 124.666 84.625C125.03 84.9621 125.32 85.4091 125.536 85.9659C125.751 86.5227 125.859 87.2083 125.859 88.0227V88.5909H119.132V87.4318H124.496C124.496 86.9394 124.397 86.5 124.2 86.1136C124.007 85.7273 123.731 85.4223 123.371 85.1989C123.015 84.9754 122.594 84.8636 122.109 84.8636C121.575 84.8636 121.113 84.9962 120.723 85.2614C120.337 85.5227 120.039 85.8636 119.831 86.2841C119.623 86.7045 119.518 87.1553 119.518 87.6364V88.4091C119.518 89.0682 119.632 89.6269 119.859 90.0852C120.09 90.5398 120.411 90.8864 120.82 91.125C121.229 91.3598 121.704 91.4773 122.246 91.4773C122.598 91.4773 122.916 91.428 123.2 91.3295C123.488 91.2273 123.736 91.0758 123.945 90.875C124.153 90.6705 124.314 90.4167 124.428 90.1136L125.723 90.4773C125.587 90.9167 125.357 91.303 125.036 91.6364C124.714 91.9659 124.316 92.2235 123.842 92.4091C123.369 92.5909 122.837 92.6818 122.246 92.6818ZM131.445 92.6818C130.626 92.6818 129.922 92.4886 129.331 92.1023C128.74 91.7159 128.286 91.1837 127.967 90.5057C127.649 89.8277 127.49 89.053 127.49 88.1818C127.49 87.2955 127.653 86.5133 127.979 85.8352C128.308 85.1534 128.767 84.6212 129.354 84.2386C129.945 83.8523 130.634 83.6591 131.422 83.6591C132.036 83.6591 132.589 83.7727 133.081 84C133.573 84.2273 133.977 84.5455 134.291 84.9545C134.606 85.3636 134.801 85.8409 134.876 86.3864H133.536C133.433 85.9886 133.206 85.6364 132.854 85.3295C132.505 85.0189 132.036 84.8636 131.445 84.8636C130.922 84.8636 130.464 85 130.07 85.2727C129.679 85.5417 129.375 85.9223 129.155 86.4148C128.939 86.9034 128.831 87.4773 128.831 88.1364C128.831 88.8106 128.937 89.3977 129.149 89.8977C129.365 90.3977 129.668 90.786 130.058 91.0625C130.452 91.339 130.914 91.4773 131.445 91.4773C131.793 91.4773 132.109 91.4167 132.393 91.2955C132.678 91.1742 132.918 91 133.115 90.7727C133.312 90.5455 133.452 90.2727 133.536 89.9545H134.876C134.801 90.4697 134.613 90.9337 134.314 91.3466C134.018 91.7557 133.626 92.0814 133.138 92.3239C132.653 92.5625 132.089 92.6818 131.445 92.6818ZM138.178 87.25V92.5H136.837V80.8636H138.178V85.1364H138.291C138.496 84.6856 138.803 84.3277 139.212 84.0625C139.625 83.7936 140.174 83.6591 140.859 83.6591C141.454 83.6591 141.975 83.7784 142.422 84.017C142.869 84.2519 143.215 84.6136 143.462 85.1023C143.712 85.5871 143.837 86.2045 143.837 86.9545V92.5H142.496V87.0455C142.496 86.3523 142.316 85.8163 141.956 85.4375C141.6 85.0549 141.106 84.8636 140.473 84.8636C140.034 84.8636 139.64 84.9564 139.291 85.142C138.946 85.3277 138.674 85.5985 138.473 85.9545C138.276 86.3106 138.178 86.7424 138.178 87.25ZM147.631 87.25V92.5H146.29V83.7727H147.585V85.1364H147.699C147.903 84.6932 148.214 84.3371 148.631 84.0682C149.047 83.7955 149.585 83.6591 150.244 83.6591C150.835 83.6591 151.352 83.7803 151.795 84.0227C152.239 84.2614 152.583 84.625 152.83 85.1136C153.076 85.5985 153.199 86.2121 153.199 86.9545V92.5H151.858V87.0455C151.858 86.3598 151.68 85.8258 151.324 85.4432C150.968 85.0568 150.479 84.8636 149.858 84.8636C149.43 84.8636 149.047 84.9564 148.71 85.142C148.377 85.3277 148.114 85.5985 147.92 85.9545C147.727 86.3106 147.631 86.7424 147.631 87.25ZM155.649 92.5V83.7727H156.99V92.5H155.649ZM156.331 82.3182C156.07 82.3182 155.844 82.2292 155.655 82.0511C155.469 81.8731 155.376 81.6591 155.376 81.4091C155.376 81.1591 155.469 80.9451 155.655 80.767C155.844 80.589 156.07 80.5 156.331 80.5C156.592 80.5 156.816 80.589 157.001 80.767C157.191 80.9451 157.286 81.1591 157.286 81.4091C157.286 81.6591 157.191 81.8731 157.001 82.0511C156.816 82.2292 156.592 82.3182 156.331 82.3182ZM162.991 92.6818C162.173 92.6818 161.469 92.4886 160.878 92.1023C160.287 91.7159 159.832 91.1837 159.514 90.5057C159.196 89.8277 159.037 89.053 159.037 88.1818C159.037 87.2955 159.2 86.5133 159.526 85.8352C159.855 85.1534 160.313 84.6212 160.901 84.2386C161.491 83.8523 162.181 83.6591 162.969 83.6591C163.582 83.6591 164.135 83.7727 164.628 84C165.12 84.2273 165.524 84.5455 165.838 84.9545C166.152 85.3636 166.348 85.8409 166.423 86.3864H165.082C164.98 85.9886 164.753 85.6364 164.401 85.3295C164.052 85.0189 163.582 84.8636 162.991 84.8636C162.469 84.8636 162.01 85 161.616 85.2727C161.226 85.5417 160.921 85.9223 160.702 86.4148C160.486 86.9034 160.378 87.4773 160.378 88.1364C160.378 88.8106 160.484 89.3977 160.696 89.8977C160.912 90.3977 161.215 90.786 161.605 91.0625C161.999 91.339 162.461 91.4773 162.991 91.4773C163.34 91.4773 163.656 91.4167 163.94 91.2955C164.224 91.1742 164.465 91 164.662 90.7727C164.859 90.5455 164.999 90.2727 165.082 89.9545H166.423C166.348 90.4697 166.16 90.9337 165.861 91.3466C165.565 91.7557 165.173 92.0814 164.685 92.3239C164.2 92.5625 163.635 92.6818 162.991 92.6818ZM170.952 92.7045C170.399 92.7045 169.897 92.6004 169.446 92.392C168.995 92.1799 168.637 91.875 168.372 91.4773C168.107 91.0758 167.974 90.5909 167.974 90.0227C167.974 89.5227 168.073 89.1174 168.27 88.8068C168.467 88.4924 168.73 88.2462 169.06 88.0682C169.389 87.8902 169.753 87.7576 170.151 87.6705C170.552 87.5795 170.955 87.5076 171.361 87.4545C171.891 87.3864 172.321 87.3352 172.651 87.3011C172.984 87.2633 173.226 87.2008 173.378 87.1136C173.533 87.0265 173.611 86.875 173.611 86.6591V86.6136C173.611 86.053 173.457 85.6174 173.151 85.3068C172.848 84.9962 172.387 84.8409 171.77 84.8409C171.13 84.8409 170.628 84.9811 170.264 85.2614C169.901 85.5417 169.645 85.8409 169.497 86.1591L168.224 85.7045C168.452 85.1742 168.755 84.7614 169.134 84.4659C169.516 84.1667 169.933 83.9583 170.384 83.8409C170.838 83.7197 171.285 83.6591 171.724 83.6591C172.005 83.6591 172.327 83.6932 172.69 83.7614C173.058 83.8258 173.412 83.9602 173.753 84.1648C174.098 84.3693 174.384 84.678 174.611 85.0909C174.838 85.5038 174.952 86.0568 174.952 86.75V92.5H173.611V91.3182H173.543C173.452 91.5076 173.3 91.7102 173.088 91.9261C172.876 92.142 172.594 92.3258 172.241 92.4773C171.889 92.6288 171.459 92.7045 170.952 92.7045ZM171.156 91.5C171.687 91.5 172.134 91.3958 172.497 91.1875C172.865 90.9792 173.141 90.7102 173.327 90.3807C173.516 90.0511 173.611 89.7045 173.611 89.3409V88.1136C173.554 88.1818 173.429 88.2443 173.236 88.3011C173.046 88.3542 172.827 88.4015 172.577 88.4432C172.33 88.4811 172.09 88.5152 171.855 88.5455C171.624 88.572 171.437 88.5947 171.293 88.6136C170.944 88.6591 170.618 88.733 170.315 88.8352C170.016 88.9337 169.774 89.0833 169.588 89.2841C169.406 89.4811 169.315 89.75 169.315 90.0909C169.315 90.5568 169.488 90.9091 169.832 91.1477C170.181 91.3826 170.622 91.5 171.156 91.5ZM178.74 80.8636V92.5H177.399V80.8636H178.74ZM183.196 90.9091L183.105 91.5227C183.041 91.9545 182.942 92.4167 182.81 92.9091C182.681 93.4015 182.546 93.8655 182.406 94.3011C182.266 94.7367 182.151 95.0833 182.06 95.3409H181.037C181.086 95.0985 181.151 94.7784 181.23 94.3807C181.31 93.983 181.389 93.5379 181.469 93.0455C181.552 92.5568 181.62 92.0568 181.673 91.5455L181.741 90.9091H183.196ZM192.749 92.7045C192.196 92.7045 191.694 92.6004 191.243 92.392C190.792 92.1799 190.434 91.875 190.169 91.4773C189.904 91.0758 189.771 90.5909 189.771 90.0227C189.771 89.5227 189.87 89.1174 190.067 88.8068C190.264 88.4924 190.527 88.2462 190.857 88.0682C191.186 87.8902 191.55 87.7576 191.947 87.6705C192.349 87.5795 192.752 87.5076 193.158 87.4545C193.688 87.3864 194.118 87.3352 194.447 87.3011C194.781 87.2633 195.023 87.2008 195.175 87.1136C195.33 87.0265 195.408 86.875 195.408 86.6591V86.6136C195.408 86.053 195.254 85.6174 194.947 85.3068C194.644 84.9962 194.184 84.8409 193.567 84.8409C192.927 84.8409 192.425 84.9811 192.061 85.2614C191.697 85.5417 191.442 85.8409 191.294 86.1591L190.021 85.7045C190.249 85.1742 190.552 84.7614 190.93 84.4659C191.313 84.1667 191.73 83.9583 192.18 83.8409C192.635 83.7197 193.082 83.6591 193.521 83.6591C193.802 83.6591 194.124 83.6932 194.487 83.7614C194.855 83.8258 195.209 83.9602 195.55 84.1648C195.894 84.3693 196.18 84.678 196.408 85.0909C196.635 85.5038 196.749 86.0568 196.749 86.75V92.5H195.408V91.3182H195.339C195.249 91.5076 195.097 91.7102 194.885 91.9261C194.673 92.142 194.391 92.3258 194.038 92.4773C193.686 92.6288 193.256 92.7045 192.749 92.7045ZM192.953 91.5C193.483 91.5 193.93 91.3958 194.294 91.1875C194.661 90.9792 194.938 90.7102 195.124 90.3807C195.313 90.0511 195.408 89.7045 195.408 89.3409V88.1136C195.351 88.1818 195.226 88.2443 195.033 88.3011C194.843 88.3542 194.624 88.4015 194.374 88.4432C194.127 88.4811 193.887 88.5152 193.652 88.5455C193.421 88.572 193.233 88.5947 193.089 88.6136C192.741 88.6591 192.415 88.733 192.112 88.8352C191.813 88.9337 191.571 89.0833 191.385 89.2841C191.203 89.4811 191.112 89.75 191.112 90.0909C191.112 90.5568 191.285 90.9091 191.629 91.1477C191.978 91.3826 192.419 91.5 192.953 91.5ZM200.537 87.25V92.5H199.196V83.7727H200.491V85.1364H200.605C200.81 84.6932 201.12 84.3371 201.537 84.0682C201.954 83.7955 202.491 83.6591 203.151 83.6591C203.741 83.6591 204.259 83.7803 204.702 84.0227C205.145 84.2614 205.49 84.625 205.736 85.1136C205.982 85.5985 206.105 86.2121 206.105 86.9545V92.5H204.764V87.0455C204.764 86.3598 204.586 85.8258 204.23 85.4432C203.874 85.0568 203.385 84.8636 202.764 84.8636C202.336 84.8636 201.954 84.9564 201.616 85.142C201.283 85.3277 201.02 85.5985 200.827 85.9545C200.634 86.3106 200.537 86.7424 200.537 87.25ZM211.851 92.6818C211.124 92.6818 210.482 92.4981 209.925 92.1307C209.368 91.7595 208.932 91.2367 208.618 90.5625C208.304 89.8845 208.146 89.0833 208.146 88.1591C208.146 87.2424 208.304 86.447 208.618 85.7727C208.932 85.0985 209.37 84.5777 209.93 84.2102C210.491 83.8428 211.139 83.6591 211.874 83.6591C212.442 83.6591 212.891 83.7538 213.22 83.9432C213.554 84.1288 213.807 84.3409 213.982 84.5795C214.16 84.8144 214.298 85.0076 214.396 85.1591H214.51V80.8636H215.851V92.5H214.555V91.1591H214.396C214.298 91.3182 214.158 91.5189 213.976 91.7614C213.794 92 213.535 92.214 213.197 92.4034C212.86 92.589 212.411 92.6818 211.851 92.6818ZM212.033 91.4773C212.571 91.4773 213.025 91.3371 213.396 91.0568C213.768 90.7727 214.05 90.3807 214.243 89.8807C214.436 89.3769 214.533 88.7955 214.533 88.1364C214.533 87.4848 214.438 86.9148 214.249 86.4261C214.059 85.9337 213.779 85.5511 213.408 85.2784C213.036 85.0019 212.578 84.8636 212.033 84.8636C211.464 84.8636 210.991 85.0095 210.612 85.3011C210.237 85.589 209.955 85.9811 209.766 86.4773C209.58 86.9697 209.487 87.5227 209.487 88.1364C209.487 88.7576 209.582 89.322 209.771 89.8295C209.964 90.3333 210.249 90.7348 210.624 91.0341C211.002 91.3295 211.472 91.4773 212.033 91.4773ZM223.175 92.5V80.8636H227.243C228.054 80.8636 228.722 81.0038 229.249 81.2841C229.775 81.5606 230.167 81.9337 230.425 82.4034C230.682 82.8693 230.811 83.3864 230.811 83.9545C230.811 84.4545 230.722 84.8674 230.544 85.1932C230.37 85.5189 230.139 85.7765 229.851 85.9659C229.567 86.1553 229.258 86.2955 228.925 86.3864V86.5C229.281 86.5227 229.639 86.6477 229.999 86.875C230.358 87.1023 230.66 87.428 230.902 87.8523C231.144 88.2765 231.266 88.7955 231.266 89.4091C231.266 89.9924 231.133 90.517 230.868 90.983C230.603 91.4489 230.184 91.8182 229.612 92.0909C229.04 92.3636 228.296 92.5 227.379 92.5H223.175ZM224.584 91.25H227.379C228.3 91.25 228.953 91.072 229.339 90.7159C229.73 90.3561 229.925 89.9205 229.925 89.4091C229.925 89.0152 229.824 88.6515 229.624 88.3182C229.423 87.9811 229.137 87.7121 228.766 87.5114C228.394 87.3068 227.955 87.2045 227.447 87.2045H224.584V91.25ZM224.584 85.9773H227.197C227.622 85.9773 228.004 85.8939 228.345 85.7273C228.69 85.5606 228.963 85.3258 229.163 85.0227C229.368 84.7197 229.47 84.3636 229.47 83.9545C229.47 83.4432 229.292 83.0095 228.936 82.6534C228.58 82.2936 228.016 82.1136 227.243 82.1136H224.584V85.9773ZM238.899 88.9318V83.7727H240.24V92.5H238.899V91.0227H238.808C238.604 91.4659 238.286 91.8428 237.854 92.1534C237.422 92.4602 236.876 92.6136 236.217 92.6136C235.672 92.6136 235.187 92.4943 234.763 92.2557C234.339 92.0133 234.005 91.6496 233.763 91.1648C233.52 90.6761 233.399 90.0606 233.399 89.3182V83.7727H234.74V89.2273C234.74 89.8636 234.918 90.3712 235.274 90.75C235.634 91.1288 236.092 91.3182 236.649 91.3182C236.982 91.3182 237.321 91.233 237.666 91.0625C238.015 90.892 238.306 90.6307 238.541 90.2784C238.78 89.9261 238.899 89.4773 238.899 88.9318ZM248.878 85.7273L247.673 86.0682C247.598 85.8674 247.486 85.6723 247.338 85.483C247.194 85.2898 246.997 85.1307 246.747 85.0057C246.497 84.8807 246.177 84.8182 245.787 84.8182C245.253 84.8182 244.808 84.9413 244.452 85.1875C244.099 85.4299 243.923 85.7386 243.923 86.1136C243.923 86.447 244.045 86.7102 244.287 86.9034C244.529 87.0966 244.908 87.2576 245.423 87.3864L246.719 87.7045C247.499 87.8939 248.08 88.1837 248.463 88.5739C248.846 88.9602 249.037 89.4583 249.037 90.0682C249.037 90.5682 248.893 91.0152 248.605 91.4091C248.321 91.803 247.923 92.1136 247.412 92.3409C246.901 92.5682 246.306 92.6818 245.628 92.6818C244.738 92.6818 244.001 92.4886 243.418 92.1023C242.834 91.7159 242.465 91.1515 242.31 90.4091L243.582 90.0909C243.704 90.5606 243.933 90.9129 244.27 91.1477C244.611 91.3826 245.056 91.5 245.605 91.5C246.23 91.5 246.726 91.3674 247.094 91.1023C247.465 90.8333 247.651 90.5114 247.651 90.1364C247.651 89.8333 247.545 89.5795 247.332 89.375C247.12 89.1667 246.795 89.0114 246.355 88.9091L244.901 88.5682C244.101 88.3788 243.514 88.0852 243.139 87.6875C242.768 87.286 242.582 86.7841 242.582 86.1818C242.582 85.6894 242.721 85.2538 242.997 84.875C243.277 84.4962 243.658 84.1989 244.139 83.983C244.624 83.767 245.173 83.6591 245.787 83.6591C246.651 83.6591 247.329 83.8485 247.821 84.2273C248.317 84.6061 248.67 85.1061 248.878 85.7273ZM251.055 92.5V83.7727H252.396V92.5H251.055ZM251.737 82.3182C251.476 82.3182 251.25 82.2292 251.061 82.0511C250.875 81.8731 250.783 81.6591 250.783 81.4091C250.783 81.1591 250.875 80.9451 251.061 80.767C251.25 80.589 251.476 80.5 251.737 80.5C251.999 80.5 252.222 80.589 252.408 80.767C252.597 80.9451 252.692 81.1591 252.692 81.4091C252.692 81.6591 252.597 81.8731 252.408 82.0511C252.222 82.2292 251.999 82.3182 251.737 82.3182ZM256.193 87.25V92.5H254.852V83.7727H256.148V85.1364H256.261C256.466 84.6932 256.777 84.3371 257.193 84.0682C257.61 83.7955 258.148 83.6591 258.807 83.6591C259.398 83.6591 259.915 83.7803 260.358 84.0227C260.801 84.2614 261.146 84.625 261.392 85.1136C261.638 85.5985 261.761 86.2121 261.761 86.9545V92.5H260.42V87.0455C260.42 86.3598 260.242 85.8258 259.886 85.4432C259.53 85.0568 259.042 84.8636 258.42 84.8636C257.992 84.8636 257.61 84.9564 257.273 85.142C256.939 85.3277 256.676 85.5985 256.483 85.9545C256.29 86.3106 256.193 86.7424 256.193 87.25ZM267.871 92.6818C267.03 92.6818 266.304 92.4962 265.695 92.125C265.089 91.75 264.621 91.2273 264.291 90.5568C263.965 89.8826 263.803 89.0985 263.803 88.2045C263.803 87.3106 263.965 86.5227 264.291 85.8409C264.621 85.1553 265.079 84.6212 265.666 84.2386C266.257 83.8523 266.946 83.6591 267.734 83.6591C268.189 83.6591 268.638 83.7348 269.081 83.8864C269.524 84.0379 269.928 84.2841 270.291 84.625C270.655 84.9621 270.945 85.4091 271.161 85.9659C271.376 86.5227 271.484 87.2083 271.484 88.0227V88.5909H264.757V87.4318H270.121C270.121 86.9394 270.022 86.5 269.825 86.1136C269.632 85.7273 269.356 85.4223 268.996 85.1989C268.64 84.9754 268.219 84.8636 267.734 84.8636C267.2 84.8636 266.738 84.9962 266.348 85.2614C265.962 85.5227 265.664 85.8636 265.456 86.2841C265.248 86.7045 265.143 87.1553 265.143 87.6364V88.4091C265.143 89.0682 265.257 89.6269 265.484 90.0852C265.715 90.5398 266.036 90.8864 266.445 91.125C266.854 91.3598 267.329 91.4773 267.871 91.4773C268.223 91.4773 268.541 91.428 268.825 91.3295C269.113 91.2273 269.361 91.0758 269.57 90.875C269.778 90.6705 269.939 90.4167 270.053 90.1136L271.348 90.4773C271.212 90.9167 270.982 91.303 270.661 91.6364C270.339 91.9659 269.941 92.2235 269.467 92.4091C268.994 92.5909 268.462 92.6818 267.871 92.6818ZM279.706 85.7273L278.501 86.0682C278.426 85.8674 278.314 85.6723 278.166 85.483C278.022 85.2898 277.825 85.1307 277.575 85.0057C277.325 84.8807 277.005 84.8182 276.615 84.8182C276.081 84.8182 275.636 84.9413 275.28 85.1875C274.928 85.4299 274.751 85.7386 274.751 86.1136C274.751 86.447 274.873 86.7102 275.115 86.9034C275.357 87.0966 275.736 87.2576 276.251 87.3864L277.547 87.7045C278.327 87.8939 278.909 88.1837 279.291 88.5739C279.674 88.9602 279.865 89.4583 279.865 90.0682C279.865 90.5682 279.721 91.0152 279.433 91.4091C279.149 91.803 278.751 92.1136 278.24 92.3409C277.729 92.5682 277.134 92.6818 276.456 92.6818C275.566 92.6818 274.829 92.4886 274.246 92.1023C273.662 91.7159 273.293 91.1515 273.138 90.4091L274.411 90.0909C274.532 90.5606 274.761 90.9129 275.098 91.1477C275.439 91.3826 275.884 91.5 276.433 91.5C277.058 91.5 277.554 91.3674 277.922 91.1023C278.293 90.8333 278.479 90.5114 278.479 90.1364C278.479 89.8333 278.373 89.5795 278.161 89.375C277.948 89.1667 277.623 89.0114 277.183 88.9091L275.729 88.5682C274.929 88.3788 274.342 88.0852 273.967 87.6875C273.596 87.286 273.411 86.7841 273.411 86.1818C273.411 85.6894 273.549 85.2538 273.825 84.875C274.106 84.4962 274.486 84.1989 274.967 83.983C275.452 83.767 276.001 83.6591 276.615 83.6591C277.479 83.6591 278.157 83.8485 278.649 84.2273C279.145 84.6061 279.498 85.1061 279.706 85.7273ZM288.065 85.7273L286.861 86.0682C286.785 85.8674 286.673 85.6723 286.526 85.483C286.382 85.2898 286.185 85.1307 285.935 85.0057C285.685 84.8807 285.365 84.8182 284.974 84.8182C284.44 84.8182 283.995 84.9413 283.639 85.1875C283.287 85.4299 283.111 85.7386 283.111 86.1136C283.111 86.447 283.232 86.7102 283.474 86.9034C283.717 87.0966 284.096 87.2576 284.611 87.3864L285.906 87.7045C286.687 87.8939 287.268 88.1837 287.651 88.5739C288.033 88.9602 288.224 89.4583 288.224 90.0682C288.224 90.5682 288.08 91.0152 287.793 91.4091C287.509 91.803 287.111 92.1136 286.599 92.3409C286.088 92.5682 285.493 92.6818 284.815 92.6818C283.925 92.6818 283.188 92.4886 282.605 92.1023C282.022 91.7159 281.652 91.1515 281.497 90.4091L282.77 90.0909C282.891 90.5606 283.12 90.9129 283.457 91.1477C283.798 91.3826 284.243 91.5 284.793 91.5C285.418 91.5 285.914 91.3674 286.281 91.1023C286.652 90.8333 286.838 90.5114 286.838 90.1364C286.838 89.8333 286.732 89.5795 286.52 89.375C286.308 89.1667 285.982 89.0114 285.543 88.9091L284.088 88.5682C283.289 88.3788 282.702 88.0852 282.327 87.6875C281.955 87.286 281.77 86.7841 281.77 86.1818C281.77 85.6894 281.908 85.2538 282.185 84.875C282.465 84.4962 282.846 84.1989 283.327 83.983C283.812 83.767 284.361 83.6591 284.974 83.6591C285.838 83.6591 286.516 83.8485 287.009 84.2273C287.505 84.6061 287.857 85.1061 288.065 85.7273ZM295.402 92.5H293.925L298.197 80.8636H299.652L303.925 92.5H302.447L298.97 82.7045H298.879L295.402 92.5ZM295.947 87.9545H301.902V89.2045H295.947V87.9545ZM306.896 87.25V92.5H305.555V83.7727H306.851V85.1364H306.964C307.169 84.6932 307.48 84.3371 307.896 84.0682C308.313 83.7955 308.851 83.6591 309.51 83.6591C310.101 83.6591 310.618 83.7803 311.061 84.0227C311.504 84.2614 311.849 84.625 312.095 85.1136C312.341 85.5985 312.464 86.2121 312.464 86.9545V92.5H311.124V87.0455C311.124 86.3598 310.946 85.8258 310.589 85.4432C310.233 85.0568 309.745 84.8636 309.124 84.8636C308.696 84.8636 308.313 84.9564 307.976 85.142C307.643 85.3277 307.379 85.5985 307.186 85.9545C306.993 86.3106 306.896 86.7424 306.896 87.25ZM317.483 92.7045C316.93 92.7045 316.428 92.6004 315.977 92.392C315.527 92.1799 315.169 91.875 314.903 91.4773C314.638 91.0758 314.506 90.5909 314.506 90.0227C314.506 89.5227 314.604 89.1174 314.801 88.8068C314.998 88.4924 315.261 88.2462 315.591 88.0682C315.92 87.8902 316.284 87.7576 316.682 87.6705C317.083 87.5795 317.487 87.5076 317.892 87.4545C318.422 87.3864 318.852 87.3352 319.182 87.3011C319.515 87.2633 319.758 87.2008 319.909 87.1136C320.064 87.0265 320.142 86.875 320.142 86.6591V86.6136C320.142 86.053 319.989 85.6174 319.682 85.3068C319.379 84.9962 318.919 84.8409 318.301 84.8409C317.661 84.8409 317.159 84.9811 316.795 85.2614C316.432 85.5417 316.176 85.8409 316.028 86.1591L314.756 85.7045C314.983 85.1742 315.286 84.7614 315.665 84.4659C316.047 84.1667 316.464 83.9583 316.915 83.8409C317.369 83.7197 317.816 83.6591 318.256 83.6591C318.536 83.6591 318.858 83.6932 319.222 83.7614C319.589 83.8258 319.943 83.9602 320.284 84.1648C320.629 84.3693 320.915 84.678 321.142 85.0909C321.369 85.5038 321.483 86.0568 321.483 86.75V92.5H320.142V91.3182H320.074C319.983 91.5076 319.831 91.7102 319.619 91.9261C319.407 92.142 319.125 92.3258 318.773 92.4773C318.42 92.6288 317.991 92.7045 317.483 92.7045ZM317.688 91.5C318.218 91.5 318.665 91.3958 319.028 91.1875C319.396 90.9792 319.672 90.7102 319.858 90.3807C320.047 90.0511 320.142 89.7045 320.142 89.3409V88.1136C320.085 88.1818 319.96 88.2443 319.767 88.3011C319.578 88.3542 319.358 88.4015 319.108 88.4432C318.862 88.4811 318.621 88.5152 318.386 88.5455C318.155 88.572 317.968 88.5947 317.824 88.6136C317.475 88.6591 317.15 88.733 316.847 88.8352C316.547 88.9337 316.305 89.0833 316.119 89.2841C315.938 89.4811 315.847 89.75 315.847 90.0909C315.847 90.5568 316.019 90.9091 316.364 91.1477C316.712 91.3826 317.153 91.5 317.688 91.5ZM325.271 80.8636V92.5H323.93V80.8636H325.271ZM328.591 95.7727C328.364 95.7727 328.161 95.7538 327.983 95.7159C327.805 95.6818 327.682 95.6477 327.614 95.6136L327.955 94.4318C328.28 94.5152 328.568 94.5455 328.818 94.5227C329.068 94.5 329.29 94.3883 329.483 94.1875C329.68 93.9905 329.86 93.6705 330.023 93.2273L330.273 92.5455L327.045 83.7727H328.5L330.909 90.7273H331L333.409 83.7727H334.864L331.159 93.7727C330.992 94.2235 330.786 94.5966 330.54 94.892C330.294 95.1913 330.008 95.4129 329.682 95.5568C329.36 95.7008 328.996 95.7727 328.591 95.7727ZM342.815 85.7273L341.611 86.0682C341.535 85.8674 341.423 85.6723 341.276 85.483C341.132 85.2898 340.935 85.1307 340.685 85.0057C340.435 84.8807 340.115 84.8182 339.724 84.8182C339.19 84.8182 338.745 84.9413 338.389 85.1875C338.037 85.4299 337.861 85.7386 337.861 86.1136C337.861 86.447 337.982 86.7102 338.224 86.9034C338.467 87.0966 338.846 87.2576 339.361 87.3864L340.656 87.7045C341.437 87.8939 342.018 88.1837 342.401 88.5739C342.783 88.9602 342.974 89.4583 342.974 90.0682C342.974 90.5682 342.83 91.0152 342.543 91.4091C342.259 91.803 341.861 92.1136 341.349 92.3409C340.838 92.5682 340.243 92.6818 339.565 92.6818C338.675 92.6818 337.938 92.4886 337.355 92.1023C336.772 91.7159 336.402 91.1515 336.247 90.4091L337.52 90.0909C337.641 90.5606 337.87 90.9129 338.207 91.1477C338.548 91.3826 338.993 91.5 339.543 91.5C340.168 91.5 340.664 91.3674 341.031 91.1023C341.402 90.8333 341.588 90.5114 341.588 90.1364C341.588 89.8333 341.482 89.5795 341.27 89.375C341.058 89.1667 340.732 89.0114 340.293 88.9091L338.838 88.5682C338.039 88.3788 337.452 88.0852 337.077 87.6875C336.705 87.286 336.52 86.7841 336.52 86.1818C336.52 85.6894 336.658 85.2538 336.935 84.875C337.215 84.4962 337.596 84.1989 338.077 83.983C338.562 83.767 339.111 83.6591 339.724 83.6591C340.588 83.6591 341.266 83.8485 341.759 84.2273C342.255 84.6061 342.607 85.1061 342.815 85.7273ZM344.993 92.5V83.7727H346.334V92.5H344.993ZM345.675 82.3182C345.413 82.3182 345.188 82.2292 344.999 82.0511C344.813 81.8731 344.72 81.6591 344.72 81.4091C344.72 81.1591 344.813 80.9451 344.999 80.767C345.188 80.589 345.413 80.5 345.675 80.5C345.936 80.5 346.16 80.589 346.345 80.767C346.535 80.9451 346.629 81.1591 346.629 81.4091C346.629 81.6591 346.535 81.8731 346.345 82.0511C346.16 82.2292 345.936 82.3182 345.675 82.3182ZM354.972 85.7273L353.767 86.0682C353.691 85.8674 353.58 85.6723 353.432 85.483C353.288 85.2898 353.091 85.1307 352.841 85.0057C352.591 84.8807 352.271 84.8182 351.881 84.8182C351.347 84.8182 350.902 84.9413 350.545 85.1875C350.193 85.4299 350.017 85.7386 350.017 86.1136C350.017 86.447 350.138 86.7102 350.381 86.9034C350.623 87.0966 351.002 87.2576 351.517 87.3864L352.812 87.7045C353.593 87.8939 354.174 88.1837 354.557 88.5739C354.939 88.9602 355.131 89.4583 355.131 90.0682C355.131 90.5682 354.987 91.0152 354.699 91.4091C354.415 91.803 354.017 92.1136 353.506 92.3409C352.994 92.5682 352.4 92.6818 351.722 92.6818C350.831 92.6818 350.095 92.4886 349.511 92.1023C348.928 91.7159 348.559 91.1515 348.403 90.4091L349.676 90.0909C349.797 90.5606 350.027 90.9129 350.364 91.1477C350.705 91.3826 351.15 91.5 351.699 91.5C352.324 91.5 352.82 91.3674 353.188 91.1023C353.559 90.8333 353.744 90.5114 353.744 90.1364C353.744 89.8333 353.638 89.5795 353.426 89.375C353.214 89.1667 352.888 89.0114 352.449 88.9091L350.994 88.5682C350.195 88.3788 349.608 88.0852 349.233 87.6875C348.862 87.286 348.676 86.7841 348.676 86.1818C348.676 85.6894 348.814 85.2538 349.091 84.875C349.371 84.4962 349.752 84.1989 350.233 83.983C350.718 83.767 351.267 83.6591 351.881 83.6591C352.744 83.6591 353.422 83.8485 353.915 84.2273C354.411 84.6061 354.763 85.1061 354.972 85.7273Z" fill="black"/>
<rect x="40" y="117.5" width="16" height="16" rx="8" fill="#F3EAFD"/>
<circle cx="47.9987" cy="125.5" r="2.66667" fill="#A97DF5"/>
<path d="M71.3098 123.5C71.2161 123.213 71.0925 122.956 70.9391 122.729C70.7885 122.499 70.6081 122.303 70.3979 122.141C70.1905 121.979 69.9547 121.855 69.6905 121.77C69.4263 121.685 69.1365 121.642 68.8212 121.642C68.3042 121.642 67.834 121.776 67.4107 122.043C66.9874 122.31 66.6507 122.703 66.4007 123.223C66.1507 123.743 66.0257 124.381 66.0257 125.136C66.0257 125.892 66.1522 126.53 66.405 127.05C66.6578 127.57 67.0002 127.963 67.432 128.23C67.8638 128.497 68.3496 128.631 68.8894 128.631C69.3894 128.631 69.8297 128.524 70.2104 128.311C70.5939 128.095 70.8922 127.791 71.1053 127.399C71.3212 127.004 71.4292 126.54 71.4292 126.006L71.753 126.074H69.128V125.136H72.4519V126.074C72.4519 126.793 72.2985 127.418 71.9917 127.949C71.6877 128.48 71.2672 128.892 70.7303 129.185C70.1962 129.474 69.5826 129.619 68.8894 129.619C68.1167 129.619 67.4377 129.438 66.8525 129.074C66.2701 128.71 65.8155 128.193 65.4888 127.523C65.165 126.852 65.003 126.057 65.003 125.136C65.003 124.446 65.0953 123.825 65.28 123.274C65.4675 122.72 65.7317 122.249 66.0726 121.859C66.4135 121.47 66.8169 121.172 67.2828 120.964C67.7488 120.757 68.2615 120.653 68.8212 120.653C69.2814 120.653 69.7104 120.723 70.1081 120.862C70.5087 120.999 70.8652 121.193 71.1777 121.446C71.4931 121.696 71.7559 121.996 71.9661 122.345C72.1763 122.692 72.3212 123.077 72.4007 123.5H71.3098ZM76.0517 129.653C75.6369 129.653 75.2605 129.575 74.9224 129.419C74.5843 129.26 74.3159 129.031 74.117 128.733C73.9181 128.432 73.8187 128.068 73.8187 127.642C73.8187 127.267 73.8926 126.963 74.0403 126.73C74.188 126.494 74.3855 126.31 74.6326 126.176C74.8798 126.043 75.1525 125.943 75.4508 125.878C75.752 125.81 76.0545 125.756 76.3585 125.716C76.7562 125.665 77.0787 125.626 77.3258 125.601C77.5758 125.572 77.7576 125.526 77.8713 125.46C77.9877 125.395 78.046 125.281 78.046 125.119V125.085C78.046 124.665 77.9309 124.338 77.7008 124.105C77.4735 123.872 77.1284 123.756 76.6653 123.756C76.1852 123.756 75.8088 123.861 75.536 124.071C75.2633 124.281 75.0716 124.506 74.9608 124.744L74.0062 124.403C74.1767 124.006 74.4039 123.696 74.688 123.474C74.975 123.25 75.2875 123.094 75.6255 123.006C75.9664 122.915 76.3017 122.869 76.6312 122.869C76.8414 122.869 77.0829 122.895 77.3556 122.946C77.6312 122.994 77.8968 123.095 78.1525 123.249C78.411 123.402 78.6255 123.634 78.796 123.943C78.9664 124.253 79.0517 124.668 79.0517 125.188V129.5H78.046V128.614H77.9949C77.9267 128.756 77.813 128.908 77.6539 129.07C77.4949 129.232 77.2832 129.369 77.019 129.483C76.7548 129.597 76.4324 129.653 76.0517 129.653ZM76.2051 128.75C76.6028 128.75 76.938 128.672 77.2108 128.516C77.4863 128.359 77.6937 128.158 77.8329 127.911C77.975 127.663 78.046 127.403 78.046 127.131V126.21C78.0034 126.261 77.9096 126.308 77.7647 126.351C77.6227 126.391 77.4579 126.426 77.2704 126.457C77.0858 126.486 76.9054 126.511 76.7292 126.534C76.5559 126.554 76.4153 126.571 76.3074 126.585C76.046 126.619 75.8017 126.675 75.5744 126.751C75.35 126.825 75.1681 126.937 75.0289 127.088C74.8926 127.236 74.8244 127.437 74.8244 127.693C74.8244 128.043 74.9537 128.307 75.2122 128.486C75.4735 128.662 75.8045 128.75 76.2051 128.75ZM83.7338 122.955V123.807H80.3418V122.955H83.7338ZM81.3304 121.386H82.3361V127.625C82.3361 127.909 82.3773 128.122 82.4597 128.264C82.5449 128.403 82.6529 128.497 82.7836 128.545C82.9171 128.591 83.0577 128.614 83.2054 128.614C83.3162 128.614 83.4071 128.608 83.4782 128.597C83.5492 128.582 83.606 128.571 83.6486 128.562L83.8532 129.466C83.785 129.491 83.6898 129.517 83.5676 129.543C83.4455 129.571 83.2907 129.585 83.1032 129.585C82.8191 129.585 82.5407 129.524 82.2679 129.402C81.998 129.28 81.7736 129.094 81.5946 128.844C81.4185 128.594 81.3304 128.278 81.3304 127.898V121.386ZM86.3929 125.562V129.5H85.3873V120.773H86.3929V123.977H86.4782C86.6316 123.639 86.8617 123.371 87.1685 123.172C87.4782 122.97 87.8901 122.869 88.4043 122.869C88.8503 122.869 89.2409 122.959 89.5762 123.138C89.9114 123.314 90.1713 123.585 90.356 123.952C90.5435 124.315 90.6373 124.778 90.6373 125.341V129.5H89.6316V125.409C89.6316 124.889 89.4966 124.487 89.2267 124.203C88.9597 123.916 88.589 123.773 88.1145 123.773C87.785 123.773 87.4895 123.842 87.2282 123.982C86.9696 124.121 86.7651 124.324 86.6145 124.591C86.4668 124.858 86.3929 125.182 86.3929 125.562ZM95.2214 129.636C94.5907 129.636 94.0467 129.497 93.5893 129.219C93.1348 128.938 92.7839 128.545 92.5368 128.043C92.2924 127.537 92.1703 126.949 92.1703 126.278C92.1703 125.608 92.2924 125.017 92.5368 124.506C92.7839 123.991 93.1277 123.591 93.568 123.304C94.0112 123.014 94.5282 122.869 95.1191 122.869C95.46 122.869 95.7967 122.926 96.1291 123.04C96.4615 123.153 96.764 123.338 97.0368 123.594C97.3095 123.847 97.5268 124.182 97.6887 124.599C97.8507 125.017 97.9316 125.531 97.9316 126.142V126.568H92.8862V125.699H96.9089C96.9089 125.33 96.835 125 96.6873 124.71C96.5424 124.42 96.335 124.192 96.0652 124.024C95.7981 123.857 95.4828 123.773 95.1191 123.773C94.7186 123.773 94.372 123.872 94.0794 124.071C93.7896 124.267 93.5666 124.523 93.4103 124.838C93.2541 125.153 93.176 125.491 93.176 125.852V126.432C93.176 126.926 93.2612 127.345 93.4316 127.689C93.6049 128.03 93.845 128.29 94.1518 128.469C94.4586 128.645 94.8152 128.733 95.2214 128.733C95.4856 128.733 95.7243 128.696 95.9373 128.622C96.1532 128.545 96.3393 128.432 96.4956 128.281C96.6518 128.128 96.7725 127.937 96.8578 127.71L97.8294 127.983C97.7271 128.312 97.5552 128.602 97.3137 128.852C97.0723 129.099 96.774 129.293 96.4189 129.432C96.0637 129.568 95.6646 129.636 95.2214 129.636ZM99.4615 129.5V122.955H100.433V123.943H100.501C100.621 123.619 100.836 123.357 101.149 123.155C101.461 122.953 101.814 122.852 102.206 122.852C102.28 122.852 102.372 122.854 102.483 122.857C102.594 122.859 102.677 122.864 102.734 122.869V123.892C102.7 123.884 102.622 123.871 102.5 123.854C102.381 123.834 102.254 123.824 102.121 123.824C101.802 123.824 101.518 123.891 101.268 124.024C101.021 124.155 100.825 124.337 100.68 124.57C100.538 124.8 100.467 125.062 100.467 125.358V129.5H99.4615ZM103.926 129.5V122.955H104.932V129.5H103.926ZM104.438 121.864C104.242 121.864 104.073 121.797 103.931 121.663C103.791 121.53 103.722 121.369 103.722 121.182C103.722 120.994 103.791 120.834 103.931 120.7C104.073 120.567 104.242 120.5 104.438 120.5C104.634 120.5 104.801 120.567 104.941 120.7C105.083 120.834 105.154 120.994 105.154 121.182C105.154 121.369 105.083 121.53 104.941 121.663C104.801 121.797 104.634 121.864 104.438 121.864ZM107.78 125.562V129.5H106.774V122.955H107.746V123.977H107.831C107.984 123.645 108.217 123.378 108.53 123.176C108.842 122.972 109.246 122.869 109.74 122.869C110.183 122.869 110.571 122.96 110.903 123.142C111.236 123.321 111.494 123.594 111.679 123.96C111.863 124.324 111.956 124.784 111.956 125.341V129.5H110.95V125.409C110.95 124.895 110.817 124.494 110.55 124.207C110.282 123.918 109.916 123.773 109.45 123.773C109.129 123.773 108.842 123.842 108.589 123.982C108.339 124.121 108.142 124.324 107.997 124.591C107.852 124.858 107.78 125.182 107.78 125.562ZM116.436 132.091C115.95 132.091 115.532 132.028 115.183 131.903C114.833 131.781 114.542 131.619 114.309 131.418C114.079 131.219 113.896 131.006 113.759 130.778L114.561 130.216C114.651 130.335 114.767 130.472 114.906 130.625C115.045 130.781 115.235 130.916 115.477 131.03C115.721 131.146 116.041 131.205 116.436 131.205C116.964 131.205 117.4 131.077 117.744 130.821C118.088 130.565 118.259 130.165 118.259 129.619V128.29H118.174C118.1 128.409 117.995 128.557 117.859 128.733C117.725 128.906 117.532 129.061 117.279 129.197C117.029 129.331 116.691 129.398 116.265 129.398C115.737 129.398 115.262 129.273 114.842 129.023C114.424 128.773 114.093 128.409 113.849 127.932C113.607 127.455 113.487 126.875 113.487 126.193C113.487 125.523 113.605 124.939 113.84 124.442C114.076 123.942 114.404 123.555 114.825 123.283C115.245 123.007 115.731 122.869 116.282 122.869C116.708 122.869 117.046 122.94 117.296 123.082C117.549 123.222 117.742 123.381 117.876 123.56C118.012 123.736 118.117 123.881 118.191 123.994H118.294V122.955H119.265V129.688C119.265 130.25 119.137 130.707 118.882 131.06C118.629 131.415 118.288 131.675 117.859 131.839C117.433 132.007 116.958 132.091 116.436 132.091ZM116.401 128.494C116.805 128.494 117.146 128.402 117.424 128.217C117.703 128.033 117.914 127.767 118.059 127.42C118.204 127.074 118.276 126.659 118.276 126.176C118.276 125.705 118.205 125.288 118.063 124.928C117.921 124.567 117.711 124.284 117.433 124.08C117.154 123.875 116.811 123.773 116.401 123.773C115.975 123.773 115.62 123.881 115.336 124.097C115.055 124.312 114.843 124.602 114.701 124.966C114.562 125.33 114.492 125.733 114.492 126.176C114.492 126.631 114.563 127.033 114.705 127.382C114.85 127.729 115.063 128.001 115.345 128.2C115.629 128.396 115.981 128.494 116.401 128.494ZM124.481 131.955V122.955H125.453V123.994H125.572C125.646 123.881 125.748 123.736 125.879 123.56C126.012 123.381 126.203 123.222 126.45 123.082C126.7 122.94 127.038 122.869 127.464 122.869C128.015 122.869 128.501 123.007 128.921 123.283C129.342 123.558 129.67 123.949 129.906 124.455C130.142 124.96 130.259 125.557 130.259 126.244C130.259 126.938 130.142 127.538 129.906 128.047C129.67 128.553 129.343 128.945 128.926 129.223C128.508 129.499 128.026 129.636 127.481 129.636C127.061 129.636 126.724 129.567 126.471 129.428C126.218 129.286 126.024 129.125 125.887 128.946C125.751 128.764 125.646 128.614 125.572 128.494H125.487V131.955H124.481ZM125.47 126.227C125.47 126.722 125.542 127.158 125.687 127.536C125.832 127.911 126.044 128.205 126.322 128.418C126.6 128.628 126.941 128.733 127.345 128.733C127.765 128.733 128.116 128.622 128.397 128.401C128.681 128.176 128.894 127.875 129.036 127.497C129.181 127.116 129.254 126.693 129.254 126.227C129.254 125.767 129.183 125.352 129.041 124.983C128.901 124.611 128.69 124.317 128.406 124.101C128.124 123.882 127.771 123.773 127.345 123.773C126.936 123.773 126.592 123.876 126.313 124.084C126.035 124.288 125.825 124.575 125.683 124.945C125.541 125.311 125.47 125.739 125.47 126.227ZM131.794 129.5V122.955H132.765V123.943H132.833C132.953 123.619 133.169 123.357 133.481 123.155C133.794 122.953 134.146 122.852 134.538 122.852C134.612 122.852 134.704 122.854 134.815 122.857C134.926 122.859 135.009 122.864 135.066 122.869V123.892C135.032 123.884 134.954 123.871 134.832 123.854C134.713 123.834 134.586 123.824 134.453 123.824C134.134 123.824 133.85 123.891 133.6 124.024C133.353 124.155 133.157 124.337 133.012 124.57C132.87 124.8 132.799 125.062 132.799 125.358V129.5H131.794ZM138.718 129.636C138.127 129.636 137.609 129.496 137.163 129.214C136.72 128.933 136.373 128.54 136.123 128.034C135.876 127.528 135.752 126.937 135.752 126.261C135.752 125.58 135.876 124.984 136.123 124.476C136.373 123.967 136.72 123.572 137.163 123.291C137.609 123.01 138.127 122.869 138.718 122.869C139.309 122.869 139.826 123.01 140.269 123.291C140.715 123.572 141.062 123.967 141.309 124.476C141.559 124.984 141.684 125.58 141.684 126.261C141.684 126.937 141.559 127.528 141.309 128.034C141.062 128.54 140.715 128.933 140.269 129.214C139.826 129.496 139.309 129.636 138.718 129.636ZM138.718 128.733C139.167 128.733 139.536 128.618 139.826 128.388C140.116 128.158 140.33 127.855 140.47 127.48C140.609 127.105 140.678 126.699 140.678 126.261C140.678 125.824 140.609 125.416 140.47 125.038C140.33 124.661 140.116 124.355 139.826 124.122C139.536 123.889 139.167 123.773 138.718 123.773C138.269 123.773 137.9 123.889 137.61 124.122C137.32 124.355 137.106 124.661 136.967 125.038C136.828 125.416 136.758 125.824 136.758 126.261C136.758 126.699 136.828 127.105 136.967 127.48C137.106 127.855 137.32 128.158 137.61 128.388C137.9 128.618 138.269 128.733 138.718 128.733ZM143.219 122.955H144.225V129.977C144.225 130.381 144.155 130.73 144.016 131.026C143.88 131.321 143.672 131.55 143.394 131.712C143.118 131.874 142.77 131.955 142.35 131.955C142.316 131.955 142.282 131.955 142.248 131.955C142.214 131.955 142.18 131.955 142.145 131.955V131.017C142.18 131.017 142.211 131.017 142.239 131.017C142.268 131.017 142.299 131.017 142.333 131.017C142.64 131.017 142.864 130.926 143.006 130.744C143.148 130.565 143.219 130.31 143.219 129.977V122.955ZM143.714 121.864C143.518 121.864 143.349 121.797 143.206 121.663C143.067 121.53 142.998 121.369 142.998 121.182C142.998 120.994 143.067 120.834 143.206 120.7C143.349 120.567 143.518 120.5 143.714 120.5C143.91 120.5 144.077 120.567 144.216 120.7C144.358 120.834 144.43 120.994 144.43 121.182C144.43 121.369 144.358 121.53 144.216 121.663C144.077 121.797 143.91 121.864 143.714 121.864ZM148.811 129.636C148.181 129.636 147.637 129.497 147.179 129.219C146.725 128.938 146.374 128.545 146.127 128.043C145.882 127.537 145.76 126.949 145.76 126.278C145.76 125.608 145.882 125.017 146.127 124.506C146.374 123.991 146.718 123.591 147.158 123.304C147.601 123.014 148.118 122.869 148.709 122.869C149.05 122.869 149.387 122.926 149.719 123.04C150.051 123.153 150.354 123.338 150.627 123.594C150.899 123.847 151.117 124.182 151.279 124.599C151.441 125.017 151.521 125.531 151.521 126.142V126.568H146.476V125.699H150.499C150.499 125.33 150.425 125 150.277 124.71C150.132 124.42 149.925 124.192 149.655 124.024C149.388 123.857 149.073 123.773 148.709 123.773C148.308 123.773 147.962 123.872 147.669 124.071C147.379 124.267 147.156 124.523 147 124.838C146.844 125.153 146.766 125.491 146.766 125.852V126.432C146.766 126.926 146.851 127.345 147.021 127.689C147.195 128.03 147.435 128.29 147.742 128.469C148.048 128.645 148.405 128.733 148.811 128.733C149.075 128.733 149.314 128.696 149.527 128.622C149.743 128.545 149.929 128.432 150.085 128.281C150.242 128.128 150.362 127.937 150.448 127.71L151.419 127.983C151.317 128.312 151.145 128.602 150.904 128.852C150.662 129.099 150.364 129.293 150.009 129.432C149.654 129.568 149.254 129.636 148.811 129.636ZM155.71 129.636C155.097 129.636 154.568 129.491 154.125 129.202C153.682 128.912 153.341 128.513 153.102 128.004C152.864 127.496 152.744 126.915 152.744 126.261C152.744 125.597 152.867 125.01 153.111 124.501C153.358 123.99 153.702 123.591 154.142 123.304C154.585 123.014 155.102 122.869 155.693 122.869C156.154 122.869 156.568 122.955 156.938 123.125C157.307 123.295 157.61 123.534 157.845 123.841C158.081 124.148 158.227 124.506 158.284 124.915H157.279C157.202 124.616 157.031 124.352 156.767 124.122C156.506 123.889 156.154 123.773 155.71 123.773C155.318 123.773 154.975 123.875 154.679 124.08C154.387 124.281 154.158 124.567 153.993 124.936C153.831 125.303 153.75 125.733 153.75 126.227C153.75 126.733 153.83 127.173 153.989 127.548C154.151 127.923 154.378 128.214 154.671 128.422C154.966 128.629 155.313 128.733 155.71 128.733C155.972 128.733 156.209 128.688 156.422 128.597C156.635 128.506 156.816 128.375 156.963 128.205C157.111 128.034 157.216 127.83 157.279 127.591H158.284C158.227 127.977 158.087 128.325 157.862 128.635C157.641 128.942 157.347 129.186 156.98 129.368C156.617 129.547 156.193 129.636 155.71 129.636ZM162.601 122.955V123.807H159.209V122.955H162.601ZM160.198 121.386H161.203V127.625C161.203 127.909 161.244 128.122 161.327 128.264C161.412 128.403 161.52 128.497 161.651 128.545C161.784 128.591 161.925 128.614 162.073 128.614C162.183 128.614 162.274 128.608 162.345 128.597C162.416 128.582 162.473 128.571 162.516 128.562L162.72 129.466C162.652 129.491 162.557 129.517 162.435 129.543C162.313 129.571 162.158 129.585 161.97 129.585C161.686 129.585 161.408 129.524 161.135 129.402C160.865 129.28 160.641 129.094 160.462 128.844C160.286 128.594 160.198 128.278 160.198 127.898V121.386ZM169.96 129.636C169.415 129.636 168.933 129.499 168.516 129.223C168.098 128.945 167.771 128.553 167.536 128.047C167.3 127.538 167.182 126.938 167.182 126.244C167.182 125.557 167.3 124.96 167.536 124.455C167.771 123.949 168.1 123.558 168.52 123.283C168.941 123.007 169.426 122.869 169.977 122.869C170.404 122.869 170.74 122.94 170.987 123.082C171.237 123.222 171.428 123.381 171.558 123.56C171.692 123.736 171.796 123.881 171.869 123.994H171.955V120.773H172.96V129.5H171.989V128.494H171.869C171.796 128.614 171.691 128.764 171.554 128.946C171.418 129.125 171.223 129.286 170.97 129.428C170.718 129.567 170.381 129.636 169.96 129.636ZM170.097 128.733C170.5 128.733 170.841 128.628 171.119 128.418C171.398 128.205 171.61 127.911 171.754 127.536C171.899 127.158 171.972 126.722 171.972 126.227C171.972 125.739 171.901 125.311 171.759 124.945C171.617 124.575 171.406 124.288 171.128 124.084C170.85 123.876 170.506 123.773 170.097 123.773C169.671 123.773 169.316 123.882 169.031 124.101C168.75 124.317 168.539 124.611 168.396 124.983C168.257 125.352 168.188 125.767 168.188 126.227C168.188 126.693 168.259 127.116 168.401 127.497C168.546 127.875 168.759 128.176 169.04 128.401C169.324 128.622 169.676 128.733 170.097 128.733ZM177.601 129.636C177.01 129.636 176.492 129.496 176.046 129.214C175.602 128.933 175.256 128.54 175.006 128.034C174.759 127.528 174.635 126.937 174.635 126.261C174.635 125.58 174.759 124.984 175.006 124.476C175.256 123.967 175.602 123.572 176.046 123.291C176.492 123.01 177.01 122.869 177.601 122.869C178.192 122.869 178.709 123.01 179.152 123.291C179.598 123.572 179.945 123.967 180.192 124.476C180.442 124.984 180.567 125.58 180.567 126.261C180.567 126.937 180.442 127.528 180.192 128.034C179.945 128.54 179.598 128.933 179.152 129.214C178.709 129.496 178.192 129.636 177.601 129.636ZM177.601 128.733C178.05 128.733 178.419 128.618 178.709 128.388C178.999 128.158 179.213 127.855 179.352 127.48C179.492 127.105 179.561 126.699 179.561 126.261C179.561 125.824 179.492 125.416 179.352 125.038C179.213 124.661 178.999 124.355 178.709 124.122C178.419 123.889 178.05 123.773 177.601 123.773C177.152 123.773 176.783 123.889 176.493 124.122C176.203 124.355 175.989 124.661 175.85 125.038C175.71 125.416 175.641 125.824 175.641 126.261C175.641 126.699 175.71 127.105 175.85 127.48C175.989 127.855 176.203 128.158 176.493 128.388C176.783 128.618 177.152 128.733 177.601 128.733ZM184.761 129.636C184.148 129.636 183.619 129.491 183.176 129.202C182.733 128.912 182.392 128.513 182.153 128.004C181.915 127.496 181.795 126.915 181.795 126.261C181.795 125.597 181.917 125.01 182.162 124.501C182.409 123.99 182.753 123.591 183.193 123.304C183.636 123.014 184.153 122.869 184.744 122.869C185.204 122.869 185.619 122.955 185.988 123.125C186.358 123.295 186.66 123.534 186.896 123.841C187.132 124.148 187.278 124.506 187.335 124.915H186.329C186.253 124.616 186.082 124.352 185.818 124.122C185.557 123.889 185.204 123.773 184.761 123.773C184.369 123.773 184.025 123.875 183.73 124.08C183.437 124.281 183.209 124.567 183.044 124.936C182.882 125.303 182.801 125.733 182.801 126.227C182.801 126.733 182.881 127.173 183.04 127.548C183.202 127.923 183.429 128.214 183.721 128.422C184.017 128.629 184.363 128.733 184.761 128.733C185.023 128.733 185.26 128.688 185.473 128.597C185.686 128.506 185.866 128.375 186.014 128.205C186.162 128.034 186.267 127.83 186.329 127.591H187.335C187.278 127.977 187.138 128.325 186.913 128.635C186.692 128.942 186.398 129.186 186.031 129.368C185.667 129.547 185.244 129.636 184.761 129.636ZM192.93 126.824V122.955H193.936V129.5H192.93V128.392H192.862C192.709 128.724 192.47 129.007 192.146 129.24C191.822 129.47 191.413 129.585 190.919 129.585C190.51 129.585 190.146 129.496 189.828 129.317C189.51 129.135 189.26 128.862 189.078 128.499C188.896 128.132 188.805 127.67 188.805 127.114V122.955H189.811V127.045C189.811 127.523 189.944 127.903 190.211 128.188C190.481 128.472 190.825 128.614 191.243 128.614C191.493 128.614 191.747 128.55 192.006 128.422C192.267 128.294 192.486 128.098 192.662 127.834C192.841 127.57 192.93 127.233 192.93 126.824ZM195.778 129.5V122.955H196.749V123.977H196.835C196.971 123.628 197.191 123.357 197.495 123.163C197.799 122.967 198.164 122.869 198.59 122.869C199.022 122.869 199.382 122.967 199.669 123.163C199.958 123.357 200.184 123.628 200.346 123.977H200.414C200.582 123.639 200.833 123.371 201.169 123.172C201.504 122.97 201.906 122.869 202.374 122.869C202.96 122.869 203.438 123.053 203.811 123.419C204.183 123.783 204.369 124.349 204.369 125.119V129.5H203.363V125.119C203.363 124.636 203.231 124.291 202.967 124.084C202.703 123.876 202.392 123.773 202.034 123.773C201.573 123.773 201.217 123.912 200.964 124.19C200.711 124.466 200.585 124.815 200.585 125.239V129.5H199.562V125.017C199.562 124.645 199.441 124.345 199.2 124.118C198.958 123.888 198.647 123.773 198.267 123.773C198.005 123.773 197.761 123.842 197.534 123.982C197.309 124.121 197.127 124.314 196.988 124.561C196.852 124.805 196.784 125.088 196.784 125.409V129.5H195.778ZM208.952 129.636C208.321 129.636 207.777 129.497 207.32 129.219C206.865 128.938 206.514 128.545 206.267 128.043C206.023 127.537 205.901 126.949 205.901 126.278C205.901 125.608 206.023 125.017 206.267 124.506C206.514 123.991 206.858 123.591 207.298 123.304C207.742 123.014 208.259 122.869 208.85 122.869C209.191 122.869 209.527 122.926 209.86 123.04C210.192 123.153 210.494 123.338 210.767 123.594C211.04 123.847 211.257 124.182 211.419 124.599C211.581 125.017 211.662 125.531 211.662 126.142V126.568H206.617V125.699H210.639C210.639 125.33 210.566 125 210.418 124.71C210.273 124.42 210.066 124.192 209.796 124.024C209.529 123.857 209.213 123.773 208.85 123.773C208.449 123.773 208.102 123.872 207.81 124.071C207.52 124.267 207.297 124.523 207.141 124.838C206.985 125.153 206.906 125.491 206.906 125.852V126.432C206.906 126.926 206.992 127.345 207.162 127.689C207.335 128.03 207.575 128.29 207.882 128.469C208.189 128.645 208.546 128.733 208.952 128.733C209.216 128.733 209.455 128.696 209.668 128.622C209.884 128.545 210.07 128.432 210.226 128.281C210.382 128.128 210.503 127.937 210.588 127.71L211.56 127.983C211.458 128.312 211.286 128.602 211.044 128.852C210.803 129.099 210.504 129.293 210.149 129.432C209.794 129.568 209.395 129.636 208.952 129.636ZM214.198 125.562V129.5H213.192V122.955H214.164V123.977H214.249C214.402 123.645 214.635 123.378 214.948 123.176C215.26 122.972 215.664 122.869 216.158 122.869C216.601 122.869 216.989 122.96 217.321 123.142C217.654 123.321 217.912 123.594 218.097 123.96C218.281 124.324 218.374 124.784 218.374 125.341V129.5H217.368V125.409C217.368 124.895 217.235 124.494 216.968 124.207C216.7 123.918 216.334 123.773 215.868 123.773C215.547 123.773 215.26 123.842 215.007 123.982C214.757 124.121 214.56 124.324 214.415 124.591C214.27 124.858 214.198 125.182 214.198 125.562ZM223.058 122.955V123.807H219.666V122.955H223.058ZM220.655 121.386H221.66V127.625C221.66 127.909 221.702 128.122 221.784 128.264C221.869 128.403 221.977 128.497 222.108 128.545C222.241 128.591 222.382 128.614 222.53 128.614C222.64 128.614 222.731 128.608 222.802 128.597C222.873 128.582 222.93 128.571 222.973 128.562L223.177 129.466C223.109 129.491 223.014 129.517 222.892 129.543C222.77 129.571 222.615 129.585 222.427 129.585C222.143 129.585 221.865 129.524 221.592 129.402C221.322 129.28 221.098 129.094 220.919 128.844C220.743 128.594 220.655 128.278 220.655 127.898V121.386ZM226.497 129.653C226.082 129.653 225.706 129.575 225.368 129.419C225.03 129.26 224.761 129.031 224.562 128.733C224.363 128.432 224.264 128.068 224.264 127.642C224.264 127.267 224.338 126.963 224.486 126.73C224.633 126.494 224.831 126.31 225.078 126.176C225.325 126.043 225.598 125.943 225.896 125.878C226.197 125.81 226.5 125.756 226.804 125.716C227.202 125.665 227.524 125.626 227.771 125.601C228.021 125.572 228.203 125.526 228.317 125.46C228.433 125.395 228.491 125.281 228.491 125.119V125.085C228.491 124.665 228.376 124.338 228.146 124.105C227.919 123.872 227.574 123.756 227.111 123.756C226.631 123.756 226.254 123.861 225.981 124.071C225.709 124.281 225.517 124.506 225.406 124.744L224.452 124.403C224.622 124.006 224.849 123.696 225.133 123.474C225.42 123.25 225.733 123.094 226.071 123.006C226.412 122.915 226.747 122.869 227.077 122.869C227.287 122.869 227.528 122.895 227.801 122.946C228.077 122.994 228.342 123.095 228.598 123.249C228.856 123.402 229.071 123.634 229.241 123.943C229.412 124.253 229.497 124.668 229.497 125.188V129.5H228.491V128.614H228.44C228.372 128.756 228.258 128.908 228.099 129.07C227.94 129.232 227.729 129.369 227.464 129.483C227.2 129.597 226.878 129.653 226.497 129.653ZM226.65 128.75C227.048 128.75 227.383 128.672 227.656 128.516C227.932 128.359 228.139 128.158 228.278 127.911C228.42 127.663 228.491 127.403 228.491 127.131V126.21C228.449 126.261 228.355 126.308 228.21 126.351C228.068 126.391 227.903 126.426 227.716 126.457C227.531 126.486 227.351 126.511 227.175 126.534C227.001 126.554 226.861 126.571 226.753 126.585C226.491 126.619 226.247 126.675 226.02 126.751C225.795 126.825 225.613 126.937 225.474 127.088C225.338 127.236 225.27 127.437 225.27 127.693C225.27 128.043 225.399 128.307 225.657 128.486C225.919 128.662 226.25 128.75 226.65 128.75ZM234.179 122.955V123.807H230.787V122.955H234.179ZM231.776 121.386H232.781V127.625C232.781 127.909 232.823 128.122 232.905 128.264C232.99 128.403 233.098 128.497 233.229 128.545C233.362 128.591 233.503 128.614 233.651 128.614C233.762 128.614 233.852 128.608 233.923 128.597C233.994 128.582 234.051 128.571 234.094 128.562L234.298 129.466C234.23 129.491 234.135 129.517 234.013 129.543C233.891 129.571 233.736 129.585 233.548 129.585C233.264 129.585 232.986 129.524 232.713 129.402C232.443 129.28 232.219 129.094 232.04 128.844C231.864 128.594 231.776 128.278 231.776 127.898V121.386ZM235.692 129.5V122.955H236.698V129.5H235.692ZM236.203 121.864C236.007 121.864 235.838 121.797 235.696 121.663C235.557 121.53 235.487 121.369 235.487 121.182C235.487 120.994 235.557 120.834 235.696 120.7C235.838 120.567 236.007 120.5 236.203 120.5C236.399 120.5 236.567 120.567 236.706 120.7C236.848 120.834 236.919 120.994 236.919 121.182C236.919 121.369 236.848 121.53 236.706 121.663C236.567 121.797 236.399 121.864 236.203 121.864ZM241.199 129.636C240.608 129.636 240.089 129.496 239.643 129.214C239.2 128.933 238.854 128.54 238.604 128.034C238.356 127.528 238.233 126.937 238.233 126.261C238.233 125.58 238.356 124.984 238.604 124.476C238.854 123.967 239.2 123.572 239.643 123.291C240.089 123.01 240.608 122.869 241.199 122.869C241.79 122.869 242.307 123.01 242.75 123.291C243.196 123.572 243.542 123.967 243.79 124.476C244.04 124.984 244.165 125.58 244.165 126.261C244.165 126.937 244.04 127.528 243.79 128.034C243.542 128.54 243.196 128.933 242.75 129.214C242.307 129.496 241.79 129.636 241.199 129.636ZM241.199 128.733C241.648 128.733 242.017 128.618 242.307 128.388C242.596 128.158 242.811 127.855 242.95 127.48C243.089 127.105 243.159 126.699 243.159 126.261C243.159 125.824 243.089 125.416 242.95 125.038C242.811 124.661 242.596 124.355 242.307 124.122C242.017 123.889 241.648 123.773 241.199 123.773C240.75 123.773 240.381 123.889 240.091 124.122C239.801 124.355 239.586 124.661 239.447 125.038C239.308 125.416 239.238 125.824 239.238 126.261C239.238 126.699 239.308 127.105 239.447 127.48C239.586 127.855 239.801 128.158 240.091 128.388C240.381 128.618 240.75 128.733 241.199 128.733ZM246.705 125.562V129.5H245.7V122.955H246.671V123.977H246.757C246.91 123.645 247.143 123.378 247.455 123.176C247.768 122.972 248.171 122.869 248.666 122.869C249.109 122.869 249.497 122.96 249.829 123.142C250.161 123.321 250.42 123.594 250.605 123.96C250.789 124.324 250.882 124.784 250.882 125.341V129.5H249.876V125.409C249.876 124.895 249.742 124.494 249.475 124.207C249.208 123.918 248.842 123.773 248.376 123.773C248.055 123.773 247.768 123.842 247.515 123.982C247.265 124.121 247.068 124.324 246.923 124.591C246.778 124.858 246.705 125.182 246.705 125.562ZM253.452 129.568C253.242 129.568 253.062 129.493 252.911 129.342C252.76 129.192 252.685 129.011 252.685 128.801C252.685 128.591 252.76 128.411 252.911 128.26C253.062 128.109 253.242 128.034 253.452 128.034C253.662 128.034 253.843 128.109 253.993 128.26C254.144 128.411 254.219 128.591 254.219 128.801C254.219 128.94 254.184 129.068 254.113 129.185C254.045 129.301 253.952 129.395 253.836 129.466C253.722 129.534 253.594 129.568 253.452 129.568ZM256.757 129.568C256.547 129.568 256.366 129.493 256.216 129.342C256.065 129.192 255.99 129.011 255.99 128.801C255.99 128.591 256.065 128.411 256.216 128.26C256.366 128.109 256.547 128.034 256.757 128.034C256.967 128.034 257.148 128.109 257.298 128.26C257.449 128.411 257.524 128.591 257.524 128.801C257.524 128.94 257.488 129.068 257.417 129.185C257.349 129.301 257.257 129.395 257.14 129.466C257.027 129.534 256.899 129.568 256.757 129.568ZM260.062 129.568C259.851 129.568 259.671 129.493 259.52 129.342C259.37 129.192 259.295 129.011 259.295 128.801C259.295 128.591 259.37 128.411 259.52 128.26C259.671 128.109 259.851 128.034 260.062 128.034C260.272 128.034 260.452 128.109 260.603 128.26C260.753 128.411 260.829 128.591 260.829 128.801C260.829 128.94 260.793 129.068 260.722 129.185C260.654 129.301 260.562 129.395 260.445 129.466C260.331 129.534 260.204 129.568 260.062 129.568Z" fill="#A97DF5"/>
<g clip-path="url(#clip1_1_9294)">
<path d="M48 147.5C43.5815 147.5 40 151.082 40 155.5C40 159.918 43.5815 163.5 48 163.5C52.4185 163.5 56 159.918 56 155.5C56 151.082 52.4185 147.5 48 147.5ZM44.8335 151.898L48.8719 154.628C49.1385 154.82 49.3188 155.11 49.3738 155.434C49.4287 155.757 49.354 156.09 49.1657 156.359C48.9774 156.628 48.6907 156.813 48.3676 156.872C48.0445 156.932 47.711 156.861 47.4392 156.677C47.3198 156.593 47.2157 156.489 47.1315 156.369L44.4008 152.331C44.3587 152.271 44.3392 152.197 44.3457 152.124C44.3521 152.051 44.3841 151.983 44.4361 151.931C44.488 151.879 44.5565 151.847 44.6297 151.84C44.7028 151.834 44.7759 151.853 44.8362 151.895L44.8335 151.898ZM48 162.269C44.2692 162.269 41.2308 159.233 41.2308 155.5C41.2276 154.59 41.4096 153.688 41.7658 152.85C42.122 152.012 42.6449 151.256 43.3027 150.626C43.3538 150.575 43.4146 150.535 43.4815 150.508C43.5484 150.48 43.6201 150.467 43.6923 150.467C43.7645 150.468 43.8359 150.483 43.9023 150.512C43.9686 150.54 44.0286 150.582 44.0787 150.634C44.1289 150.686 44.1681 150.747 44.1943 150.815C44.2204 150.882 44.2329 150.954 44.231 151.026C44.229 151.098 44.2128 151.169 44.1831 151.235C44.1534 151.301 44.1109 151.36 44.0581 151.41C43.5061 151.938 43.0673 152.573 42.7684 153.276C42.4695 153.979 42.3167 154.736 42.3192 155.5C42.3192 158.632 44.8677 161.181 48 161.181C51.1323 161.181 53.6808 158.632 53.6808 155.5C53.6808 152.551 51.4223 150.12 48.5442 149.846V151.962C48.5442 152.106 48.4869 152.244 48.3848 152.346C48.2828 152.448 48.1443 152.506 48 152.506C47.8557 152.506 47.7172 152.448 47.6152 152.346C47.5131 152.244 47.4558 152.106 47.4558 151.962V149.275C47.4558 149.131 47.5131 148.992 47.6152 148.89C47.7172 148.788 47.8557 148.731 48 148.731C51.7327 148.731 54.7692 151.769 54.7692 155.5C54.7692 159.231 51.7327 162.269 48 162.269Z" fill="black"/>
</g>
<path d="M64.6342 151.71V150.773H71.1797V151.71H68.4354V159.5H67.3786V151.71H64.6342ZM73.68 155.562V159.5H72.6744V150.773H73.68V153.977H73.7653C73.9187 153.639 74.1488 153.371 74.4556 153.172C74.7653 152.97 75.1772 152.869 75.6914 152.869C76.1374 152.869 76.5281 152.959 76.8633 153.138C77.1985 153.314 77.4585 153.585 77.6431 153.952C77.8306 154.315 77.9244 154.778 77.9244 155.341V159.5H76.9187V155.409C76.9187 154.889 76.7837 154.487 76.5138 154.203C76.2468 153.916 75.8761 153.773 75.4016 153.773C75.0721 153.773 74.7766 153.842 74.5153 153.982C74.2567 154.121 74.0522 154.324 73.9016 154.591C73.7539 154.858 73.68 155.182 73.68 155.562ZM79.7642 159.5V152.955H80.7699V159.5H79.7642ZM80.2756 151.864C80.0795 151.864 79.9105 151.797 79.7685 151.663C79.6293 151.53 79.5597 151.369 79.5597 151.182C79.5597 150.994 79.6293 150.834 79.7685 150.7C79.9105 150.567 80.0795 150.5 80.2756 150.5C80.4716 150.5 80.6392 150.567 80.7784 150.7C80.9205 150.834 80.9915 150.994 80.9915 151.182C80.9915 151.369 80.9205 151.53 80.7784 151.663C80.6392 151.797 80.4716 151.864 80.2756 151.864ZM87.2482 154.42L86.3448 154.676C86.288 154.526 86.2042 154.379 86.0934 154.237C85.9854 154.092 85.8377 153.973 85.6502 153.879C85.4627 153.786 85.2227 153.739 84.93 153.739C84.5295 153.739 84.1957 153.831 83.9286 154.016C83.6644 154.197 83.5323 154.429 83.5323 154.71C83.5323 154.96 83.6232 155.158 83.805 155.303C83.9869 155.447 84.271 155.568 84.6573 155.665L85.6289 155.903C86.2141 156.045 86.6502 156.263 86.9371 156.555C87.2241 156.845 87.3675 157.219 87.3675 157.676C87.3675 158.051 87.2596 158.386 87.0437 158.682C86.8306 158.977 86.5323 159.21 86.1488 159.381C85.7653 159.551 85.3192 159.636 84.8107 159.636C84.1431 159.636 83.5906 159.491 83.1531 159.202C82.7156 158.912 82.4386 158.489 82.3221 157.932L83.2766 157.693C83.3675 158.045 83.5394 158.31 83.7923 158.486C84.0479 158.662 84.3817 158.75 84.7937 158.75C85.2624 158.75 85.6346 158.651 85.9102 158.452C86.1886 158.25 86.3278 158.009 86.3278 157.727C86.3278 157.5 86.2482 157.31 86.0891 157.156C85.93 157 85.6857 156.884 85.3562 156.807L84.2653 156.551C83.6658 156.409 83.2255 156.189 82.9442 155.891C82.6658 155.589 82.5266 155.213 82.5266 154.761C82.5266 154.392 82.6303 154.065 82.8377 153.781C83.0479 153.497 83.3335 153.274 83.6942 153.112C84.0579 152.95 84.4698 152.869 84.93 152.869C85.5778 152.869 86.0863 153.011 86.4556 153.295C86.8278 153.58 87.092 153.955 87.2482 154.42ZM96.3814 156.824V152.955H97.3871V159.5H96.3814V158.392H96.3132C96.1598 158.724 95.9212 159.007 95.5973 159.24C95.2734 159.47 94.8643 159.585 94.37 159.585C93.9609 159.585 93.5973 159.496 93.2791 159.317C92.9609 159.135 92.7109 158.862 92.5291 158.499C92.3473 158.132 92.2564 157.67 92.2564 157.114V152.955H93.2621V157.045C93.2621 157.523 93.3956 157.903 93.6626 158.188C93.9325 158.472 94.2763 158.614 94.6939 158.614C94.9439 158.614 95.1982 158.55 95.4567 158.422C95.718 158.294 95.9368 158.098 96.1129 157.834C96.2919 157.57 96.3814 157.233 96.3814 156.824ZM103.865 154.42L102.962 154.676C102.905 154.526 102.821 154.379 102.711 154.237C102.603 154.092 102.455 153.973 102.267 153.879C102.08 153.786 101.84 153.739 101.547 153.739C101.147 153.739 100.813 153.831 100.546 154.016C100.282 154.197 100.15 154.429 100.15 154.71C100.15 154.96 100.24 155.158 100.422 155.303C100.604 155.447 100.888 155.568 101.275 155.665L102.246 155.903C102.831 156.045 103.267 156.263 103.554 156.555C103.841 156.845 103.985 157.219 103.985 157.676C103.985 158.051 103.877 158.386 103.661 158.682C103.448 158.977 103.15 159.21 102.766 159.381C102.382 159.551 101.936 159.636 101.428 159.636C100.76 159.636 100.208 159.491 99.7702 159.202C99.3327 158.912 99.0558 158.489 98.9393 157.932L99.8938 157.693C99.9847 158.045 100.157 158.31 100.409 158.486C100.665 158.662 100.999 158.75 101.411 158.75C101.88 158.75 102.252 158.651 102.527 158.452C102.806 158.25 102.945 158.009 102.945 157.727C102.945 157.5 102.865 157.31 102.706 157.156C102.547 157 102.303 156.884 101.973 156.807L100.882 156.551C100.283 156.409 99.8427 156.189 99.5614 155.891C99.283 155.589 99.1438 155.213 99.1438 154.761C99.1438 154.392 99.2475 154.065 99.4549 153.781C99.6651 153.497 99.9506 153.274 100.311 153.112C100.675 152.95 101.087 152.869 101.547 152.869C102.195 152.869 102.703 153.011 103.073 153.295C103.445 153.58 103.709 153.955 103.865 154.42ZM109.624 156.824V152.955H110.629V159.5H109.624V158.392H109.555C109.402 158.724 109.163 159.007 108.839 159.24C108.516 159.47 108.107 159.585 107.612 159.585C107.203 159.585 106.839 159.496 106.521 159.317C106.203 159.135 105.953 158.862 105.771 158.499C105.589 158.132 105.499 157.67 105.499 157.114V152.955H106.504V157.045C106.504 157.523 106.638 157.903 106.905 158.188C107.175 158.472 107.518 158.614 107.936 158.614C108.186 158.614 108.44 158.55 108.699 158.422C108.96 158.294 109.179 158.098 109.355 157.834C109.534 157.57 109.624 157.233 109.624 156.824ZM114.397 159.653C113.983 159.653 113.606 159.575 113.268 159.419C112.93 159.26 112.662 159.031 112.463 158.733C112.264 158.432 112.164 158.068 112.164 157.642C112.164 157.267 112.238 156.963 112.386 156.73C112.534 156.494 112.731 156.31 112.978 156.176C113.225 156.043 113.498 155.943 113.797 155.878C114.098 155.81 114.4 155.756 114.704 155.716C115.102 155.665 115.424 155.626 115.672 155.601C115.922 155.572 116.103 155.526 116.217 155.46C116.333 155.395 116.392 155.281 116.392 155.119V155.085C116.392 154.665 116.277 154.338 116.047 154.105C115.819 153.872 115.474 153.756 115.011 153.756C114.531 153.756 114.154 153.861 113.882 154.071C113.609 154.281 113.417 154.506 113.306 154.744L112.352 154.403C112.522 154.006 112.75 153.696 113.034 153.474C113.321 153.25 113.633 153.094 113.971 153.006C114.312 152.915 114.647 152.869 114.977 152.869C115.187 152.869 115.429 152.895 115.701 152.946C115.977 152.994 116.243 153.095 116.498 153.249C116.757 153.402 116.971 153.634 117.142 153.943C117.312 154.253 117.397 154.668 117.397 155.188V159.5H116.392V158.614H116.341C116.272 158.756 116.159 158.908 116 159.07C115.841 159.232 115.629 159.369 115.365 159.483C115.1 159.597 114.778 159.653 114.397 159.653ZM114.551 158.75C114.949 158.75 115.284 158.672 115.556 158.516C115.832 158.359 116.039 158.158 116.179 157.911C116.321 157.663 116.392 157.403 116.392 157.131V156.21C116.349 156.261 116.255 156.308 116.11 156.351C115.968 156.391 115.804 156.426 115.616 156.457C115.431 156.486 115.251 156.511 115.075 156.534C114.902 156.554 114.761 156.571 114.653 156.585C114.392 156.619 114.147 156.675 113.92 156.751C113.696 156.825 113.514 156.937 113.375 157.088C113.238 157.236 113.17 157.437 113.17 157.693C113.17 158.043 113.299 158.307 113.558 158.486C113.819 158.662 114.15 158.75 114.551 158.75ZM120.239 150.773V159.5H119.233V150.773H120.239ZM123.086 150.773V159.5H122.081V150.773H123.086ZM125.576 161.955C125.406 161.955 125.254 161.94 125.12 161.912C124.987 161.886 124.894 161.861 124.843 161.835L125.099 160.949C125.343 161.011 125.559 161.034 125.746 161.017C125.934 161 126.1 160.916 126.245 160.766C126.393 160.618 126.528 160.378 126.65 160.045L126.837 159.534L124.417 152.955H125.508L127.315 158.17H127.383L129.19 152.955H130.281L127.502 160.455C127.377 160.793 127.222 161.072 127.038 161.294C126.853 161.518 126.638 161.685 126.394 161.793C126.153 161.901 125.88 161.955 125.576 161.955ZM137.83 152.955V153.807H134.438V152.955H137.83ZM135.426 151.386H136.432V157.625C136.432 157.909 136.473 158.122 136.555 158.264C136.641 158.403 136.749 158.497 136.879 158.545C137.013 158.591 137.153 158.614 137.301 158.614C137.412 158.614 137.503 158.608 137.574 158.597C137.645 158.582 137.702 158.571 137.744 158.562L137.949 159.466C137.881 159.491 137.786 159.517 137.663 159.543C137.541 159.571 137.386 159.585 137.199 159.585C136.915 159.585 136.636 159.524 136.364 159.402C136.094 159.28 135.869 159.094 135.69 158.844C135.514 158.594 135.426 158.278 135.426 157.898V151.386ZM141.268 159.653C140.854 159.653 140.477 159.575 140.139 159.419C139.801 159.26 139.533 159.031 139.334 158.733C139.135 158.432 139.036 158.068 139.036 157.642C139.036 157.267 139.109 156.963 139.257 156.73C139.405 156.494 139.602 156.31 139.849 156.176C140.097 156.043 140.369 155.943 140.668 155.878C140.969 155.81 141.271 155.756 141.575 155.716C141.973 155.665 142.295 155.626 142.543 155.601C142.793 155.572 142.974 155.526 143.088 155.46C143.205 155.395 143.263 155.281 143.263 155.119V155.085C143.263 154.665 143.148 154.338 142.918 154.105C142.69 153.872 142.345 153.756 141.882 153.756C141.402 153.756 141.026 153.861 140.753 154.071C140.48 154.281 140.288 154.506 140.178 154.744L139.223 154.403C139.393 154.006 139.621 153.696 139.905 153.474C140.192 153.25 140.504 153.094 140.842 153.006C141.183 152.915 141.518 152.869 141.848 152.869C142.058 152.869 142.3 152.895 142.572 152.946C142.848 152.994 143.114 153.095 143.369 153.249C143.628 153.402 143.842 153.634 144.013 153.943C144.183 154.253 144.268 154.668 144.268 155.188V159.5H143.263V158.614H143.212C143.143 158.756 143.03 158.908 142.871 159.07C142.712 159.232 142.5 159.369 142.236 159.483C141.972 159.597 141.649 159.653 141.268 159.653ZM141.422 158.75C141.82 158.75 142.155 158.672 142.428 158.516C142.703 158.359 142.911 158.158 143.05 157.911C143.192 157.663 143.263 157.403 143.263 157.131V156.21C143.22 156.261 143.126 156.308 142.982 156.351C142.839 156.391 142.675 156.426 142.487 156.457C142.303 156.486 142.122 156.511 141.946 156.534C141.773 156.554 141.632 156.571 141.524 156.585C141.263 156.619 141.018 156.675 140.791 156.751C140.567 156.825 140.385 156.937 140.246 157.088C140.109 157.236 140.041 157.437 140.041 157.693C140.041 158.043 140.17 158.307 140.429 158.486C140.69 158.662 141.021 158.75 141.422 158.75ZM147.042 157.114L147.025 155.869H147.229L150.093 152.955H151.337L148.286 156.04H148.201L147.042 157.114ZM146.104 159.5V150.773H147.11V159.5H146.104ZM150.263 159.5L147.706 156.261L148.422 155.562L151.542 159.5H150.263ZM155.106 159.636C154.475 159.636 153.931 159.497 153.474 159.219C153.02 158.938 152.669 158.545 152.422 158.043C152.177 157.537 152.055 156.949 152.055 156.278C152.055 155.608 152.177 155.017 152.422 154.506C152.669 153.991 153.012 153.591 153.453 153.304C153.896 153.014 154.413 152.869 155.004 152.869C155.345 152.869 155.681 152.926 156.014 153.04C156.346 153.153 156.649 153.338 156.922 153.594C157.194 153.847 157.412 154.182 157.574 154.599C157.735 155.017 157.816 155.531 157.816 156.142V156.568H152.771V155.699H156.794C156.794 155.33 156.72 155 156.572 154.71C156.427 154.42 156.22 154.192 155.95 154.024C155.683 153.857 155.368 153.773 155.004 153.773C154.603 153.773 154.257 153.872 153.964 154.071C153.674 154.267 153.451 154.523 153.295 154.838C153.139 155.153 153.061 155.491 153.061 155.852V156.432C153.061 156.926 153.146 157.345 153.316 157.689C153.49 158.03 153.73 158.29 154.037 158.469C154.343 158.645 154.7 158.733 155.106 158.733C155.37 158.733 155.609 158.696 155.822 158.622C156.038 158.545 156.224 158.432 156.38 158.281C156.537 158.128 156.657 157.937 156.743 157.71L157.714 157.983C157.612 158.312 157.44 158.602 157.199 158.852C156.957 159.099 156.659 159.293 156.304 159.432C155.949 159.568 155.549 159.636 155.106 159.636ZM163.983 154.42L163.079 154.676C163.022 154.526 162.939 154.379 162.828 154.237C162.72 154.092 162.572 153.973 162.385 153.879C162.197 153.786 161.957 153.739 161.664 153.739C161.264 153.739 160.93 153.831 160.663 154.016C160.399 154.197 160.267 154.429 160.267 154.71C160.267 154.96 160.358 155.158 160.539 155.303C160.721 155.447 161.005 155.568 161.392 155.665L162.363 155.903C162.949 156.045 163.385 156.263 163.672 156.555C163.958 156.845 164.102 157.219 164.102 157.676C164.102 158.051 163.994 158.386 163.778 158.682C163.565 158.977 163.267 159.21 162.883 159.381C162.5 159.551 162.054 159.636 161.545 159.636C160.877 159.636 160.325 159.491 159.887 159.202C159.45 158.912 159.173 158.489 159.056 157.932L160.011 157.693C160.102 158.045 160.274 158.31 160.527 158.486C160.782 158.662 161.116 158.75 161.528 158.75C161.997 158.75 162.369 158.651 162.645 158.452C162.923 158.25 163.062 158.009 163.062 157.727C163.062 157.5 162.983 157.31 162.824 157.156C162.664 157 162.42 156.884 162.091 156.807L161 156.551C160.4 156.409 159.96 156.189 159.679 155.891C159.4 155.589 159.261 155.213 159.261 154.761C159.261 154.392 159.365 154.065 159.572 153.781C159.782 153.497 160.068 153.274 160.429 153.112C160.792 152.95 161.204 152.869 161.664 152.869C162.312 152.869 162.821 153.011 163.19 153.295C163.562 153.58 163.826 153.955 163.983 154.42ZM168.991 159.5V152.955H169.962V153.977H170.048C170.184 153.628 170.404 153.357 170.708 153.163C171.012 152.967 171.377 152.869 171.803 152.869C172.235 152.869 172.594 152.967 172.881 153.163C173.171 153.357 173.397 153.628 173.559 153.977H173.627C173.795 153.639 174.046 153.371 174.381 153.172C174.717 152.97 175.119 152.869 175.587 152.869C176.173 152.869 176.651 153.053 177.023 153.419C177.396 153.783 177.582 154.349 177.582 155.119V159.5H176.576V155.119C176.576 154.636 176.444 154.291 176.18 154.084C175.915 153.876 175.604 153.773 175.246 153.773C174.786 153.773 174.43 153.912 174.177 154.19C173.924 154.466 173.798 154.815 173.798 155.239V159.5H172.775V155.017C172.775 154.645 172.654 154.345 172.413 154.118C172.171 153.888 171.86 153.773 171.479 153.773C171.218 153.773 170.974 153.842 170.746 153.982C170.522 154.121 170.34 154.314 170.201 154.561C170.065 154.805 169.996 155.088 169.996 155.409V159.5H168.991ZM182.165 159.636C181.534 159.636 180.99 159.497 180.533 159.219C180.078 158.938 179.727 158.545 179.48 158.043C179.236 157.537 179.114 156.949 179.114 156.278C179.114 155.608 179.236 155.017 179.48 154.506C179.727 153.991 180.071 153.591 180.511 153.304C180.955 153.014 181.472 152.869 182.062 152.869C182.403 152.869 182.74 152.926 183.072 153.04C183.405 153.153 183.707 153.338 183.98 153.594C184.253 153.847 184.47 154.182 184.632 154.599C184.794 155.017 184.875 155.531 184.875 156.142V156.568H179.83V155.699H183.852C183.852 155.33 183.778 155 183.631 154.71C183.486 154.42 183.278 154.192 183.009 154.024C182.741 153.857 182.426 153.773 182.062 153.773C181.662 153.773 181.315 153.872 181.023 154.071C180.733 154.267 180.51 154.523 180.354 154.838C180.197 155.153 180.119 155.491 180.119 155.852V156.432C180.119 156.926 180.205 157.345 180.375 157.689C180.548 158.03 180.788 158.29 181.095 158.469C181.402 158.645 181.759 158.733 182.165 158.733C182.429 158.733 182.668 158.696 182.881 158.622C183.097 158.545 183.283 158.432 183.439 158.281C183.595 158.128 183.716 157.937 183.801 157.71L184.773 157.983C184.67 158.312 184.499 158.602 184.257 158.852C184.016 159.099 183.717 159.293 183.362 159.432C183.007 159.568 182.608 159.636 182.165 159.636ZM192.49 159.619C191.99 159.619 191.54 159.52 191.139 159.321C190.739 159.122 190.418 158.849 190.176 158.503C189.935 158.156 189.803 157.761 189.78 157.318H190.803C190.842 157.713 191.021 158.04 191.339 158.298C191.661 158.554 192.044 158.682 192.49 158.682C192.848 158.682 193.166 158.598 193.445 158.43C193.726 158.263 193.946 158.033 194.105 157.74C194.267 157.445 194.348 157.111 194.348 156.739C194.348 156.358 194.264 156.018 194.097 155.72C193.932 155.419 193.705 155.182 193.415 155.009C193.125 154.835 192.794 154.747 192.422 154.744C192.155 154.741 191.881 154.783 191.599 154.868C191.318 154.95 191.087 155.057 190.905 155.188L189.916 155.068L190.445 150.773H194.979V151.71H191.331L191.024 154.284H191.075C191.254 154.142 191.479 154.024 191.749 153.93C192.018 153.837 192.3 153.79 192.592 153.79C193.126 153.79 193.602 153.918 194.02 154.173C194.44 154.426 194.77 154.773 195.009 155.213C195.25 155.653 195.371 156.156 195.371 156.722C195.371 157.278 195.246 157.776 194.996 158.213C194.749 158.648 194.408 158.991 193.973 159.244C193.538 159.494 193.044 159.619 192.49 159.619ZM200.831 154.668V155.605H197.012V154.668H200.831ZM205.651 150.773V159.5H204.594V151.881H204.543L202.413 153.295V152.222L204.594 150.773H205.651ZM211.008 159.619C210.366 159.619 209.819 159.445 209.367 159.095C208.915 158.743 208.57 158.233 208.332 157.565C208.093 156.895 207.974 156.085 207.974 155.136C207.974 154.193 208.093 153.388 208.332 152.72C208.573 152.05 208.92 151.538 209.371 151.186C209.826 150.831 210.371 150.653 211.008 150.653C211.644 150.653 212.188 150.831 212.64 151.186C213.094 151.538 213.441 152.05 213.68 152.72C213.921 153.388 214.042 154.193 214.042 155.136C214.042 156.085 213.923 156.895 213.684 157.565C213.445 158.233 213.1 158.743 212.648 159.095C212.197 159.445 211.65 159.619 211.008 159.619ZM211.008 158.682C211.644 158.682 212.138 158.375 212.491 157.761C212.843 157.148 213.019 156.273 213.019 155.136C213.019 154.381 212.938 153.737 212.776 153.206C212.617 152.675 212.387 152.27 212.086 151.991C211.788 151.713 211.428 151.574 211.008 151.574C210.377 151.574 209.884 151.885 209.529 152.507C209.174 153.126 208.996 154.003 208.996 155.136C208.996 155.892 209.076 156.534 209.235 157.062C209.394 157.591 209.623 157.993 209.921 158.268C210.222 158.544 210.585 158.682 211.008 158.682ZM219.053 159.5V152.955H220.025V153.977H220.11C220.246 153.628 220.467 153.357 220.771 153.163C221.075 152.967 221.44 152.869 221.866 152.869C222.298 152.869 222.657 152.967 222.944 153.163C223.234 153.357 223.46 153.628 223.621 153.977H223.69C223.857 153.639 224.109 153.371 224.444 153.172C224.779 152.97 225.181 152.869 225.65 152.869C226.235 152.869 226.714 153.053 227.086 153.419C227.458 153.783 227.644 154.349 227.644 155.119V159.5H226.638V155.119C226.638 154.636 226.506 154.291 226.242 154.084C225.978 153.876 225.667 153.773 225.309 153.773C224.849 153.773 224.492 153.912 224.239 154.19C223.987 154.466 223.86 154.815 223.86 155.239V159.5H222.837V155.017C222.837 154.645 222.717 154.345 222.475 154.118C222.234 153.888 221.923 153.773 221.542 153.773C221.281 153.773 221.036 153.842 220.809 153.982C220.585 154.121 220.403 154.314 220.263 154.561C220.127 154.805 220.059 155.088 220.059 155.409V159.5H219.053ZM229.483 159.5V152.955H230.489V159.5H229.483ZM229.994 151.864C229.798 151.864 229.629 151.797 229.487 151.663C229.348 151.53 229.278 151.369 229.278 151.182C229.278 150.994 229.348 150.834 229.487 150.7C229.629 150.567 229.798 150.5 229.994 150.5C230.19 150.5 230.358 150.567 230.497 150.7C230.639 150.834 230.71 150.994 230.71 151.182C230.71 151.369 230.639 151.53 230.497 151.663C230.358 151.797 230.19 151.864 229.994 151.864ZM233.336 155.562V159.5H232.331V152.955H233.302V153.977H233.387C233.541 153.645 233.774 153.378 234.086 153.176C234.399 152.972 234.802 152.869 235.297 152.869C235.74 152.869 236.127 152.96 236.46 153.142C236.792 153.321 237.051 153.594 237.235 153.96C237.42 154.324 237.512 154.784 237.512 155.341V159.5H236.507V155.409C236.507 154.895 236.373 154.494 236.106 154.207C235.839 153.918 235.473 153.773 235.007 153.773C234.686 153.773 234.399 153.842 234.146 153.982C233.896 154.121 233.699 154.324 233.554 154.591C233.409 154.858 233.336 155.182 233.336 155.562ZM243.475 156.824V152.955H244.481V159.5H243.475V158.392H243.407C243.254 158.724 243.015 159.007 242.691 159.24C242.367 159.47 241.958 159.585 241.464 159.585C241.055 159.585 240.691 159.496 240.373 159.317C240.055 159.135 239.805 158.862 239.623 158.499C239.441 158.132 239.35 157.67 239.35 157.114V152.955H240.356V157.045C240.356 157.523 240.489 157.903 240.756 158.188C241.026 158.472 241.37 158.614 241.788 158.614C242.038 158.614 242.292 158.55 242.55 158.422C242.812 158.294 243.031 158.098 243.207 157.834C243.386 157.57 243.475 157.233 243.475 156.824ZM249.169 152.955V153.807H245.777V152.955H249.169ZM246.766 151.386H247.772V157.625C247.772 157.909 247.813 158.122 247.895 158.264C247.98 158.403 248.088 158.497 248.219 158.545C248.353 158.591 248.493 158.614 248.641 158.614C248.752 158.614 248.843 158.608 248.914 158.597C248.985 158.582 249.042 158.571 249.084 158.562L249.289 159.466C249.221 159.491 249.125 159.517 249.003 159.543C248.881 159.571 248.726 159.585 248.539 159.585C248.255 159.585 247.976 159.524 247.703 159.402C247.434 159.28 247.209 159.094 247.03 158.844C246.854 158.594 246.766 158.278 246.766 157.898V151.386ZM253.356 159.636C252.725 159.636 252.181 159.497 251.724 159.219C251.27 158.938 250.919 158.545 250.672 158.043C250.427 157.537 250.305 156.949 250.305 156.278C250.305 155.608 250.427 155.017 250.672 154.506C250.919 153.991 251.262 153.591 251.703 153.304C252.146 153.014 252.663 152.869 253.254 152.869C253.595 152.869 253.931 152.926 254.264 153.04C254.596 153.153 254.899 153.338 255.172 153.594C255.444 153.847 255.662 154.182 255.824 154.599C255.985 155.017 256.066 155.531 256.066 156.142V156.568H251.021V155.699H255.044C255.044 155.33 254.97 155 254.822 154.71C254.677 154.42 254.47 154.192 254.2 154.024C253.933 153.857 253.618 153.773 253.254 153.773C252.853 153.773 252.507 153.872 252.214 154.071C251.924 154.267 251.701 154.523 251.545 154.838C251.389 155.153 251.311 155.491 251.311 155.852V156.432C251.311 156.926 251.396 157.345 251.566 157.689C251.74 158.03 251.98 158.29 252.287 158.469C252.593 158.645 252.95 158.733 253.356 158.733C253.62 158.733 253.859 158.696 254.072 158.622C254.288 158.545 254.474 158.432 254.63 158.281C254.787 158.128 254.907 157.937 254.993 157.71L255.964 157.983C255.862 158.312 255.69 158.602 255.449 158.852C255.207 159.099 254.909 159.293 254.554 159.432C254.199 159.568 253.799 159.636 253.356 159.636ZM262.233 154.42L261.329 154.676C261.272 154.526 261.189 154.379 261.078 154.237C260.97 154.092 260.822 153.973 260.635 153.879C260.447 153.786 260.207 153.739 259.914 153.739C259.514 153.739 259.18 153.831 258.913 154.016C258.649 154.197 258.517 154.429 258.517 154.71C258.517 154.96 258.608 155.158 258.789 155.303C258.971 155.447 259.255 155.568 259.642 155.665L260.613 155.903C261.199 156.045 261.635 156.263 261.922 156.555C262.208 156.845 262.352 157.219 262.352 157.676C262.352 158.051 262.244 158.386 262.028 158.682C261.815 158.977 261.517 159.21 261.133 159.381C260.75 159.551 260.304 159.636 259.795 159.636C259.127 159.636 258.575 159.491 258.137 159.202C257.7 158.912 257.423 158.489 257.306 157.932L258.261 157.693C258.352 158.045 258.524 158.31 258.777 158.486C259.032 158.662 259.366 158.75 259.778 158.75C260.247 158.75 260.619 158.651 260.895 158.452C261.173 158.25 261.312 158.009 261.312 157.727C261.312 157.5 261.233 157.31 261.074 157.156C260.914 157 260.67 156.884 260.341 156.807L259.25 156.551C258.65 156.409 258.21 156.189 257.929 155.891C257.65 155.589 257.511 155.213 257.511 154.761C257.511 154.392 257.615 154.065 257.822 153.781C258.032 153.497 258.318 153.274 258.679 153.112C259.042 152.95 259.454 152.869 259.914 152.869C260.562 152.869 261.071 153.011 261.44 153.295C261.812 153.58 262.076 153.955 262.233 154.42Z" fill="black"/>
<defs>
<clipPath id="clip0_1_9294">
<rect x="40" y="22.5" width="364" height="8" rx="4" fill="white"/>
</clipPath>
<clipPath id="clip1_1_9294">
<rect width="16" height="16" fill="white" transform="translate(40 147.5)"/>
</clipPath>
</defs>
</svg>
