<svg width="16" height="16" viewBox="0 0 16 16" fill="none" xmlns="http://www.w3.org/2000/svg">
<g clip-path="url(#clip0_1_11017)">
<path d="M15.7378 3.94373C15.7011 3.86823 15.6469 3.8026 15.5797 3.7523C15.5125 3.70201 15.4342 3.66851 15.3514 3.6546C15.2687 3.64068 15.1838 3.64676 15.1038 3.67232C15.0239 3.69788 14.9512 3.74219 14.8918 3.80154L13.2934 5.39998C13.2282 5.46429 13.1403 5.50035 13.0487 5.50035C12.9571 5.50035 12.8692 5.46429 12.804 5.39998L12.1015 4.69748C12.0372 4.63218 12.0012 4.54424 12.0012 4.45263C12.0012 4.36102 12.0372 4.27308 12.1015 4.20779L13.6915 2.61748C13.7523 2.55664 13.7973 2.48183 13.8226 2.39958C13.8478 2.31733 13.8525 2.23015 13.8363 2.14567C13.82 2.06118 13.7833 1.98197 13.7294 1.91495C13.6754 1.84793 13.6059 1.79515 13.5268 1.76123C12.2859 1.22998 10.7431 1.52841 9.77682 2.48904C8.93901 3.3206 8.68838 4.61404 9.08932 6.04216C9.1066 6.10345 9.10652 6.16834 9.08909 6.22959C9.07165 6.29084 9.03754 6.34604 8.99057 6.38904L3.58744 11.4094C3.40844 11.5704 3.2641 11.7662 3.16322 11.9848C3.06233 12.2034 3.00701 12.4403 3.00062 12.681C2.99424 12.9217 3.03693 13.1611 3.12608 13.3848C3.21524 13.6085 3.34899 13.8116 3.51921 13.9819C3.68942 14.1522 3.89252 14.2861 4.11614 14.3754C4.33975 14.4646 4.5792 14.5074 4.8199 14.5012C5.06059 14.4949 5.29749 14.4397 5.51616 14.3389C5.73483 14.2381 5.9307 14.0939 6.09182 13.915L11.1571 8.50248C11.1995 8.45655 11.2537 8.42307 11.3137 8.40561C11.3737 8.38816 11.4373 8.3874 11.4978 8.40341C12.904 8.77841 14.1853 8.52841 15.0112 7.71591C15.4862 7.24716 15.8178 6.5856 15.9453 5.84998C16.0649 5.15623 15.9893 4.46123 15.7378 3.94373Z" fill="#4D4D4D"/>
<path d="M13.6665 11.8253C13.2309 11.4631 12.3003 10.6253 11.3519 9.75594L9.28716 11.9625C10.1697 12.9 10.9684 13.7703 11.3184 14.1775L11.3206 14.18C11.4047 14.2762 11.5075 14.3543 11.6229 14.4093C11.7382 14.4643 11.8635 14.4952 11.9912 14.5H12.0256C12.2711 14.4993 12.5066 14.4026 12.6819 14.2306L12.684 14.2284L13.7287 13.1856C13.8195 13.0951 13.8903 12.9866 13.9367 12.8671C13.9831 12.7476 14.004 12.6197 13.9981 12.4917C13.9923 12.3636 13.9597 12.2382 13.9025 12.1234C13.8454 12.0087 13.7649 11.9072 13.6662 11.8253H13.6665ZM3.70435 6.70469C3.70486 6.58608 3.6724 6.46967 3.6106 6.36844C3.60194 6.35475 3.59732 6.3389 3.59725 6.3227C3.59719 6.3065 3.60168 6.29061 3.61023 6.27685C3.61877 6.26309 3.63102 6.25201 3.64556 6.24489C3.66011 6.23776 3.67637 6.23488 3.69248 6.23656H3.69435C3.7206 6.23938 3.86091 6.25969 4.05998 6.38063C4.20779 6.47031 4.62966 6.75813 5.36404 7.49125C5.35622 7.74095 5.43604 7.9855 5.58966 8.1825L7.65935 6.25906C7.47604 6.08549 7.23652 5.98347 6.98435 5.97156C6.982 5.969 6.9798 5.96628 6.97779 5.96344L6.95748 5.94188L6.1906 4.88438C6.10535 4.76861 6.04944 4.6339 6.02767 4.49179C6.0059 4.34968 6.01891 4.20441 6.0656 4.06844C6.13594 3.86592 6.26389 3.68834 6.43373 3.5575C6.61154 3.41969 7.01279 3.25375 7.35373 3.22563C7.51254 3.2125 7.67243 3.22239 7.82841 3.255C7.90315 3.27303 7.9768 3.29526 8.04904 3.32156C8.07093 3.32974 8.09338 3.33632 8.11623 3.34125C8.21542 3.36323 8.31896 3.35446 8.41304 3.31612C8.50713 3.27778 8.58731 3.21169 8.6429 3.12665C8.69848 3.0416 8.72684 2.94164 8.7242 2.84008C8.72156 2.73851 8.68804 2.64016 8.6281 2.55813C8.61998 2.54719 8.58685 2.50219 8.53779 2.44156C8.44625 2.32611 8.34595 2.21787 8.23779 2.11781C7.9831 1.88781 7.3231 1.5 6.45654 1.5C5.96063 1.49964 5.46933 1.59514 5.00966 1.78125C3.8106 2.26406 3.02623 2.92438 2.6656 3.27469L2.66279 3.2775C2.42013 3.5171 2.19546 3.77426 1.9906 4.04688C1.91315 4.15609 1.86281 4.28217 1.84373 4.41469C1.83481 4.47107 1.80517 4.52209 1.7606 4.55776C1.71603 4.59342 1.65975 4.61116 1.60279 4.6075H1.56873C1.39837 4.60637 1.23447 4.67264 1.11279 4.79188L0.192476 5.68906L0.182476 5.69906C0.0667097 5.81934 0.00141778 5.97939 2.28193e-05 6.14632C-0.00137214 6.31325 0.0612358 6.47437 0.174976 6.59656C0.180914 6.60281 0.186539 6.60875 0.192789 6.61469L1.67716 8.0625C1.79946 8.18233 1.96376 8.24962 2.13498 8.25C2.30533 8.25114 2.46923 8.18486 2.59091 8.06563L3.51154 7.16594C3.57294 7.1059 3.62165 7.03412 3.65477 6.95489C3.68789 6.87565 3.70475 6.79057 3.70435 6.70469Z" fill="#4D4D4D"/>
</g>
<defs>
<clipPath id="clip0_1_11017">
<rect width="16" height="16" fill="white"/>
</clipPath>
</defs>
</svg>
