<svg width="24" height="24" viewBox="0 0 24 24" fill="none" xmlns="http://www.w3.org/2000/svg">
<g clip-path="url(#clip0_1_10475)">
<path d="M24 0H0V24H24V0Z" fill="#FFD700"/>
<path d="M18.7793 11.3287C20.684 11.1634 20.4896 8.23136 18.3226 8.50536C16.57 8.72703 16.7683 11.5034 18.7793 11.3287Z" fill="#010101"/>
<path d="M18.3226 8.50536C20.4896 8.23136 20.684 11.1634 18.7793 11.3287C16.7683 11.5034 16.57 8.72703 18.3226 8.50536Z" fill="#010101"/>
<path d="M3.96286 9.86932C4.3072 11.205 6.20486 11.367 6.76286 10.1027C7.00253 9.55932 6.95153 9.03066 6.53053 8.58499C5.5152 7.50999 3.58286 8.39466 3.96286 9.86932Z" fill="#010101"/>
<path d="M6.76286 10.1027C6.20486 11.367 4.3072 11.205 3.96286 9.86932C3.58286 8.39466 5.5152 7.50999 6.53053 8.58499C6.95153 9.03066 7.00286 9.55899 6.76286 10.1027Z" fill="#010101"/>
<path d="M4.94582 14.0969C6.11982 15.3592 7.23482 16.7142 8.97015 17.1726C9.95448 17.4326 10.4215 17.2002 11.3505 17.0672C12.3445 16.9249 13.3152 16.8746 14.3128 16.7962C15.9308 16.6692 17.2352 16.1779 18.5268 15.2102C18.6495 15.1186 18.9378 14.9092 19.0271 14.8106C19.2175 14.5992 19.0272 14.3192 18.7548 14.4046C18.1798 14.8569 17.5832 15.2786 16.9305 15.6139C16.1522 16.0136 15.3211 16.2162 14.4461 16.2962C13.3518 16.3962 12.2752 16.4376 11.1845 16.6012C10.5808 16.6919 10.1595 16.8729 9.51715 16.7926C7.74148 16.5702 6.46815 14.9822 5.31249 13.7639C5.15549 13.5982 4.55482 12.8382 4.40582 12.8039C4.34815 12.7906 4.27649 12.7869 4.21982 12.8039C4.04915 12.8549 4.05082 13.0556 4.12949 13.1806C4.27215 13.4076 4.73882 13.8749 4.94582 14.0972V14.0969Z" fill="#010101"/>
<path d="M18.2983 9.25613C19.0193 9.1098 19.2257 10.2505 18.4243 10.2505C17.7447 10.2505 17.722 9.37346 18.2983 9.25613Z" fill="#FBFCFC"/>
<path d="M5.08424 8.56701C5.79257 8.451 5.91624 9.44634 5.30191 9.55067C4.56857 9.67534 4.41557 8.67634 5.08424 8.56701Z" fill="#FBFCFC"/>
</g>
<defs>
<clipPath id="clip0_1_10475">
<rect width="24" height="24" fill="white"/>
</clipPath>
</defs>
</svg>
