<svg width="53" height="52" viewBox="0 0 53 52" fill="none" xmlns="http://www.w3.org/2000/svg">
<g clip-path="url(#clip0_1_9464)">
<path d="M52.3248 0.331543H0.711426V51.9449H52.3248V0.331543Z" fill="#FFD700"/>
<path d="M41.0966 24.6953C45.1927 24.3397 44.7748 18.0343 40.1145 18.6236C36.3453 19.1003 36.7718 25.0709 41.0966 24.6953Z" fill="#010101"/>
<path d="M40.1145 18.6236C44.7748 18.0343 45.1927 24.3397 41.0966 24.6953C36.7718 25.0709 36.3453 19.1003 40.1145 18.6236Z" fill="#010101"/>
<path d="M9.23435 21.5559C9.97485 24.4283 14.0559 24.7767 15.2559 22.0577C15.7713 20.8892 15.6616 19.7523 14.7563 18.7938C12.5727 16.482 8.41713 18.3845 9.23435 21.5559Z" fill="#010101"/>
<path d="M15.2559 22.0577C14.0559 24.7767 9.97485 24.4283 9.23435 21.5559C8.41713 18.3845 12.5727 16.482 14.7563 18.7938C15.6616 19.7523 15.772 20.8885 15.2559 22.0577Z" fill="#010101"/>
<path d="M11.347 30.6473C13.8717 33.362 16.2696 36.276 20.0015 37.2617C22.1184 37.8208 23.1227 37.3212 25.1206 37.0351C27.2582 36.729 29.3457 36.6208 31.4912 36.4523C34.9708 36.1792 37.7759 35.1226 40.5537 33.0415C40.8175 32.8444 41.4376 32.3942 41.6297 32.182C42.039 31.7276 41.6297 31.1254 41.044 31.3089C39.8074 32.2817 38.5243 33.1885 37.1207 33.9097C35.4468 34.7692 33.6597 35.205 31.778 35.3771C29.4246 35.5921 27.1091 35.681 24.7636 36.033C23.4654 36.228 22.5593 36.6172 21.1779 36.4444C17.3592 35.9663 14.6208 32.5512 12.1355 29.9311C11.7979 29.5749 10.5061 27.9404 10.1857 27.8666C10.0617 27.8379 9.90754 27.83 9.78568 27.8666C9.41865 27.9763 9.42223 28.4078 9.59141 28.6766C9.89822 29.1648 10.9018 30.1698 11.347 30.648V30.6473Z" fill="#010101"/>
<path d="M40.0612 20.2352C41.6117 19.9205 42.0554 22.3735 40.3321 22.3735C38.8705 22.3735 38.8217 20.4875 40.0612 20.2352Z" fill="#FBFCFC"/>
<path d="M11.6452 18.7536C13.1685 18.5041 13.4345 20.6446 12.1133 20.869C10.5362 21.1371 10.2072 18.9887 11.6452 18.7536Z" fill="#FBFCFC"/>
</g>
<defs>
<clipPath id="clip0_1_9464">
<rect width="51.6133" height="51.6133" fill="white" transform="translate(0.711426 0.331299)"/>
</clipPath>
</defs>
</svg>
