<svg width="28" height="28" viewBox="0 0 28 28" fill="none" xmlns="http://www.w3.org/2000/svg">
<g clip-path="url(#clip0_1_10388)">
<path d="M24.4759 0.435236L0.709473 3.77539L4.04963 27.5418L27.8161 24.2017L24.4759 0.435236Z" fill="#FFD700"/>
<path d="M20.8818 12.3804C22.7449 11.9516 22.1444 9.07522 20.0367 9.64814C18.3319 10.1116 18.9147 12.8333 20.8818 12.3804Z" fill="#010101"/>
<path d="M20.0367 9.64814C22.1444 9.07522 22.7449 11.9516 20.8818 12.3804C18.9147 12.8333 18.3319 10.1116 20.0367 9.64814Z" fill="#010101"/>
<path d="M6.00664 12.9973C6.53351 14.272 8.43526 14.1683 8.81187 12.8386C8.97358 12.2672 8.8495 11.7508 8.37058 11.3681C7.21551 10.4448 5.42511 11.5898 6.00664 12.9973Z" fill="#010101"/>
<path d="M8.81187 12.8386C8.43526 14.1683 6.53351 14.272 6.00664 12.9973C5.42511 11.5898 7.21551 10.4448 8.37058 11.3681C8.8495 11.7508 8.97387 12.2669 8.81187 12.8386Z" fill="#010101"/>
<path d="M7.56862 17.0469C8.90688 18.1336 10.1996 19.3202 11.9818 19.5326C12.9928 19.6531 13.4229 19.358 14.3243 19.097C15.2889 18.8177 16.2431 18.6328 17.2201 18.4164C18.8047 18.0654 20.028 17.3973 21.1724 16.2593C21.2811 16.1515 21.5375 15.9041 21.6122 15.7939C21.7713 15.5582 21.5439 15.3074 21.286 15.4298C20.7796 15.9577 20.2474 16.4583 19.6478 16.8812C18.9326 17.3853 18.1379 17.7017 17.2826 17.9027C16.2128 18.154 15.1524 18.3448 14.0951 18.6586C13.5099 18.8324 13.1179 19.0703 12.4706 19.0802C10.6813 19.1071 9.19935 17.7118 7.88537 16.6661C7.70685 16.5239 7.00625 15.8549 6.85392 15.8417C6.79496 15.8365 6.72348 15.8428 6.66974 15.8676C6.50783 15.9418 6.53741 16.1403 6.6327 16.2531C6.80557 16.4581 7.33274 16.8559 7.56867 17.0473L7.56862 17.0469Z" fill="#010101"/>
<path d="M20.1189 10.3948C20.8125 10.1495 21.1756 11.2504 20.3821 11.3619C19.709 11.4565 19.5645 10.5912 20.1189 10.3948Z" fill="#FBFCFC"/>
<path d="M6.93736 11.5516C7.62265 11.3381 7.88364 12.3066 7.2898 12.4954C6.58096 12.7209 6.29041 11.7529 6.93736 11.5516Z" fill="#FBFCFC"/>
</g>
<defs>
<clipPath id="clip0_1_10388">
<rect width="24" height="24" fill="white" transform="translate(0.709473 3.77539) rotate(-8)"/>
</clipPath>
</defs>
</svg>
