<svg width="53" height="53" viewBox="0 0 53 53" fill="none" xmlns="http://www.w3.org/2000/svg">
<g clip-path="url(#clip0_1_9408)">
<path d="M52.3248 0.87793H0.711426V52.4913H52.3248V0.87793Z" fill="#FFD700"/>
<path d="M41.0966 25.2419C45.1927 24.8864 44.7748 18.5809 40.1145 19.1702C36.3453 19.6469 36.7718 25.6176 41.0966 25.2419Z" fill="#010101"/>
<path d="M40.1145 19.1702C44.7748 18.5809 45.1927 24.8864 41.0966 25.2419C36.7718 25.6176 36.3453 19.6469 40.1145 19.1702Z" fill="#010101"/>
<path d="M9.23435 22.1025C9.97485 24.9749 14.0559 25.3233 15.2559 22.6043C15.7713 21.4358 15.6616 20.2989 14.7563 19.3405C12.5727 17.0286 8.41713 18.9311 9.23435 22.1025Z" fill="#010101"/>
<path d="M15.2559 22.6043C14.0559 25.3233 9.97485 24.9749 9.23435 22.1025C8.41713 18.9311 12.5727 17.0286 14.7563 19.3405C15.6616 20.2989 15.772 21.4351 15.2559 22.6043Z" fill="#010101"/>
<path d="M11.347 31.1939C13.8717 33.9086 16.2696 36.8226 20.0015 37.8083C22.1184 38.3674 23.1227 37.8678 25.1206 37.5818C27.2582 37.2757 29.3457 37.1674 31.4912 36.999C34.9708 36.7258 37.7759 35.6692 40.5537 33.5882C40.8175 33.391 41.4376 32.9409 41.6297 32.7287C42.039 32.2742 41.6297 31.672 41.044 31.8555C39.8074 32.8283 38.5243 33.7351 37.1207 34.4563C35.4468 35.3158 33.6597 35.7516 31.778 35.9237C29.4246 36.1387 27.1091 36.2276 24.7636 36.5796C23.4654 36.7746 22.5593 37.1638 21.1779 36.9911C17.3592 36.5129 14.6208 33.0979 12.1355 30.4778C11.7979 30.1215 10.5061 28.4871 10.1857 28.4132C10.0617 28.3845 9.90754 28.3767 9.78568 28.4132C9.41865 28.5229 9.42223 28.9544 9.59141 29.2233C9.89822 29.7114 10.9018 30.7165 11.347 31.1946V31.1939Z" fill="#010101"/>
<path d="M40.0612 20.7815C41.6117 20.4668 42.0554 22.9199 40.3321 22.9199C38.8705 22.9199 38.8217 21.0339 40.0612 20.7815Z" fill="#FBFCFC"/>
<path d="M11.6452 19.3002C13.1685 19.0508 13.4345 21.1913 12.1133 21.4156C10.5362 21.6838 10.2072 19.5353 11.6452 19.3002Z" fill="#FBFCFC"/>
</g>
<defs>
<clipPath id="clip0_1_9408">
<rect width="51.6133" height="51.6133" fill="white" transform="translate(0.711426 0.87793)"/>
</clipPath>
</defs>
</svg>
