<svg width="16" height="16" viewBox="0 0 16 16" fill="none" xmlns="http://www.w3.org/2000/svg">
<g clip-path="url(#clip0_1_11058)">
<path d="M16 0H0V16H16V0Z" fill="#FFD700"/>
<path d="M12.5182 7.55247C13.788 7.44224 13.6584 5.48758 12.2138 5.67024C11.0453 5.81802 11.1776 7.66891 12.5182 7.55247Z" fill="#010101"/>
<path d="M12.2138 5.67024C13.6584 5.48758 13.788 7.44224 12.5182 7.55247C11.1776 7.66891 11.0453 5.81802 12.2138 5.67024Z" fill="#010101"/>
<path d="M2.64191 6.57955C2.87147 7.46999 4.13658 7.57799 4.50858 6.73511C4.66835 6.37288 4.63435 6.02044 4.35369 5.72333C3.6768 5.00666 2.38858 5.59644 2.64191 6.57955Z" fill="#010101"/>
<path d="M4.50858 6.73511C4.13658 7.57799 2.87147 7.46999 2.64191 6.57955C2.38858 5.59644 3.6768 5.00666 4.35369 5.72333C4.63435 6.02044 4.66858 6.37266 4.50858 6.73511Z" fill="#010101"/>
<path d="M3.29721 9.39793C4.07988 10.2395 4.82321 11.1428 5.9801 11.4484C6.63632 11.6217 6.94766 11.4668 7.56699 11.3782C8.22966 11.2833 8.87677 11.2497 9.54188 11.1975C10.6205 11.1128 11.4901 10.7853 12.3512 10.1402C12.433 10.079 12.6252 9.93949 12.6848 9.87371C12.8117 9.73282 12.6848 9.54615 12.5032 9.60304C12.1199 9.9046 11.7221 10.1857 11.287 10.4093C10.7681 10.6757 10.2141 10.8108 9.63077 10.8642C8.90121 10.9308 8.18343 10.9584 7.45632 11.0675C7.05388 11.1279 6.77299 11.2486 6.34477 11.195C5.16099 11.0468 4.3121 9.98815 3.54166 9.17593C3.43699 9.06549 3.03655 8.55882 2.93721 8.53593C2.89877 8.52704 2.85099 8.5246 2.81321 8.53593C2.69943 8.56993 2.70055 8.70371 2.75299 8.78704C2.8481 8.93838 3.15921 9.24993 3.29721 9.39815V9.39793Z" fill="#010101"/>
<path d="M12.1989 6.17075C12.6795 6.0732 12.8171 6.83364 12.2829 6.83364C11.8298 6.83364 11.8147 6.24897 12.1989 6.17075Z" fill="#FBFCFC"/>
<path d="M3.38949 5.71134C3.86171 5.634 3.94416 6.29756 3.5346 6.36711C3.04571 6.45023 2.94371 5.78423 3.38949 5.71134Z" fill="#FBFCFC"/>
</g>
<defs>
<clipPath id="clip0_1_11058">
<rect width="16" height="16" fill="white"/>
</clipPath>
</defs>
</svg>
