<svg width="27" height="26" viewBox="0 0 27 26" fill="none" xmlns="http://www.w3.org/2000/svg">
<g clip-path="url(#clip0_1_10435)">
<path d="M24.36 0.05436L0.418457 1.72852L2.09261 25.6701L26.0342 23.9959L24.36 0.05436Z" fill="#FFD700"/>
<path d="M19.9427 11.7193C21.8312 11.4216 21.4328 8.51025 19.2902 8.93475C17.5573 9.27813 17.9488 12.0339 19.9427 11.7193Z" fill="#010101"/>
<path d="M19.2902 8.93475C21.4328 8.51025 21.8312 11.4216 19.9427 11.7193C17.9488 12.0339 17.5573 9.27813 19.2902 8.93475Z" fill="#010101"/>
<path d="M5.06061 11.2972C5.49728 12.6056 7.40162 12.6348 7.87007 11.3346C8.07125 10.7759 7.98349 10.2521 7.53243 9.83686C6.44458 8.83531 4.57867 9.85261 5.06061 11.2972Z" fill="#010101"/>
<path d="M7.87007 11.3346C7.40162 12.6348 5.49728 12.6056 5.06061 11.2972C4.57867 9.85261 6.44458 8.83531 7.53243 9.83686C7.98349 10.2521 8.07156 10.7755 7.87007 11.3346Z" fill="#010101"/>
<path d="M6.33597 15.4458C7.59516 16.6232 8.80197 17.8971 10.565 18.2332C11.5651 18.4239 12.0148 18.1596 12.9322 17.9621C13.9139 17.7508 14.8787 17.6329 15.8684 17.4851C17.4736 17.2456 18.7405 16.6645 19.9615 15.609C20.0775 15.509 20.3505 15.2801 20.4328 15.1755C20.6079 14.9514 20.3985 14.6853 20.1328 14.7894C19.5907 15.2808 19.0249 15.743 18.3973 16.1231C17.6487 16.5761 16.8339 16.8362 15.9666 16.9771C14.8819 17.1532 13.8107 17.2695 12.7341 17.5088C12.1383 17.6414 11.7306 17.8513 11.0842 17.816C9.29735 17.7181 7.91635 16.2228 6.67851 15.088C6.51034 14.9337 5.85812 14.2175 5.70709 14.1936C5.64863 14.1843 5.57688 14.1857 5.52154 14.2066C5.35485 14.2694 5.37051 14.4694 5.4577 14.5886C5.61585 14.8051 6.11398 15.2388 6.33599 15.4461L6.33597 15.4458Z" fill="#010101"/>
<path d="M19.3182 9.68553C20.0273 9.48926 20.3127 10.6128 19.5133 10.6687C18.8353 10.7161 18.7515 9.84278 19.3182 9.68553Z" fill="#FBFCFC"/>
<path d="M6.08825 9.92008C6.78677 9.75495 6.97956 10.7392 6.374 10.8862C5.65115 11.0617 5.42884 10.0758 6.08825 9.92008Z" fill="#FBFCFC"/>
</g>
<defs>
<clipPath id="clip0_1_10435">
<rect width="24" height="24" fill="white" transform="translate(0.418457 1.72852) rotate(-4)"/>
</clipPath>
</defs>
</svg>
