<svg width="53" height="52" viewBox="0 0 53 52" fill="none" xmlns="http://www.w3.org/2000/svg">
<g clip-path="url(#clip0_1_9436)">
<path d="M52.3248 0.104492H0.711426V51.7178H52.3248V0.104492Z" fill="#FFD700"/>
<path d="M41.0966 24.4685C45.1927 24.1129 44.7748 17.8075 40.1145 18.3967C36.3453 18.8735 36.7718 24.8441 41.0966 24.4685Z" fill="#010101"/>
<path d="M40.1145 18.3967C44.7748 17.8075 45.1927 24.1129 41.0966 24.4685C36.7718 24.8441 36.3453 18.8735 40.1145 18.3967Z" fill="#010101"/>
<path d="M9.23435 21.3291C9.97485 24.2015 14.0559 24.5499 15.2559 21.8309C15.7713 20.6624 15.6616 19.5255 14.7563 18.567C12.5727 16.2552 8.41713 18.1577 9.23435 21.3291Z" fill="#010101"/>
<path d="M15.2559 21.8309C14.0559 24.5499 9.97485 24.2015 9.23435 21.3291C8.41713 18.1577 12.5727 16.2552 14.7563 18.567C15.6616 19.5255 15.772 20.6617 15.2559 21.8309Z" fill="#010101"/>
<path d="M11.347 30.4205C13.8717 33.1352 16.2696 36.0492 20.0015 37.0348C22.1184 37.594 23.1227 37.0943 25.1206 36.8083C27.2582 36.5022 29.3457 36.394 31.4912 36.2255C34.9708 35.9524 37.7759 34.8958 40.5537 32.8147C40.8175 32.6176 41.4376 32.1674 41.6297 31.9552C42.039 31.5008 41.6297 30.8986 41.044 31.0821C39.8074 32.0549 38.5243 32.9617 37.1207 33.6828C35.4468 34.5424 33.6597 34.9782 31.778 35.1502C29.4246 35.3653 27.1091 35.4542 24.7636 35.8062C23.4654 36.0011 22.5593 36.3904 21.1779 36.2176C17.3592 35.7395 14.6208 32.3244 12.1355 29.7043C11.7979 29.348 10.5061 27.7136 10.1857 27.6398C10.0617 27.6111 9.90754 27.6032 9.78568 27.6398C9.41865 27.7495 9.42223 28.181 9.59141 28.4498C9.89822 28.938 10.9018 29.943 11.347 30.4212V30.4205Z" fill="#010101"/>
<path d="M40.0612 20.0081C41.6117 19.6934 42.0554 22.1465 40.3321 22.1465C38.8705 22.1465 38.8217 20.2604 40.0612 20.0081Z" fill="#FBFCFC"/>
<path d="M11.6452 18.5268C13.1685 18.2773 13.4345 20.4178 12.1133 20.6422C10.5362 20.9103 10.2072 18.7619 11.6452 18.5268Z" fill="#FBFCFC"/>
</g>
<defs>
<clipPath id="clip0_1_9436">
<rect width="51.6133" height="51.6133" fill="white" transform="translate(0.711426 0.104492)"/>
</clipPath>
</defs>
</svg>
