<svg width="16" height="16" viewBox="0 0 16 16" fill="none" xmlns="http://www.w3.org/2000/svg">
<path d="M8.00035 14C7.79963 13.9997 7.60363 13.9391 7.43785 13.8259C4.98191 12.1587 3.91847 11.0156 3.33191 10.3009C2.08191 8.7775 1.48347 7.21344 1.50035 5.51969C1.52003 3.57875 3.07722 2 4.9716 2C6.3491 2 7.30316 2.77594 7.85878 3.42219C7.87639 3.44245 7.89813 3.4587 7.92255 3.46984C7.94698 3.48098 7.97351 3.48674 8.00035 3.48674C8.02719 3.48674 8.05372 3.48098 8.07814 3.46984C8.10256 3.4587 8.12431 3.44245 8.14191 3.42219C8.69753 2.77531 9.6516 2 11.0291 2C12.9235 2 14.4807 3.57875 14.5003 5.52C14.5172 7.21406 13.9182 8.77813 12.6688 10.3013C12.0822 11.0159 11.0188 12.1591 8.56285 13.8263C8.39703 13.9393 8.20103 13.9998 8.00035 14Z" fill="#F3655B"/>
</svg>
