<svg width="32" height="32" viewBox="0 0 32 32" fill="none" xmlns="http://www.w3.org/2000/svg">
<g clip-path="url(#clip0_1_11910)">
<path d="M32 0H0V32H32V0Z" fill="#FFD800"/>
<path d="M3.64629 17.9066C5.70198 20.1169 7.65435 22.4896 10.6929 23.2921C12.4165 23.7474 13.2342 23.3406 14.8609 23.1077C16.6014 22.8584 18.3011 22.7703 20.048 22.6331C22.8811 22.4108 25.165 21.5504 27.4267 19.856C27.6415 19.6955 28.1464 19.329 28.3028 19.1562C28.6361 18.7862 28.3028 18.2959 27.826 18.4453C26.8191 19.2374 25.7744 19.9757 24.6315 20.5629C23.2687 21.2627 21.8136 21.6176 20.2815 21.7576C18.3653 21.9327 16.48 22.0051 14.5703 22.2917C13.5132 22.4505 12.7755 22.7674 11.6507 22.6267C8.54153 22.2374 6.31191 19.4568 4.28833 17.3235C4.01342 17.0334 2.96165 15.7027 2.70075 15.6425C2.59977 15.6192 2.47428 15.6128 2.37506 15.6425C2.07622 15.7318 2.07914 16.0832 2.21689 16.3021C2.4667 16.6996 3.28383 17.5179 3.64629 17.9072V17.9066Z" fill="black"/>
<path d="M27.0687 8.11674C30.8632 7.63696 31.2034 12.7709 27.8684 13.0604C24.3471 13.3663 23.9998 8.50488 27.0687 8.11674Z" fill="black"/>
<path d="M1.92627 10.5039C2.5292 12.8427 5.85203 13.1263 6.8291 10.9125C7.24876 9.9611 7.15945 9.0354 6.42228 8.25503C4.64442 6.3727 1.26089 7.92175 1.92627 10.5039Z" fill="black"/>
<path d="M27.0269 9.4288C28.2894 9.17257 28.6506 11.1699 27.2475 11.1699C26.0574 11.1699 26.0177 9.63425 27.0269 9.4288Z" fill="#FBFBFB"/>
<path d="M3.8915 8.22295C5.1318 8.01983 5.34834 9.76267 4.27264 9.94536C2.98856 10.1637 2.72066 8.41439 3.8915 8.22295Z" fill="#FBFBFB"/>
</g>
<defs>
<clipPath id="clip0_1_11910">
<rect width="32" height="32" fill="white"/>
</clipPath>
</defs>
</svg>
