<svg width="16" height="16" viewBox="0 0 16 16" fill="none" xmlns="http://www.w3.org/2000/svg">
<path d="M2.06532 11.1562C1.9688 11.1563 1.87434 11.1284 1.79332 11.076C1.71231 11.0235 1.64821 10.9487 1.60876 10.8606C1.1314 9.79452 0.928425 8.62591 1.01832 7.46128C1.10822 6.29666 1.48813 5.17304 2.12343 4.19282C2.75874 3.2126 3.62924 2.40695 4.65561 1.84928C5.68199 1.2916 6.8316 0.999644 7.99969 1C8.1323 1 8.25948 1.05268 8.35325 1.14645C8.44702 1.24022 8.49969 1.36739 8.49969 1.5V8C8.49971 8.09655 8.47178 8.19104 8.41926 8.27206C8.36675 8.35308 8.2919 8.41716 8.20376 8.45656L2.26938 11.1112C2.20531 11.1405 2.13576 11.1559 2.06532 11.1562Z" fill="black"/>
<path d="M9.80065 2.13072C9.7644 2.12337 9.72696 2.12415 9.69105 2.13302C9.65514 2.14188 9.62164 2.15861 9.59297 2.18198C9.5643 2.20536 9.54118 2.23481 9.52527 2.2682C9.50936 2.3016 9.50106 2.3381 9.50096 2.3751V8.0001C9.50071 8.2896 9.41682 8.57286 9.25937 8.8158C9.10191 9.05874 8.87762 9.25101 8.61346 9.36947L3.22377 11.7813C3.19037 11.7963 3.16064 11.8183 3.13669 11.846C3.11274 11.8736 3.09516 11.9062 3.08517 11.9414C3.07519 11.9766 3.07305 12.0136 3.07891 12.0497C3.08477 12.0858 3.09849 12.1202 3.11909 12.1504C3.53156 12.757 4.04356 13.2896 4.63346 13.7257C5.75112 14.5571 7.10798 15.0042 8.50096 15.0001C12.085 15.0001 15.001 12.0842 15.001 8.5001C15.001 5.36103 12.7641 2.73447 9.80065 2.13072Z" fill="black"/>
</svg>
