<svg width="74" height="75" viewBox="0 0 74 75" fill="none" xmlns="http://www.w3.org/2000/svg">
<rect x="0.0703125" y="0.918396" width="73.1944" height="73.1944" rx="36.5972" fill="white"/>
<path d="M36.6679 7.78036C20.272 7.78036 6.93262 21.1198 6.93262 37.5156C6.93262 53.9114 20.272 67.2509 36.6679 67.2509C53.0637 67.2509 66.4031 53.9114 66.4031 37.5156C66.4031 21.1198 53.0637 7.78036 36.6679 7.78036ZM47.3568 38.8451L30.9953 48.7292C30.7608 48.8697 30.4931 48.9453 30.2197 48.9482C29.9464 48.9511 29.6771 48.8813 29.4397 48.7458C29.2022 48.6104 29.005 48.4142 28.8684 48.1774C28.7318 47.9406 28.6606 47.6717 28.6622 47.3983V27.6329C28.6606 27.3595 28.7318 27.0907 28.8684 26.8539C29.005 26.6171 29.2022 26.4209 29.4397 26.2854C29.6771 26.1499 29.9464 26.0801 30.2197 26.083C30.4931 26.0859 30.7608 26.1615 30.9953 26.302L47.3568 36.1861C47.5849 36.325 47.7734 36.5203 47.9042 36.7532C48.035 36.986 48.1037 37.2486 48.1037 37.5156C48.1037 37.7827 48.035 38.0452 47.9042 38.2781C47.7734 38.5109 47.5849 38.7062 47.3568 38.8451Z" fill="#FFBF66"/>
</svg>
