<svg width="48" height="49" viewBox="0 0 48 49" fill="none" xmlns="http://www.w3.org/2000/svg">
<g clip-path="url(#clip0_1_10713)">
<path d="M48 0.199951H0V48.2H48V0.199951Z" fill="#A97DF5"/>
<path d="M5.4699 27.0599C8.55342 30.3754 11.482 33.9343 16.0399 35.1381C18.6252 35.821 19.8518 35.2108 22.2918 34.8615C24.9026 34.4876 27.4521 34.3554 30.0724 34.1497C34.3221 33.8161 37.748 32.5256 41.1406 29.984C41.4628 29.7433 42.2201 29.1935 42.4547 28.9343C42.9546 28.3792 42.4547 27.6438 41.7394 27.8679C40.2292 29.056 38.662 30.1635 36.9478 31.0443C34.9035 32.094 32.7208 32.6263 30.4226 32.8364C27.5484 33.0991 24.7205 33.2076 21.8558 33.6375C20.2703 33.8757 19.1637 34.3511 17.4766 34.1401C12.8128 33.5561 9.46833 29.3852 6.43295 26.1852C6.02059 25.7501 4.44293 23.754 4.05158 23.6638C3.90012 23.6288 3.71188 23.6191 3.56305 23.6638C3.11479 23.7977 3.11917 24.3248 3.32579 24.6531C3.7005 25.2493 4.92621 26.4768 5.4699 27.0607V27.0599Z" fill="black"/>
<path d="M40.6038 12.3751C46.2955 11.6554 46.8059 19.3563 41.8032 19.7906C36.5213 20.2494 36.0004 12.9573 40.6038 12.3751Z" fill="black"/>
<path d="M2.88886 15.9558C3.79326 19.4639 8.7775 19.8894 10.2431 16.5686C10.8726 15.1416 10.7386 13.753 9.63287 12.5825C6.96608 9.75896 1.89079 12.0826 2.88886 15.9558Z" fill="black"/>
<path d="M40.5408 14.3431C42.4345 13.9588 42.9765 16.9548 40.8717 16.9548C39.0866 16.9548 39.027 14.6513 40.5408 14.3431Z" fill="#FBFBFB"/>
<path d="M5.8367 12.5344C7.69715 12.2297 8.02196 14.844 6.40841 15.118C4.4823 15.4455 4.08044 12.8216 5.8367 12.5344Z" fill="#FBFBFB"/>
</g>
<defs>
<clipPath id="clip0_1_10713">
<rect width="48" height="48" fill="white" transform="translate(0 0.199951)"/>
</clipPath>
</defs>
</svg>
