<svg width="48" height="49" viewBox="0 0 48 49" fill="none" xmlns="http://www.w3.org/2000/svg">
<g clip-path="url(#clip0_1_10689)">
<path d="M48 0.800049H0V48.8001H48V0.800049Z" fill="#FFBF66"/>
<path d="M5.4699 27.66C8.55342 30.9755 11.482 34.5344 16.0399 35.7382C18.6252 36.4211 19.8518 35.8109 22.2918 35.4616C24.9026 35.0877 27.4521 34.9555 30.0724 34.7498C34.3221 34.4162 37.748 33.1257 41.1406 30.5841C41.4628 30.3434 42.2201 29.7936 42.4547 29.5344C42.9546 28.9793 42.4547 28.2439 41.7394 28.468C40.2292 29.6561 38.662 30.7636 36.9478 31.6444C34.9035 32.6941 32.7208 33.2264 30.4226 33.4365C27.5484 33.6992 24.7205 33.8077 21.8558 34.2376C20.2703 34.4758 19.1637 34.9512 17.4766 34.7402C12.8128 34.1562 9.46833 29.9853 6.43295 26.7853C6.02059 26.3502 4.44293 24.354 4.05158 24.2639C3.90012 24.2289 3.71188 24.2192 3.56305 24.2639C3.11479 24.3978 3.11917 24.9249 3.32579 25.2532C3.7005 25.8494 4.92621 27.0769 5.4699 27.6608V27.66Z" fill="black"/>
<path d="M40.6038 12.9752C46.2955 12.2555 46.8059 19.9564 41.8032 20.3907C36.5213 20.8495 36.0004 13.5574 40.6038 12.9752Z" fill="black"/>
<path d="M2.88886 16.5559C3.79326 20.064 8.7775 20.4895 10.2431 17.1687C10.8726 15.7417 10.7386 14.3531 9.63287 13.1826C6.96608 10.3591 1.89079 12.6826 2.88886 16.5559Z" fill="black"/>
<path d="M40.5408 14.9432C42.4345 14.5589 42.9765 17.5549 40.8717 17.5549C39.0866 17.5549 39.027 15.2514 40.5408 14.9432Z" fill="#FBFBFB"/>
<path d="M5.8367 13.1345C7.69715 12.8298 8.02196 15.4441 6.40841 15.7181C4.4823 16.0456 4.08044 13.4217 5.8367 13.1345Z" fill="#FBFBFB"/>
</g>
<defs>
<clipPath id="clip0_1_10689">
<rect width="48" height="48" fill="white" transform="translate(0 0.800049)"/>
</clipPath>
</defs>
</svg>
