<svg width="48" height="49" viewBox="0 0 48 49" fill="none" xmlns="http://www.w3.org/2000/svg">
<g clip-path="url(#clip0_1_10695)">
<path d="M48 0.400146H0V48.4002H48V0.400146Z" fill="#F3655B"/>
<path d="M5.4699 27.2601C8.55342 30.5756 11.482 34.1345 16.0399 35.3383C18.6252 36.0212 19.8518 35.411 22.2918 35.0617C24.9026 34.6878 27.4521 34.5556 30.0724 34.3499C34.3221 34.0163 37.748 32.7258 41.1406 30.1842C41.4628 29.9435 42.2201 29.3937 42.4547 29.1345C42.9546 28.5794 42.4547 27.844 41.7394 28.0681C40.2292 29.2562 38.662 30.3637 36.9478 31.2445C34.9035 32.2942 32.7208 32.8265 30.4226 33.0366C27.5484 33.2993 24.7205 33.4078 21.8558 33.8377C20.2703 34.0759 19.1637 34.5513 17.4766 34.3403C12.8128 33.7563 9.46833 29.5854 6.43295 26.3854C6.02059 25.9503 4.44293 23.9541 4.05158 23.864C3.90012 23.8289 3.71188 23.8193 3.56305 23.864C3.11479 23.9979 3.11917 24.525 3.32579 24.8533C3.7005 25.4495 4.92621 26.677 5.4699 27.2609V27.2601Z" fill="black"/>
<path d="M40.6038 12.5753C46.2955 11.8556 46.8059 19.5565 41.8032 19.9908C36.5213 20.4496 36.0004 13.1575 40.6038 12.5753Z" fill="black"/>
<path d="M2.88886 16.156C3.79326 19.6641 8.7775 20.0896 10.2431 16.7688C10.8726 15.3418 10.7386 13.9532 9.63287 12.7827C6.96608 9.95916 1.89079 12.2827 2.88886 16.156Z" fill="black"/>
<path d="M40.5408 14.5433C42.4345 14.159 42.9765 17.155 40.8717 17.155C39.0866 17.155 39.027 14.8515 40.5408 14.5433Z" fill="#FBFBFB"/>
<path d="M5.8367 12.7346C7.69715 12.4299 8.02196 15.0442 6.40841 15.3182C4.4823 15.6457 4.08044 13.0218 5.8367 12.7346Z" fill="#FBFBFB"/>
</g>
<defs>
<clipPath id="clip0_1_10695">
<rect width="48" height="48" fill="white" transform="translate(0 0.400146)"/>
</clipPath>
</defs>
</svg>
