<svg width="48" height="49" viewBox="0 0 48 49" fill="none" xmlns="http://www.w3.org/2000/svg">
<g clip-path="url(#clip0_1_10707)">
<path d="M48 0.600098H0V48.6001H48V0.600098Z" fill="#49C17A"/>
<path d="M5.4699 27.46C8.55342 30.7755 11.482 34.3345 16.0399 35.5383C18.6252 36.2212 19.8518 35.611 22.2918 35.2616C24.9026 34.8878 27.4521 34.7556 30.0724 34.5498C34.3221 34.2163 37.748 32.9258 41.1406 30.3842C41.4628 30.1434 42.2201 29.5936 42.4547 29.3345C42.9546 28.7794 42.4547 28.044 41.7394 28.2681C40.2292 29.4562 38.662 30.5637 36.9478 31.4444C34.9035 32.4942 32.7208 33.0265 30.4226 33.2366C27.5484 33.4992 24.7205 33.6078 21.8558 34.0377C20.2703 34.2758 19.1637 34.7512 17.4766 34.5402C12.8128 33.9562 9.46833 29.7853 6.43295 26.5854C6.02059 26.1502 4.44293 24.1541 4.05158 24.0639C3.90012 24.0289 3.71188 24.0193 3.56305 24.0639C3.11479 24.1979 3.11917 24.7249 3.32579 25.0532C3.7005 25.6495 4.92621 26.8769 5.4699 27.4609V27.46Z" fill="black"/>
<path d="M40.6038 12.7752C46.2955 12.0556 46.8059 19.7565 41.8032 20.1907C36.5213 20.6495 36.0004 13.3574 40.6038 12.7752Z" fill="black"/>
<path d="M2.88886 16.3559C3.79326 19.8641 8.7775 20.2896 10.2431 16.9688C10.8726 15.5417 10.7386 14.1532 9.63287 12.9826C6.96608 10.1591 1.89079 12.4827 2.88886 16.3559Z" fill="black"/>
<path d="M40.5408 14.7433C42.4345 14.3589 42.9765 17.3549 40.8717 17.3549C39.0866 17.3549 39.027 15.0515 40.5408 14.7433Z" fill="#FBFBFB"/>
<path d="M5.8367 12.9346C7.69715 12.6299 8.02196 15.2442 6.40841 15.5182C4.4823 15.8456 4.08044 13.2217 5.8367 12.9346Z" fill="#FBFBFB"/>
</g>
<defs>
<clipPath id="clip0_1_10707">
<rect width="48" height="48" fill="white" transform="translate(0 0.600098)"/>
</clipPath>
</defs>
</svg>
