<svg width="48" height="48" viewBox="0 0 48 48" fill="none" xmlns="http://www.w3.org/2000/svg">
<g clip-path="url(#clip0_1_10701)">
<path d="M48 0H0V48H48V0Z" fill="#5CCEE5"/>
<path d="M5.4699 26.8599C8.55342 30.1754 11.482 33.7344 16.0399 34.9382C18.6252 35.6211 19.8518 35.0109 22.2918 34.6615C24.9026 34.2877 27.4521 34.1555 30.0724 33.9497C34.3221 33.6162 37.748 32.3257 41.1406 29.7841C41.4628 29.5433 42.2201 28.9935 42.4547 28.7344C42.9546 28.1793 42.4547 27.4439 41.7394 27.668C40.2292 28.8561 38.662 29.9636 36.9478 30.8443C34.9035 31.8941 32.7208 32.4264 30.4226 32.6365C27.5484 32.8991 24.7205 33.0077 21.8558 33.4376C20.2703 33.6757 19.1637 34.1511 17.4766 33.9401C12.8128 33.3561 9.46833 29.1852 6.43295 25.9853C6.02059 25.5502 4.44293 23.554 4.05158 23.4638C3.90012 23.4288 3.71188 23.4192 3.56305 23.4638C3.11479 23.5978 3.11917 24.1248 3.32579 24.4531C3.7005 25.0494 4.92621 26.2768 5.4699 26.8608V26.8599Z" fill="black"/>
<path d="M40.6038 12.1751C46.2955 11.4555 46.8059 19.1564 41.8032 19.5906C36.5213 20.0494 36.0004 12.7573 40.6038 12.1751Z" fill="black"/>
<path d="M2.88886 15.7558C3.79326 19.264 8.7775 19.6895 10.2431 16.3687C10.8726 14.9416 10.7386 13.5531 9.63287 12.3825C6.96608 9.55901 1.89079 11.8826 2.88886 15.7558Z" fill="black"/>
<path d="M40.5408 14.1432C42.4345 13.7588 42.9765 16.7548 40.8717 16.7548C39.0866 16.7548 39.027 14.4514 40.5408 14.1432Z" fill="#FBFBFB"/>
<path d="M5.8367 12.3345C7.69715 12.0298 8.02196 14.6441 6.40841 14.9181C4.4823 15.2455 4.08044 12.6216 5.8367 12.3345Z" fill="#FBFBFB"/>
</g>
<defs>
<clipPath id="clip0_1_10701">
<rect width="48" height="48" fill="white"/>
</clipPath>
</defs>
</svg>
