<svg width="444" height="364" viewBox="0 0 444 364" fill="none" xmlns="http://www.w3.org/2000/svg">
<rect x="0.5" y="0.5" width="443" height="363" rx="23.5" fill="white"/>
<rect x="0.5" y="0.5" width="443" height="363" rx="23.5" stroke="#E1D1FA"/>
<rect x="40" y="40" width="32" height="32" rx="16" fill="#212606"/>
<path d="M51.0663 50.0101C50.7563 50.3679 50.795 50.9092 51.1527 51.2193L55.4385 54.9335C55.7606 55.2128 56.239 55.2128 56.5612 54.9335L60.8469 51.2193C61.2046 50.9092 61.2433 50.3679 60.9333 50.0101C60.6232 49.6524 60.0819 49.6138 59.7242 49.9238L55.9998 53.1515L52.2755 49.9238C51.9177 49.6138 51.3764 49.6524 51.0663 50.0101ZM51.0663 61.99C50.7563 61.6323 50.795 61.0909 51.1527 60.7809L55.4385 57.0666C55.7606 56.7874 56.239 56.7874 56.5612 57.0666L60.8469 60.7809C61.2046 61.0909 61.2433 61.6323 60.9333 61.99C60.6232 62.3478 60.0819 62.3864 59.7242 62.0764L55.9998 58.8486L52.2755 62.0764C51.9177 62.3864 51.3764 62.3477 51.0663 61.99Z" fill="#73D34D"/>
<path d="M81.598 63V48.4545H83.7926V61.1108H90.3835V63H81.598ZM95.8913 63.2415C95.2 63.2415 94.575 63.1136 94.0163 62.858C93.4576 62.5975 93.0149 62.2211 92.6882 61.7287C92.3662 61.2363 92.2053 60.6326 92.2053 59.9176C92.2053 59.3021 92.3236 58.7955 92.5604 58.3977C92.7971 58 93.1167 57.6851 93.5192 57.4531C93.9216 57.2211 94.3714 57.0459 94.8686 56.9276C95.3658 56.8092 95.8724 56.7192 96.3885 56.6577C97.0419 56.5819 97.5722 56.5204 97.9794 56.473C98.3866 56.4209 98.6825 56.3381 98.8672 56.2244C99.0518 56.1108 99.1442 55.9261 99.1442 55.6705V55.6207C99.1442 55.0005 98.969 54.5199 98.6186 54.179C98.273 53.8381 97.7569 53.6676 97.0703 53.6676C96.3554 53.6676 95.7919 53.8262 95.38 54.1435C94.9728 54.456 94.6911 54.804 94.5348 55.1875L92.5391 54.733C92.7758 54.0701 93.1214 53.535 93.576 53.1278C94.0353 52.7159 94.5632 52.4176 95.1598 52.233C95.7564 52.0436 96.3838 51.9489 97.0419 51.9489C97.4775 51.9489 97.9392 52.0009 98.4268 52.1051C98.9193 52.2045 99.3786 52.3892 99.8047 52.6591C100.236 52.929 100.588 53.3149 100.863 53.8168C101.138 54.3139 101.275 54.9602 101.275 55.7557V63H99.201V61.5085H99.1158C98.9785 61.7831 98.7725 62.053 98.4979 62.3182C98.2232 62.5833 97.8705 62.8035 97.4396 62.9787C97.0088 63.1539 96.4927 63.2415 95.8913 63.2415ZM96.353 61.5369C96.9401 61.5369 97.442 61.4209 97.8587 61.1889C98.2801 60.9569 98.5997 60.6539 98.8175 60.2798C99.04 59.901 99.1513 59.4962 99.1513 59.0653V57.6591C99.0755 57.7348 98.9287 57.8059 98.7109 57.8722C98.4979 57.9337 98.254 57.9882 97.9794 58.0355C97.7048 58.0781 97.4373 58.1184 97.1768 58.1562C96.9164 58.1894 96.6986 58.2178 96.5234 58.2415C96.1115 58.2936 95.7351 58.3812 95.3942 58.5043C95.058 58.6274 94.7881 58.8049 94.5845 59.0369C94.3857 59.2642 94.2862 59.5672 94.2862 59.946C94.2862 60.4716 94.4804 60.8693 94.8686 61.1392C95.2569 61.4044 95.7517 61.5369 96.353 61.5369ZM106.227 56.5227V63H104.103V52.0909H106.142V53.8665H106.277C106.528 53.2888 106.921 52.8248 107.456 52.4744C107.995 52.1241 108.675 51.9489 109.494 51.9489C110.237 51.9489 110.888 52.1051 111.447 52.4176C112.006 52.7254 112.439 53.1847 112.747 53.7955C113.055 54.4062 113.208 55.1615 113.208 56.0611V63H111.085V56.3168C111.085 55.526 110.879 54.9081 110.467 54.4631C110.055 54.0133 109.489 53.7884 108.77 53.7884C108.277 53.7884 107.839 53.8949 107.456 54.108C107.077 54.321 106.776 54.6335 106.554 55.0455C106.336 55.4527 106.227 55.9451 106.227 56.5227ZM120.758 63.2202C119.683 63.2202 118.758 62.9905 117.981 62.5312C117.209 62.0672 116.613 61.4162 116.191 60.5781C115.775 59.7353 115.566 58.7481 115.566 57.6165C115.566 56.4991 115.775 55.5142 116.191 54.6619C116.613 53.8097 117.2 53.1444 117.953 52.6662C118.71 52.188 119.596 51.9489 120.609 51.9489C121.225 51.9489 121.821 52.0507 122.399 52.2543C122.976 52.4579 123.495 52.7775 123.954 53.2131C124.413 53.6487 124.776 54.2145 125.041 54.9105C125.306 55.6018 125.439 56.4422 125.439 57.4318V58.1847H116.767V56.5938H123.358C123.358 56.035 123.244 55.5402 123.017 55.1094C122.789 54.6738 122.47 54.3305 122.058 54.0795C121.651 53.8286 121.172 53.7031 120.623 53.7031C120.027 53.7031 119.506 53.8499 119.061 54.1435C118.62 54.4323 118.279 54.8111 118.038 55.2798C117.801 55.7438 117.683 56.2481 117.683 56.7926V58.0355C117.683 58.7647 117.811 59.3849 118.066 59.8963C118.327 60.4077 118.689 60.7983 119.153 61.0682C119.617 61.3333 120.159 61.4659 120.779 61.4659C121.182 61.4659 121.549 61.4091 121.88 61.2955C122.212 61.1771 122.498 61.0019 122.74 60.7699C122.981 60.5379 123.166 60.2514 123.294 59.9105L125.304 60.2727C125.143 60.8646 124.854 61.383 124.437 61.8281C124.025 62.2685 123.507 62.6117 122.882 62.858C122.261 63.0994 121.554 63.2202 120.758 63.2202ZM134.487 63H132.157L137.392 48.4545H139.927L145.162 63H142.832L138.72 51.0966H138.606L134.487 63ZM134.877 57.304H142.434V59.1506H134.877V57.304ZM149.457 48.4545V63H147.262V48.4545H149.457Z" fill="black"/>
<path d="M43.0824 95L40.2983 84.8182H41.5511L43.679 93.1108H43.7784L45.946 84.8182H47.3381L49.5057 93.1108H49.6051L51.733 84.8182H52.9858L50.2017 95H48.929L46.6818 86.8864H46.6023L44.3551 95H43.0824ZM55.5362 90.4062V95H54.3629V84.8182H55.5362V88.5568H55.6357C55.8146 88.1624 56.0831 87.8492 56.4411 87.6172C56.8023 87.3819 57.2829 87.2642 57.8828 87.2642C58.4032 87.2642 58.8589 87.3686 59.25 87.5774C59.6411 87.7829 59.9444 88.0994 60.1598 88.527C60.3786 88.9512 60.4879 89.4915 60.4879 90.1477V95H59.3146V90.2273C59.3146 89.6207 59.1572 89.1518 58.8423 88.8203C58.5308 88.4856 58.0982 88.3182 57.5447 88.3182C57.1603 88.3182 56.8156 88.3994 56.5107 88.5618C56.209 88.7242 55.9704 88.9612 55.7947 89.2727C55.6224 89.5843 55.5362 89.9621 55.5362 90.4062ZM64.8816 95.179C64.3977 95.179 63.9585 95.0878 63.5641 94.9055C63.1697 94.7199 62.8565 94.4531 62.6245 94.1051C62.3925 93.7538 62.2765 93.3295 62.2765 92.8324C62.2765 92.3949 62.3626 92.0402 62.535 91.7685C62.7073 91.4934 62.9377 91.2779 63.226 91.1222C63.5144 90.9664 63.8326 90.8504 64.1806 90.7741C64.5319 90.6946 64.8849 90.6316 65.2395 90.5852C65.7035 90.5256 66.0797 90.4808 66.3681 90.451C66.6597 90.4179 66.8719 90.3632 67.0044 90.2869C67.1403 90.2107 67.2083 90.0781 67.2083 89.8892V89.8494C67.2083 89.3589 67.074 88.9777 66.8056 88.706C66.5404 88.4342 66.1377 88.2983 65.5975 88.2983C65.0373 88.2983 64.5982 88.4209 64.28 88.6662C63.9618 88.9115 63.7381 89.1733 63.6088 89.4517L62.4952 89.054C62.6941 88.59 62.9592 88.2287 63.2907 87.9702C63.6254 87.7083 63.99 87.526 64.3844 87.4233C64.7821 87.3172 65.1732 87.2642 65.5577 87.2642C65.803 87.2642 66.0847 87.294 66.4029 87.3537C66.7244 87.41 67.0343 87.5277 67.3326 87.7067C67.6342 87.8857 67.8844 88.1558 68.0833 88.517C68.2821 88.8783 68.3816 89.3622 68.3816 89.9688V95H67.2083V93.9659H67.1486C67.0691 94.1316 66.9365 94.3089 66.7509 94.4979C66.5653 94.6868 66.3184 94.8475 66.0101 94.9801C65.7019 95.1127 65.3257 95.179 64.8816 95.179ZM65.0605 94.125C65.5246 94.125 65.9157 94.0339 66.2338 93.8516C66.5553 93.6693 66.7973 93.4339 66.9597 93.1456C67.1254 92.8572 67.2083 92.554 67.2083 92.2358V91.1619C67.1586 91.2216 67.0492 91.2763 66.8801 91.326C66.7144 91.3724 66.5222 91.4138 66.3034 91.4503C66.088 91.4834 65.8775 91.5133 65.6721 91.5398C65.4699 91.563 65.3058 91.5829 65.1799 91.5994C64.8749 91.6392 64.5899 91.7038 64.3248 91.7933C64.0629 91.8795 63.8508 92.0104 63.6884 92.1861C63.5293 92.3584 63.4498 92.5937 63.4498 92.892C63.4498 93.2997 63.6006 93.608 63.9022 93.8168C64.2071 94.0223 64.5932 94.125 65.0605 94.125ZM73.8441 87.3636V88.358H69.8867V87.3636H73.8441ZM71.0401 85.5341H72.2134V92.8125C72.2134 93.1439 72.2615 93.3925 72.3576 93.5582C72.457 93.7206 72.583 93.83 72.7354 93.8864C72.8912 93.9394 73.0553 93.9659 73.2276 93.9659C73.3569 93.9659 73.463 93.9593 73.5458 93.946C73.6287 93.9295 73.695 93.9162 73.7447 93.9062L73.9833 94.9602C73.9038 94.9901 73.7927 95.0199 73.6502 95.0497C73.5077 95.0829 73.3271 95.0994 73.1083 95.0994C72.7769 95.0994 72.4521 95.0282 72.1339 94.8857C71.819 94.7431 71.5572 94.526 71.3484 94.2344C71.1429 93.9427 71.0401 93.5748 71.0401 93.1307V85.5341ZM77.0396 84.8182V85.7131C77.0396 85.9848 76.9899 86.2749 76.8904 86.5831C76.7943 86.888 76.6518 87.1847 76.4629 87.473C76.2773 87.758 76.0519 88.0066 75.7868 88.2188L75.1504 87.7017C75.3592 87.4034 75.5398 87.0935 75.6923 86.772C75.8481 86.4472 75.926 86.1009 75.926 85.733V84.8182H77.0396ZM82.9185 89.0739L81.8645 89.3722C81.7982 89.1965 81.7005 89.0258 81.5712 88.8601C81.4453 88.6911 81.2729 88.5518 81.0542 88.4425C80.8354 88.3331 80.5553 88.2784 80.214 88.2784C79.7466 88.2784 79.3572 88.3861 79.0456 88.6016C78.7374 88.8137 78.5833 89.0838 78.5833 89.4119C78.5833 89.7036 78.6893 89.9339 78.9015 90.103C79.1136 90.272 79.445 90.4129 79.8958 90.5256L81.0293 90.804C81.7121 90.9697 82.2208 91.2232 82.5556 91.5646C82.8903 91.9027 83.0577 92.3385 83.0577 92.8722C83.0577 93.3097 82.9318 93.7008 82.6799 94.0455C82.4313 94.3902 82.0833 94.6619 81.6358 94.8608C81.1884 95.0597 80.668 95.1591 80.0748 95.1591C79.2959 95.1591 78.6512 94.9901 78.1408 94.652C77.6304 94.3139 77.3072 93.8201 77.1713 93.1705L78.285 92.892C78.391 93.303 78.5916 93.6113 78.8865 93.8168C79.1848 94.0223 79.5743 94.125 80.0549 94.125C80.6017 94.125 81.0359 94.009 81.3574 93.777C81.6822 93.5417 81.8446 93.2599 81.8446 92.9318C81.8446 92.6667 81.7518 92.4446 81.5662 92.2656C81.3806 92.0833 81.0956 91.9474 80.7111 91.858L79.4384 91.5597C78.7391 91.3939 78.2253 91.1371 77.8972 90.7891C77.5724 90.4377 77.41 89.9986 77.41 89.4716C77.41 89.0407 77.531 88.6596 77.7729 88.3281C78.0182 87.9967 78.3513 87.7365 78.7722 87.5476C79.1964 87.3587 79.677 87.2642 80.214 87.2642C80.9696 87.2642 81.5629 87.4299 81.9938 87.7614C82.428 88.0928 82.7362 88.5303 82.9185 89.0739ZM89.517 97.8636C89.3182 97.8636 89.1409 97.8471 88.9851 97.8139C88.8293 97.7841 88.7216 97.7543 88.6619 97.7244L88.9602 96.6903C89.2453 96.7633 89.4972 96.7898 89.7159 96.7699C89.9347 96.75 90.1286 96.6522 90.2976 96.4766C90.4699 96.3042 90.6274 96.0241 90.7699 95.6364L90.9886 95.0398L88.1648 87.3636H89.4375L91.5455 93.4489H91.625L93.733 87.3636H95.0057L91.7642 96.1136C91.6184 96.508 91.4377 96.8345 91.2223 97.093C91.0069 97.3549 90.7566 97.5488 90.4716 97.6747C90.1899 97.8007 89.8717 97.8636 89.517 97.8636ZM99.3832 95.1591C98.6938 95.1591 98.0889 94.995 97.5685 94.6669C97.0515 94.3388 96.6471 93.8797 96.3555 93.2898C96.0671 92.6998 95.9229 92.0104 95.9229 91.2216C95.9229 90.4261 96.0671 89.7318 96.3555 89.1385C96.6471 88.5452 97.0515 88.0845 97.5685 87.7564C98.0889 87.4283 98.6938 87.2642 99.3832 87.2642C100.073 87.2642 100.676 87.4283 101.193 87.7564C101.713 88.0845 102.118 88.5452 102.406 89.1385C102.698 89.7318 102.843 90.4261 102.843 91.2216C102.843 92.0104 102.698 92.6998 102.406 93.2898C102.118 93.8797 101.713 94.3388 101.193 94.6669C100.676 94.995 100.073 95.1591 99.3832 95.1591ZM99.3832 94.1051C99.9068 94.1051 100.338 93.9709 100.676 93.7024C101.014 93.4339 101.264 93.081 101.426 92.6435C101.589 92.206 101.67 91.732 101.67 91.2216C101.67 90.7112 101.589 90.2356 101.426 89.7947C101.264 89.3539 101.014 88.9976 100.676 88.7259C100.338 88.4541 99.9068 88.3182 99.3832 88.3182C98.8595 88.3182 98.4286 88.4541 98.0906 88.7259C97.7525 88.9976 97.5022 89.3539 97.3398 89.7947C97.1774 90.2356 97.0962 90.7112 97.0962 91.2216C97.0962 91.732 97.1774 92.206 97.3398 92.6435C97.5022 93.081 97.7525 93.4339 98.0906 93.7024C98.4286 93.9709 98.8595 94.1051 99.3832 94.1051ZM109.447 91.8778V87.3636H110.62V95H109.447V93.7074H109.367C109.188 94.0952 108.91 94.425 108.532 94.6967C108.154 94.9652 107.677 95.0994 107.1 95.0994C106.623 95.0994 106.199 94.995 105.828 94.7862C105.456 94.5741 105.165 94.2559 104.953 93.8317C104.74 93.4041 104.634 92.8655 104.634 92.2159V87.3636H105.808V92.1364C105.808 92.6932 105.963 93.1373 106.275 93.4688C106.59 93.8002 106.991 93.9659 107.478 93.9659C107.77 93.9659 108.066 93.8913 108.368 93.7422C108.673 93.593 108.928 93.3643 109.134 93.0561C109.343 92.7479 109.447 92.3551 109.447 91.8778ZM112.769 95V87.3636H113.903V88.517H113.982C114.121 88.1392 114.373 87.8326 114.738 87.5973C115.103 87.362 115.513 87.2443 115.971 87.2443C116.057 87.2443 116.165 87.246 116.294 87.2493C116.423 87.2526 116.521 87.2576 116.587 87.2642V88.4574C116.548 88.4474 116.456 88.4325 116.314 88.4126C116.175 88.3894 116.027 88.3778 115.871 88.3778C115.5 88.3778 115.169 88.4557 114.877 88.6115C114.589 88.764 114.36 88.9761 114.191 89.2479C114.025 89.5163 113.942 89.8229 113.942 90.1676V95H112.769ZM128.16 87.3636L125.336 95H124.143L121.319 87.3636H122.592L124.7 93.4489H124.779L126.887 87.3636H128.16ZM132.537 95.1591C131.848 95.1591 131.243 94.995 130.723 94.6669C130.206 94.3388 129.801 93.8797 129.51 93.2898C129.221 92.6998 129.077 92.0104 129.077 91.2216C129.077 90.4261 129.221 89.7318 129.51 89.1385C129.801 88.5452 130.206 88.0845 130.723 87.7564C131.243 87.4283 131.848 87.2642 132.537 87.2642C133.227 87.2642 133.83 87.4283 134.347 87.7564C134.867 88.0845 135.272 88.5452 135.56 89.1385C135.852 89.7318 135.998 90.4261 135.998 91.2216C135.998 92.0104 135.852 92.6998 135.56 93.2898C135.272 93.8797 134.867 94.3388 134.347 94.6669C133.83 94.995 133.227 95.1591 132.537 95.1591ZM132.537 94.1051C133.061 94.1051 133.492 93.9709 133.83 93.7024C134.168 93.4339 134.418 93.081 134.581 92.6435C134.743 92.206 134.824 91.732 134.824 91.2216C134.824 90.7112 134.743 90.2356 134.581 89.7947C134.418 89.3539 134.168 88.9976 133.83 88.7259C133.492 88.4541 133.061 88.3182 132.537 88.3182C132.014 88.3182 131.583 88.4541 131.245 88.7259C130.907 88.9976 130.657 89.3539 130.494 89.7947C130.332 90.2356 130.251 90.7112 130.251 91.2216C130.251 91.732 130.332 92.206 130.494 92.6435C130.657 93.081 130.907 93.4339 131.245 93.7024C131.583 93.9709 132.014 94.1051 132.537 94.1051ZM141.11 87.3636V88.358H137.152V87.3636H141.11ZM138.306 85.5341H139.479V92.8125C139.479 93.1439 139.527 93.3925 139.623 93.5582C139.723 93.7206 139.849 93.83 140.001 93.8864C140.157 93.9394 140.321 93.9659 140.493 93.9659C140.623 93.9659 140.729 93.9593 140.811 93.946C140.894 93.9295 140.961 93.9162 141.01 93.9062L141.249 94.9602C141.169 94.9901 141.058 95.0199 140.916 95.0497C140.773 95.0829 140.593 95.0994 140.374 95.0994C140.042 95.0994 139.718 95.0282 139.4 94.8857C139.085 94.7431 138.823 94.526 138.614 94.2344C138.408 93.9427 138.306 93.5748 138.306 93.1307V85.5341ZM145.994 95.1591C145.259 95.1591 144.624 94.9967 144.09 94.6719C143.56 94.3438 143.151 93.8864 142.862 93.2997C142.577 92.7098 142.435 92.0237 142.435 91.2415C142.435 90.4593 142.577 89.7699 142.862 89.1733C143.151 88.5734 143.552 88.1061 144.065 87.7713C144.582 87.4332 145.186 87.2642 145.875 87.2642C146.273 87.2642 146.665 87.3305 147.053 87.4631C147.441 87.5956 147.794 87.8111 148.112 88.1094C148.43 88.4044 148.684 88.7955 148.873 89.2827C149.062 89.7699 149.156 90.3698 149.156 91.0824V91.5795H143.27V90.5653H147.963C147.963 90.1345 147.877 89.75 147.705 89.4119C147.536 89.0739 147.294 88.8071 146.979 88.6115C146.667 88.416 146.299 88.3182 145.875 88.3182C145.408 88.3182 145.003 88.4342 144.662 88.6662C144.324 88.8949 144.064 89.1932 143.881 89.5611C143.699 89.929 143.608 90.3234 143.608 90.7443V91.4205C143.608 91.9972 143.707 92.486 143.906 92.8871C144.108 93.2848 144.388 93.5881 144.746 93.7969C145.104 94.0024 145.52 94.1051 145.994 94.1051C146.303 94.1051 146.581 94.062 146.83 93.9759C147.081 93.8864 147.299 93.7538 147.481 93.5781C147.663 93.3991 147.804 93.1771 147.903 92.9119L149.037 93.2301C148.918 93.6146 148.717 93.9527 148.435 94.2443C148.154 94.5327 147.806 94.758 147.391 94.9205C146.977 95.0795 146.511 95.1591 145.994 95.1591ZM158.2 87.3636V88.358H154.242V87.3636H158.2ZM155.396 85.5341H156.569V92.8125C156.569 93.1439 156.617 93.3925 156.713 93.5582C156.813 93.7206 156.938 93.83 157.091 93.8864C157.247 93.9394 157.411 93.9659 157.583 93.9659C157.712 93.9659 157.818 93.9593 157.901 93.946C157.984 93.9295 158.05 93.9162 158.1 93.9062L158.339 94.9602C158.259 94.9901 158.148 95.0199 158.006 95.0497C157.863 95.0829 157.683 95.0994 157.464 95.0994C157.132 95.0994 156.808 95.0282 156.489 94.8857C156.174 94.7431 155.913 94.526 155.704 94.2344C155.498 93.9427 155.396 93.5748 155.396 93.1307V85.5341ZM162.985 95.1591C162.295 95.1591 161.69 94.995 161.17 94.6669C160.653 94.3388 160.249 93.8797 159.957 93.2898C159.669 92.6998 159.525 92.0104 159.525 91.2216C159.525 90.4261 159.669 89.7318 159.957 89.1385C160.249 88.5452 160.653 88.0845 161.17 87.7564C161.69 87.4283 162.295 87.2642 162.985 87.2642C163.674 87.2642 164.277 87.4283 164.794 87.7564C165.315 88.0845 165.719 88.5452 166.007 89.1385C166.299 89.7318 166.445 90.4261 166.445 91.2216C166.445 92.0104 166.299 92.6998 166.007 93.2898C165.719 93.8797 165.315 94.3388 164.794 94.6669C164.277 94.995 163.674 95.1591 162.985 95.1591ZM162.985 94.1051C163.508 94.1051 163.939 93.9709 164.277 93.7024C164.615 93.4339 164.866 93.081 165.028 92.6435C165.19 92.206 165.272 91.732 165.272 91.2216C165.272 90.7112 165.19 90.2356 165.028 89.7947C164.866 89.3539 164.615 88.9976 164.277 88.7259C163.939 88.4541 163.508 88.3182 162.985 88.3182C162.461 88.3182 162.03 88.4541 161.692 88.7259C161.354 88.9976 161.104 89.3539 160.941 89.7947C160.779 90.2356 160.698 90.7112 160.698 91.2216C160.698 91.732 160.779 92.206 160.941 92.6435C161.104 93.081 161.354 93.4339 161.692 93.7024C162.03 93.9709 162.461 94.1051 162.985 94.1051ZM172.173 95V87.3636H173.347V95H172.173ZM172.77 86.0909C172.541 86.0909 172.344 86.013 172.178 85.8572C172.016 85.7015 171.935 85.5142 171.935 85.2955C171.935 85.0767 172.016 84.8894 172.178 84.7337C172.344 84.5779 172.541 84.5 172.77 84.5C172.999 84.5 173.194 84.5779 173.357 84.7337C173.522 84.8894 173.605 85.0767 173.605 85.2955C173.605 85.5142 173.522 85.7015 173.357 85.8572C173.194 86.013 172.999 86.0909 172.77 86.0909ZM176.669 90.4062V95H175.496V87.3636H176.629V88.5568H176.729C176.908 88.169 177.179 87.8575 177.544 87.6222C177.909 87.3835 178.379 87.2642 178.956 87.2642C179.473 87.2642 179.925 87.3703 180.313 87.5824C180.701 87.7912 181.003 88.1094 181.218 88.5369C181.433 88.9612 181.541 89.4981 181.541 90.1477V95H180.368V90.2273C180.368 89.6274 180.212 89.16 179.901 88.8253C179.589 88.4872 179.161 88.3182 178.618 88.3182C178.243 88.3182 177.909 88.3994 177.614 88.5618C177.322 88.7242 177.092 88.9612 176.923 89.2727C176.754 89.5843 176.669 89.9621 176.669 90.4062ZM189.656 87.3636L186.832 95H185.639L182.815 87.3636H184.088L186.196 93.4489H186.275L188.383 87.3636H189.656ZM194.133 95.1591C193.397 95.1591 192.762 94.9967 192.229 94.6719C191.699 94.3438 191.289 93.8864 191.001 93.2997C190.716 92.7098 190.573 92.0237 190.573 91.2415C190.573 90.4593 190.716 89.7699 191.001 89.1733C191.289 88.5734 191.69 88.1061 192.204 87.7713C192.721 87.4332 193.324 87.2642 194.014 87.2642C194.411 87.2642 194.804 87.3305 195.192 87.4631C195.58 87.5956 195.933 87.8111 196.251 88.1094C196.569 88.4044 196.823 88.7955 197.012 89.2827C197.2 89.7699 197.295 90.3698 197.295 91.0824V91.5795H191.409V90.5653H196.102C196.102 90.1345 196.016 89.75 195.843 89.4119C195.674 89.0739 195.432 88.8071 195.117 88.6115C194.806 88.416 194.438 88.3182 194.014 88.3182C193.546 88.3182 193.142 88.4342 192.801 88.6662C192.463 88.8949 192.202 89.1932 192.02 89.5611C191.838 89.929 191.747 90.3234 191.747 90.7443V91.4205C191.747 91.9972 191.846 92.486 192.045 92.8871C192.247 93.2848 192.527 93.5881 192.885 93.7969C193.243 94.0024 193.659 94.1051 194.133 94.1051C194.441 94.1051 194.72 94.062 194.968 93.9759C195.22 93.8864 195.437 93.7538 195.619 93.5781C195.802 93.3991 195.943 93.1771 196.042 92.9119L197.176 93.2301C197.056 93.6146 196.856 93.9527 196.574 94.2443C196.292 94.5327 195.944 94.758 195.53 94.9205C195.116 95.0795 194.65 95.1591 194.133 95.1591ZM204.489 89.0739L203.435 89.3722C203.369 89.1965 203.271 89.0258 203.142 88.8601C203.016 88.6911 202.843 88.5518 202.624 88.4425C202.406 88.3331 202.126 88.2784 201.784 88.2784C201.317 88.2784 200.927 88.3861 200.616 88.6016C200.308 88.8137 200.154 89.0838 200.154 89.4119C200.154 89.7036 200.26 89.9339 200.472 90.103C200.684 90.272 201.015 90.4129 201.466 90.5256L202.6 90.804C203.282 90.9697 203.791 91.2232 204.126 91.5646C204.461 91.9027 204.628 92.3385 204.628 92.8722C204.628 93.3097 204.502 93.7008 204.25 94.0455C204.002 94.3902 203.654 94.6619 203.206 94.8608C202.759 95.0597 202.238 95.1591 201.645 95.1591C200.866 95.1591 200.222 94.9901 199.711 94.652C199.201 94.3139 198.878 93.8201 198.742 93.1705L199.855 92.892C199.961 93.303 200.162 93.6113 200.457 93.8168C200.755 94.0223 201.145 94.125 201.625 94.125C202.172 94.125 202.606 94.009 202.928 93.777C203.253 93.5417 203.415 93.2599 203.415 92.9318C203.415 92.6667 203.322 92.4446 203.137 92.2656C202.951 92.0833 202.666 91.9474 202.281 91.858L201.009 91.5597C200.309 91.3939 199.796 91.1371 199.468 90.7891C199.143 90.4377 198.98 89.9986 198.98 89.4716C198.98 89.0407 199.101 88.6596 199.343 88.3281C199.588 87.9967 199.922 87.7365 200.343 87.5476C200.767 87.3587 201.247 87.2642 201.784 87.2642C202.54 87.2642 203.133 87.4299 203.564 87.7614C203.998 88.0928 204.307 88.5303 204.489 89.0739ZM209.715 87.3636V88.358H205.758V87.3636H209.715ZM206.911 85.5341H208.085V92.8125C208.085 93.1439 208.133 93.3925 208.229 93.5582C208.328 93.7206 208.454 93.83 208.607 93.8864C208.762 93.9394 208.926 93.9659 209.099 93.9659C209.228 93.9659 209.334 93.9593 209.417 93.946C209.5 93.9295 209.566 93.9162 209.616 93.9062L209.854 94.9602C209.775 94.9901 209.664 95.0199 209.521 95.0497C209.379 95.0829 209.198 95.0994 208.979 95.0994C208.648 95.0994 208.323 95.0282 208.005 94.8857C207.69 94.7431 207.428 94.526 207.219 94.2344C207.014 93.9427 206.911 93.5748 206.911 93.1307V85.5341ZM215.418 95V87.3636H216.591V95H215.418ZM216.014 86.0909C215.786 86.0909 215.588 86.013 215.423 85.8572C215.26 85.7015 215.179 85.5142 215.179 85.2955C215.179 85.0767 215.26 84.8894 215.423 84.7337C215.588 84.5779 215.786 84.5 216.014 84.5C216.243 84.5 216.438 84.5779 216.601 84.7337C216.767 84.8894 216.849 85.0767 216.849 85.2955C216.849 85.5142 216.767 85.7015 216.601 85.8572C216.438 86.013 216.243 86.0909 216.014 86.0909ZM219.913 90.4062V95H218.74V87.3636H219.873V88.5568H219.973C220.152 88.169 220.424 87.8575 220.788 87.6222C221.153 87.3835 221.623 87.2642 222.2 87.2642C222.717 87.2642 223.17 87.3703 223.557 87.5824C223.945 87.7912 224.247 88.1094 224.462 88.5369C224.678 88.9612 224.785 89.4981 224.785 90.1477V95H223.612V90.2273C223.612 89.6274 223.456 89.16 223.145 88.8253C222.833 88.4872 222.406 88.3182 221.862 88.3182C221.488 88.3182 221.153 88.3994 220.858 88.5618C220.566 88.7242 220.336 88.9612 220.167 89.2727C219.998 89.5843 219.913 89.9621 219.913 90.4062ZM231.026 95V84.8182H232.259V93.9062H236.992V95H231.026ZM240.989 95.179C240.505 95.179 240.066 95.0878 239.672 94.9055C239.277 94.7199 238.964 94.4531 238.732 94.1051C238.5 93.7538 238.384 93.3295 238.384 92.8324C238.384 92.3949 238.47 92.0402 238.642 91.7685C238.815 91.4934 239.045 91.2779 239.333 91.1222C239.622 90.9664 239.94 90.8504 240.288 90.7741C240.639 90.6946 240.992 90.6316 241.347 90.5852C241.811 90.5256 242.187 90.4808 242.475 90.451C242.767 90.4179 242.979 90.3632 243.112 90.2869C243.248 90.2107 243.316 90.0781 243.316 89.8892V89.8494C243.316 89.3589 243.181 88.9777 242.913 88.706C242.648 88.4342 242.245 88.2983 241.705 88.2983C241.145 88.2983 240.706 88.4209 240.387 88.6662C240.069 88.9115 239.846 89.1733 239.716 89.4517L238.603 89.054C238.801 88.59 239.067 88.2287 239.398 87.9702C239.733 87.7083 240.097 87.526 240.492 87.4233C240.89 87.3172 241.281 87.2642 241.665 87.2642C241.91 87.2642 242.192 87.294 242.51 87.3537C242.832 87.41 243.142 87.5277 243.44 87.7067C243.742 87.8857 243.992 88.1558 244.191 88.517C244.39 88.8783 244.489 89.3622 244.489 89.9688V95H243.316V93.9659H243.256C243.176 94.1316 243.044 94.3089 242.858 94.4979C242.673 94.6868 242.426 94.8475 242.118 94.9801C241.809 95.1127 241.433 95.179 240.989 95.179ZM241.168 94.125C241.632 94.125 242.023 94.0339 242.341 93.8516C242.663 93.6693 242.905 93.4339 243.067 93.1456C243.233 92.8572 243.316 92.554 243.316 92.2358V91.1619C243.266 91.2216 243.157 91.2763 242.988 91.326C242.822 91.3724 242.63 91.4138 242.411 91.4503C242.195 91.4834 241.985 91.5133 241.779 91.5398C241.577 91.563 241.413 91.5829 241.287 91.5994C240.982 91.6392 240.697 91.7038 240.432 91.7933C240.17 91.8795 239.958 92.0104 239.796 92.1861C239.637 92.3584 239.557 92.5937 239.557 92.892C239.557 93.2997 239.708 93.608 240.01 93.8168C240.315 94.0223 240.701 94.125 241.168 94.125ZM247.804 90.4062V95H246.631V87.3636H247.764V88.5568H247.863C248.042 88.169 248.314 87.8575 248.679 87.6222C249.043 87.3835 249.514 87.2642 250.091 87.2642C250.608 87.2642 251.06 87.3703 251.448 87.5824C251.836 87.7912 252.137 88.1094 252.353 88.5369C252.568 88.9612 252.676 89.4981 252.676 90.1477V95H251.503V90.2273C251.503 89.6274 251.347 89.16 251.035 88.8253C250.724 88.4872 250.296 88.3182 249.753 88.3182C249.378 88.3182 249.043 88.3994 248.748 88.5618C248.457 88.7242 248.226 88.9612 248.057 89.2727C247.888 89.5843 247.804 89.9621 247.804 90.4062ZM258.022 95.1591C257.286 95.1591 256.651 94.9967 256.118 94.6719C255.587 94.3438 255.178 93.8864 254.89 93.2997C254.605 92.7098 254.462 92.0237 254.462 91.2415C254.462 90.4593 254.605 89.7699 254.89 89.1733C255.178 88.5734 255.579 88.1061 256.093 87.7713C256.61 87.4332 257.213 87.2642 257.902 87.2642C258.3 87.2642 258.693 87.3305 259.081 87.4631C259.468 87.5956 259.821 87.8111 260.14 88.1094C260.458 88.4044 260.711 88.7955 260.9 89.2827C261.089 89.7699 261.184 90.3698 261.184 91.0824V91.5795H255.297V90.5653H259.99C259.99 90.1345 259.904 89.75 259.732 89.4119C259.563 89.0739 259.321 88.8071 259.006 88.6115C258.694 88.416 258.327 88.3182 257.902 88.3182C257.435 88.3182 257.031 88.4342 256.689 88.6662C256.351 88.8949 256.091 89.1932 255.909 89.5611C255.726 89.929 255.635 90.3234 255.635 90.7443V91.4205C255.635 91.9972 255.735 92.486 255.934 92.8871C256.136 93.2848 256.416 93.5881 256.774 93.7969C257.132 94.0024 257.548 94.1051 258.022 94.1051C258.33 94.1051 258.608 94.062 258.857 93.9759C259.109 93.8864 259.326 93.7538 259.508 93.5781C259.69 93.3991 259.831 93.1771 259.931 92.9119L261.064 93.2301C260.945 93.6146 260.744 93.9527 260.463 94.2443C260.181 94.5327 259.833 94.758 259.419 94.9205C259.004 95.0795 258.539 95.1591 258.022 95.1591ZM267.483 95H266.19L269.929 84.8182H271.201L274.94 95H273.647L270.605 86.429H270.525L267.483 95ZM267.96 91.0227H273.17V92.1165H267.96V91.0227ZM277.759 84.8182V95H276.526V84.8182H277.759ZM281.603 92.1364V92.0767C281.61 91.4437 281.676 90.9399 281.802 90.5653C281.928 90.1908 282.107 89.8875 282.339 89.6555C282.571 89.4235 282.849 89.2098 283.174 89.0142C283.37 88.8949 283.545 88.754 283.701 88.5916C283.857 88.4259 283.98 88.2353 284.069 88.0199C284.162 87.8045 284.208 87.5658 284.208 87.304C284.208 86.9792 284.132 86.6974 283.98 86.4588C283.827 86.2202 283.623 86.0362 283.368 85.907C283.113 85.7777 282.829 85.7131 282.518 85.7131C282.246 85.7131 281.984 85.7694 281.732 85.8821C281.481 85.9948 281.27 86.1721 281.101 86.4141C280.932 86.656 280.834 86.9725 280.808 87.3636H279.555C279.581 86.8002 279.727 86.3179 279.992 85.9169C280.261 85.5159 280.614 85.2093 281.051 84.9972C281.492 84.785 281.981 84.679 282.518 84.679C283.101 84.679 283.608 84.795 284.039 85.027C284.473 85.259 284.808 85.5772 285.044 85.9815C285.282 86.3859 285.401 86.8466 285.401 87.3636C285.401 87.7282 285.345 88.058 285.232 88.353C285.123 88.648 284.964 88.9115 284.755 89.1435C284.55 89.3755 284.301 89.581 284.009 89.7599C283.718 89.9422 283.484 90.1345 283.308 90.3366C283.133 90.5355 283.005 90.7725 282.926 91.0476C282.846 91.3227 282.803 91.6657 282.796 92.0767V92.1364H281.603ZM282.24 95.0795C281.994 95.0795 281.784 94.9917 281.608 94.8161C281.432 94.6404 281.345 94.4299 281.345 94.1847C281.345 93.9394 281.432 93.7289 281.608 93.5533C281.784 93.3776 281.994 93.2898 282.24 93.2898C282.485 93.2898 282.695 93.3776 282.871 93.5533C283.047 93.7289 283.134 93.9394 283.134 94.1847C283.134 94.3471 283.093 94.4962 283.01 94.6321C282.931 94.768 282.823 94.8774 282.687 94.9602C282.554 95.0398 282.405 95.0795 282.24 95.0795ZM288.699 92.1364V92.0767C288.705 91.4437 288.772 90.9399 288.898 90.5653C289.024 90.1908 289.203 89.8875 289.435 89.6555C289.667 89.4235 289.945 89.2098 290.27 89.0142C290.465 88.8949 290.641 88.754 290.797 88.5916C290.953 88.4259 291.075 88.2353 291.165 88.0199C291.258 87.8045 291.304 87.5658 291.304 87.304C291.304 86.9792 291.228 86.6974 291.075 86.4588C290.923 86.2202 290.719 86.0362 290.464 85.907C290.209 85.7777 289.925 85.7131 289.614 85.7131C289.342 85.7131 289.08 85.7694 288.828 85.8821C288.576 85.9948 288.366 86.1721 288.197 86.4141C288.028 86.656 287.93 86.9725 287.903 87.3636H286.651C286.677 86.8002 286.823 86.3179 287.088 85.9169C287.357 85.5159 287.71 85.2093 288.147 84.9972C288.588 84.785 289.077 84.679 289.614 84.679C290.197 84.679 290.704 84.795 291.135 85.027C291.569 85.259 291.904 85.5772 292.139 85.9815C292.378 86.3859 292.497 86.8466 292.497 87.3636C292.497 87.7282 292.441 88.058 292.328 88.353C292.219 88.648 292.06 88.9115 291.851 89.1435C291.645 89.3755 291.397 89.581 291.105 89.7599C290.813 89.9422 290.58 90.1345 290.404 90.3366C290.228 90.5355 290.101 90.7725 290.021 91.0476C289.942 91.3227 289.899 91.6657 289.892 92.0767V92.1364H288.699ZM289.335 95.0795C289.09 95.0795 288.879 94.9917 288.704 94.8161C288.528 94.6404 288.44 94.4299 288.44 94.1847C288.44 93.9394 288.528 93.7289 288.704 93.5533C288.879 93.3776 289.09 93.2898 289.335 93.2898C289.58 93.2898 289.791 93.3776 289.967 93.5533C290.142 93.7289 290.23 93.9394 290.23 94.1847C290.23 94.3471 290.189 94.4962 290.106 94.6321C290.026 94.768 289.919 94.8774 289.783 94.9602C289.65 95.0398 289.501 95.0795 289.335 95.0795Z" fill="black"/>
<rect x="41" y="125" width="362" height="54" rx="15" fill="#FAFAFA"/>
<rect x="41" y="125" width="362" height="54" rx="15" stroke="#49C17A" stroke-width="2"/>
<path d="M68 143C63.0375 143 59 147.037 59 152C59 156.963 63.0375 161 68 161C72.9625 161 77 156.963 77 152C77 147.037 72.9625 143 68 143ZM71.4615 152.692H68.6923V155.462C68.6923 155.645 68.6194 155.821 68.4895 155.951C68.3597 156.081 68.1836 156.154 68 156.154C67.8164 156.154 67.6403 156.081 67.5105 155.951C67.3806 155.821 67.3077 155.645 67.3077 155.462V152.692H64.5385C64.3549 152.692 64.1788 152.619 64.0489 152.49C63.9191 152.36 63.8462 152.184 63.8462 152C63.8462 151.816 63.9191 151.64 64.0489 151.51C64.1788 151.381 64.3549 151.308 64.5385 151.308H67.3077V148.538C67.3077 148.355 67.3806 148.179 67.5105 148.049C67.6403 147.919 67.8164 147.846 68 147.846C68.1836 147.846 68.3597 147.919 68.4895 148.049C68.6194 148.179 68.6923 148.355 68.6923 148.538V151.308H71.4615C71.6452 151.308 71.8212 151.381 71.9511 151.51C72.0809 151.64 72.1538 151.816 72.1538 152C72.1538 152.184 72.0809 152.36 71.9511 152.49C71.8212 152.619 71.6452 152.692 71.4615 152.692Z" fill="#49C17A"/>
<path d="M89.2784 158V146.364H96.4943V147.875H91.0341V151.42H95.9773V152.926H91.0341V158H89.2784ZM101.553 158.176C100.734 158.176 100.02 157.989 99.4105 157.614C98.8007 157.239 98.3272 156.714 97.9901 156.04C97.6529 155.366 97.4844 154.578 97.4844 153.676C97.4844 152.771 97.6529 151.979 97.9901 151.301C98.3272 150.623 98.8007 150.097 99.4105 149.722C100.02 149.347 100.734 149.159 101.553 149.159C102.371 149.159 103.085 149.347 103.695 149.722C104.304 150.097 104.778 150.623 105.115 151.301C105.452 151.979 105.621 152.771 105.621 153.676C105.621 154.578 105.452 155.366 105.115 156.04C104.778 156.714 104.304 157.239 103.695 157.614C103.085 157.989 102.371 158.176 101.553 158.176ZM101.558 156.75C102.089 156.75 102.528 156.61 102.876 156.33C103.225 156.049 103.482 155.676 103.649 155.21C103.82 154.744 103.905 154.231 103.905 153.67C103.905 153.114 103.82 152.602 103.649 152.136C103.482 151.667 103.225 151.29 102.876 151.006C102.528 150.722 102.089 150.58 101.558 150.58C101.024 150.58 100.581 150.722 100.229 151.006C99.8802 151.29 99.6207 151.667 99.4503 152.136C99.2836 152.602 99.2003 153.114 99.2003 153.67C99.2003 154.231 99.2836 154.744 99.4503 155.21C99.6207 155.676 99.8802 156.049 100.229 156.33C100.581 156.61 101.024 156.75 101.558 156.75ZM107.517 158V149.273H109.159V150.659H109.25C109.409 150.189 109.689 149.82 110.091 149.551C110.496 149.278 110.955 149.142 111.466 149.142C111.572 149.142 111.697 149.146 111.841 149.153C111.989 149.161 112.104 149.17 112.188 149.182V150.807C112.119 150.788 111.998 150.767 111.824 150.744C111.65 150.718 111.475 150.705 111.301 150.705C110.9 150.705 110.542 150.79 110.227 150.96C109.917 151.127 109.67 151.36 109.489 151.659C109.307 151.955 109.216 152.292 109.216 152.67V158H107.517Z" fill="black"/>
<rect x="40.5" y="196.5" width="363" height="55" rx="15.5" stroke="#E1D1FA"/>
<path d="M77 224C77 219.031 72.9688 215 68 215C63.0312 215 59 219.031 59 224C59 228.969 63.0312 233 68 233C72.9688 233 77 228.969 77 224Z" stroke="#2A2A2A" stroke-width="1.5" stroke-miterlimit="10"/>
<path d="M71 227L65 221M65 227L71 221" stroke="black" stroke-width="1.5" stroke-linecap="round" stroke-linejoin="round"/>
<path d="M90.2614 230H88.3977L92.5852 218.364H94.6136L98.8011 230H96.9375L93.6477 220.477H93.5568L90.2614 230ZM90.5739 225.443H96.6193V226.92H90.5739V225.443ZM103.864 233.455C103.17 233.455 102.574 233.364 102.074 233.182C101.578 233 101.172 232.759 100.858 232.46C100.544 232.161 100.309 231.833 100.153 231.477L101.614 230.875C101.716 231.042 101.852 231.218 102.023 231.403C102.197 231.593 102.432 231.754 102.727 231.886C103.027 232.019 103.411 232.085 103.881 232.085C104.525 232.085 105.057 231.928 105.477 231.614C105.898 231.303 106.108 230.807 106.108 230.125V228.409H106C105.898 228.595 105.75 228.801 105.557 229.028C105.367 229.256 105.106 229.453 104.773 229.619C104.439 229.786 104.006 229.869 103.472 229.869C102.782 229.869 102.161 229.708 101.608 229.386C101.059 229.061 100.623 228.581 100.301 227.949C99.983 227.312 99.8239 226.53 99.8239 225.602C99.8239 224.674 99.9811 223.879 100.295 223.216C100.614 222.553 101.049 222.045 101.602 221.693C102.155 221.337 102.782 221.159 103.483 221.159C104.025 221.159 104.462 221.25 104.795 221.432C105.129 221.61 105.388 221.818 105.574 222.057C105.763 222.295 105.909 222.506 106.011 222.688H106.136V221.273H107.801V230.193C107.801 230.943 107.627 231.559 107.278 232.04C106.93 232.521 106.458 232.877 105.864 233.108C105.273 233.339 104.606 233.455 103.864 233.455ZM103.847 228.46C104.335 228.46 104.748 228.347 105.085 228.119C105.426 227.888 105.684 227.559 105.858 227.131C106.036 226.699 106.125 226.182 106.125 225.58C106.125 224.992 106.038 224.475 105.864 224.028C105.689 223.581 105.434 223.233 105.097 222.983C104.759 222.729 104.343 222.602 103.847 222.602C103.335 222.602 102.909 222.735 102.568 223C102.227 223.261 101.97 223.617 101.795 224.068C101.625 224.519 101.54 225.023 101.54 225.58C101.54 226.152 101.627 226.653 101.801 227.085C101.975 227.517 102.233 227.854 102.574 228.097C102.919 228.339 103.343 228.46 103.847 228.46ZM112.619 230.193C112.066 230.193 111.566 230.091 111.119 229.886C110.672 229.678 110.318 229.377 110.057 228.983C109.799 228.589 109.67 228.106 109.67 227.534C109.67 227.042 109.765 226.636 109.955 226.318C110.144 226 110.4 225.748 110.722 225.562C111.044 225.377 111.403 225.237 111.801 225.142C112.199 225.047 112.604 224.975 113.017 224.926C113.54 224.866 113.964 224.816 114.29 224.778C114.616 224.737 114.852 224.67 115 224.58C115.148 224.489 115.222 224.341 115.222 224.136V224.097C115.222 223.6 115.081 223.216 114.801 222.943C114.525 222.67 114.112 222.534 113.562 222.534C112.991 222.534 112.54 222.661 112.21 222.915C111.884 223.165 111.659 223.443 111.534 223.75L109.938 223.386C110.127 222.856 110.403 222.428 110.767 222.102C111.134 221.773 111.557 221.534 112.034 221.386C112.511 221.235 113.013 221.159 113.54 221.159C113.888 221.159 114.258 221.201 114.648 221.284C115.042 221.364 115.409 221.511 115.75 221.727C116.095 221.943 116.377 222.252 116.597 222.653C116.816 223.051 116.926 223.568 116.926 224.205V230H115.267V228.807H115.199C115.089 229.027 114.924 229.242 114.705 229.455C114.485 229.667 114.203 229.843 113.858 229.983C113.513 230.123 113.1 230.193 112.619 230.193ZM112.989 228.83C113.458 228.83 113.86 228.737 114.193 228.551C114.53 228.366 114.786 228.123 114.96 227.824C115.138 227.521 115.227 227.197 115.227 226.852V225.727C115.167 225.788 115.049 225.845 114.875 225.898C114.705 225.947 114.509 225.991 114.29 226.028C114.07 226.062 113.856 226.095 113.648 226.125C113.439 226.152 113.265 226.174 113.125 226.193C112.795 226.235 112.494 226.305 112.222 226.403C111.953 226.502 111.737 226.644 111.574 226.83C111.415 227.011 111.335 227.254 111.335 227.557C111.335 227.977 111.491 228.295 111.801 228.511C112.112 228.723 112.508 228.83 112.989 228.83ZM119.189 230V221.273H120.888V230H119.189ZM120.047 219.926C119.751 219.926 119.498 219.828 119.286 219.631C119.077 219.43 118.973 219.191 118.973 218.915C118.973 218.634 119.077 218.396 119.286 218.199C119.498 217.998 119.751 217.898 120.047 217.898C120.342 217.898 120.594 217.998 120.803 218.199C121.015 218.396 121.121 218.634 121.121 218.915C121.121 219.191 121.015 219.43 120.803 219.631C120.594 219.828 120.342 219.926 120.047 219.926ZM124.872 224.818V230H123.173V221.273H124.804V222.693H124.912C125.113 222.231 125.427 221.86 125.855 221.58C126.287 221.299 126.83 221.159 127.486 221.159C128.08 221.159 128.601 221.284 129.048 221.534C129.495 221.78 129.842 222.148 130.088 222.636C130.334 223.125 130.457 223.729 130.457 224.449V230H128.759V224.653C128.759 224.021 128.594 223.527 128.264 223.17C127.935 222.811 127.482 222.631 126.906 222.631C126.512 222.631 126.162 222.716 125.855 222.886C125.552 223.057 125.312 223.307 125.134 223.636C124.959 223.962 124.872 224.356 124.872 224.818ZM139.276 223.403L137.736 223.676C137.671 223.479 137.569 223.292 137.429 223.114C137.293 222.936 137.107 222.79 136.872 222.676C136.637 222.562 136.344 222.506 135.991 222.506C135.51 222.506 135.109 222.614 134.787 222.83C134.465 223.042 134.304 223.316 134.304 223.653C134.304 223.945 134.412 224.18 134.628 224.358C134.844 224.536 135.192 224.682 135.673 224.795L137.06 225.114C137.863 225.299 138.461 225.585 138.855 225.972C139.249 226.358 139.446 226.86 139.446 227.477C139.446 228 139.295 228.466 138.991 228.875C138.692 229.28 138.274 229.598 137.736 229.83C137.202 230.061 136.582 230.176 135.878 230.176C134.901 230.176 134.103 229.968 133.486 229.551C132.868 229.131 132.49 228.534 132.349 227.761L133.991 227.511C134.094 227.939 134.304 228.263 134.622 228.483C134.94 228.699 135.355 228.807 135.866 228.807C136.423 228.807 136.868 228.691 137.202 228.46C137.535 228.225 137.702 227.939 137.702 227.602C137.702 227.33 137.599 227.1 137.395 226.915C137.194 226.729 136.885 226.589 136.469 226.494L134.991 226.17C134.177 225.985 133.575 225.689 133.185 225.284C132.798 224.879 132.605 224.366 132.605 223.744C132.605 223.229 132.749 222.778 133.037 222.392C133.325 222.006 133.723 221.705 134.23 221.489C134.738 221.269 135.319 221.159 135.974 221.159C136.918 221.159 137.66 221.364 138.202 221.773C138.743 222.178 139.101 222.722 139.276 223.403ZM145.388 221.273V222.636H140.621V221.273H145.388ZM141.899 219.182H143.598V227.438C143.598 227.767 143.647 228.015 143.746 228.182C143.844 228.345 143.971 228.456 144.126 228.517C144.286 228.574 144.458 228.602 144.643 228.602C144.78 228.602 144.899 228.593 145.001 228.574C145.104 228.555 145.183 228.54 145.24 228.528L145.547 229.932C145.448 229.97 145.308 230.008 145.126 230.045C144.945 230.087 144.717 230.11 144.445 230.114C143.998 230.121 143.581 230.042 143.195 229.875C142.808 229.708 142.496 229.451 142.257 229.102C142.018 228.754 141.899 228.316 141.899 227.79V219.182Z" fill="black"/>
<rect x="40.5" y="268.5" width="363" height="55" rx="15.5" stroke="#E1D1FA"/>
<path d="M77 296C77 291.031 72.9688 287 68 287C63.0312 287 59 291.031 59 296C59 300.969 63.0312 305 68 305C72.9688 305 77 300.969 77 296Z" stroke="#2A2A2A" stroke-width="1.5" stroke-miterlimit="10"/>
<path d="M71.75 296H64.25" stroke="black" stroke-width="1.5" stroke-linecap="round" stroke-linejoin="round"/>
<path d="M90.2614 302H88.3977L92.5852 290.364H94.6136L98.8011 302H96.9375L93.6477 292.477H93.5568L90.2614 302ZM90.5739 297.443H96.6193V298.92H90.5739V297.443ZM100.482 302V290.364H102.18V294.688H102.283C102.381 294.506 102.523 294.295 102.709 294.057C102.894 293.818 103.152 293.61 103.482 293.432C103.811 293.25 104.247 293.159 104.788 293.159C105.493 293.159 106.122 293.337 106.675 293.693C107.228 294.049 107.661 294.562 107.976 295.233C108.294 295.903 108.453 296.71 108.453 297.653C108.453 298.597 108.296 299.405 107.982 300.08C107.667 300.75 107.235 301.267 106.686 301.631C106.137 301.991 105.51 302.17 104.805 302.17C104.275 302.17 103.841 302.081 103.504 301.903C103.171 301.725 102.91 301.517 102.72 301.278C102.531 301.04 102.385 300.828 102.283 300.642H102.141V302H100.482ZM102.146 297.636C102.146 298.25 102.235 298.788 102.413 299.25C102.591 299.712 102.849 300.074 103.186 300.335C103.523 300.593 103.936 300.722 104.425 300.722C104.932 300.722 105.357 300.587 105.697 300.318C106.038 300.045 106.296 299.676 106.47 299.21C106.648 298.744 106.737 298.22 106.737 297.636C106.737 297.061 106.65 296.544 106.476 296.085C106.305 295.627 106.048 295.265 105.703 295C105.362 294.735 104.936 294.602 104.425 294.602C103.932 294.602 103.516 294.729 103.175 294.983C102.838 295.237 102.582 295.591 102.408 296.045C102.233 296.5 102.146 297.03 102.146 297.636ZM116.901 295.403L115.361 295.676C115.296 295.479 115.194 295.292 115.054 295.114C114.918 294.936 114.732 294.79 114.497 294.676C114.262 294.562 113.969 294.506 113.616 294.506C113.135 294.506 112.734 294.614 112.412 294.83C112.09 295.042 111.929 295.316 111.929 295.653C111.929 295.945 112.037 296.18 112.253 296.358C112.469 296.536 112.817 296.682 113.298 296.795L114.685 297.114C115.488 297.299 116.086 297.585 116.48 297.972C116.874 298.358 117.071 298.86 117.071 299.477C117.071 300 116.92 300.466 116.616 300.875C116.317 301.28 115.899 301.598 115.361 301.83C114.827 302.061 114.207 302.176 113.503 302.176C112.526 302.176 111.728 301.968 111.111 301.551C110.493 301.131 110.115 300.534 109.974 299.761L111.616 299.511C111.719 299.939 111.929 300.263 112.247 300.483C112.565 300.699 112.98 300.807 113.491 300.807C114.048 300.807 114.493 300.691 114.827 300.46C115.16 300.225 115.327 299.939 115.327 299.602C115.327 299.33 115.224 299.1 115.02 298.915C114.819 298.729 114.51 298.589 114.094 298.494L112.616 298.17C111.802 297.985 111.2 297.689 110.81 297.284C110.423 296.879 110.23 296.366 110.23 295.744C110.23 295.229 110.374 294.778 110.662 294.392C110.95 294.006 111.348 293.705 111.855 293.489C112.363 293.269 112.944 293.159 113.599 293.159C114.543 293.159 115.285 293.364 115.827 293.773C116.368 294.178 116.726 294.722 116.901 295.403ZM123.013 293.273V294.636H118.246V293.273H123.013ZM119.524 291.182H121.223V299.438C121.223 299.767 121.272 300.015 121.371 300.182C121.469 300.345 121.596 300.456 121.751 300.517C121.911 300.574 122.083 300.602 122.268 300.602C122.405 300.602 122.524 300.593 122.626 300.574C122.729 300.555 122.808 300.54 122.865 300.528L123.172 301.932C123.073 301.97 122.933 302.008 122.751 302.045C122.57 302.087 122.342 302.11 122.07 302.114C121.623 302.121 121.206 302.042 120.82 301.875C120.433 301.708 120.121 301.451 119.882 301.102C119.643 300.754 119.524 300.316 119.524 299.79V291.182ZM127.432 302.193C126.879 302.193 126.379 302.091 125.932 301.886C125.485 301.678 125.131 301.377 124.869 300.983C124.612 300.589 124.483 300.106 124.483 299.534C124.483 299.042 124.578 298.636 124.767 298.318C124.956 298 125.212 297.748 125.534 297.562C125.856 297.377 126.216 297.237 126.614 297.142C127.011 297.047 127.417 296.975 127.83 296.926C128.352 296.866 128.777 296.816 129.102 296.778C129.428 296.737 129.665 296.67 129.812 296.58C129.96 296.489 130.034 296.341 130.034 296.136V296.097C130.034 295.6 129.894 295.216 129.614 294.943C129.337 294.67 128.924 294.534 128.375 294.534C127.803 294.534 127.352 294.661 127.023 294.915C126.697 295.165 126.472 295.443 126.347 295.75L124.75 295.386C124.939 294.856 125.216 294.428 125.58 294.102C125.947 293.773 126.369 293.534 126.847 293.386C127.324 293.235 127.826 293.159 128.352 293.159C128.701 293.159 129.07 293.201 129.46 293.284C129.854 293.364 130.222 293.511 130.562 293.727C130.907 293.943 131.189 294.252 131.409 294.653C131.629 295.051 131.739 295.568 131.739 296.205V302H130.08V300.807H130.011C129.902 301.027 129.737 301.242 129.517 301.455C129.297 301.667 129.015 301.843 128.67 301.983C128.326 302.123 127.913 302.193 127.432 302.193ZM127.801 300.83C128.271 300.83 128.672 300.737 129.006 300.551C129.343 300.366 129.598 300.123 129.773 299.824C129.951 299.521 130.04 299.197 130.04 298.852V297.727C129.979 297.788 129.862 297.845 129.688 297.898C129.517 297.947 129.322 297.991 129.102 298.028C128.883 298.062 128.669 298.095 128.46 298.125C128.252 298.152 128.078 298.174 127.938 298.193C127.608 298.235 127.307 298.305 127.034 298.403C126.765 298.502 126.549 298.644 126.386 298.83C126.227 299.011 126.148 299.254 126.148 299.557C126.148 299.977 126.303 300.295 126.614 300.511C126.924 300.723 127.32 300.83 127.801 300.83ZM134.001 302V293.273H135.7V302H134.001ZM134.859 291.926C134.564 291.926 134.31 291.828 134.098 291.631C133.89 291.43 133.786 291.191 133.786 290.915C133.786 290.634 133.89 290.396 134.098 290.199C134.31 289.998 134.564 289.898 134.859 289.898C135.155 289.898 135.407 289.998 135.615 290.199C135.827 290.396 135.933 290.634 135.933 290.915C135.933 291.191 135.827 291.43 135.615 291.631C135.407 291.828 135.155 291.926 134.859 291.926ZM139.685 296.818V302H137.986V293.273H139.616V294.693H139.724C139.925 294.231 140.24 293.86 140.668 293.58C141.099 293.299 141.643 293.159 142.298 293.159C142.893 293.159 143.414 293.284 143.861 293.534C144.308 293.78 144.654 294.148 144.901 294.636C145.147 295.125 145.27 295.729 145.27 296.449V302H143.571V296.653C143.571 296.021 143.406 295.527 143.077 295.17C142.747 294.811 142.295 294.631 141.719 294.631C141.325 294.631 140.974 294.716 140.668 294.886C140.365 295.057 140.124 295.307 139.946 295.636C139.772 295.962 139.685 296.356 139.685 296.818Z" fill="black"/>
</svg>
