<svg width="32" height="32" viewBox="0 0 32 32" fill="none" xmlns="http://www.w3.org/2000/svg">
<g clip-path="url(#clip0_1_9606)">
<path d="M32 0H0V32H32V0Z" fill="#FFBF66"/>
<path d="M3.64678 17.9066C5.70247 20.117 7.65484 22.4896 10.6934 23.2921C12.417 23.7474 13.2347 23.3406 14.8614 23.1077C16.6019 22.8585 18.3016 22.7703 20.0485 22.6332C22.8816 22.4108 25.1655 21.5505 27.4272 19.8561C27.642 19.6956 28.1469 19.329 28.3033 19.1562C28.6366 18.7862 28.3033 18.2959 27.8265 18.4453C26.8196 19.2374 25.7749 19.9757 24.632 20.5629C23.2692 21.2627 21.8141 21.6176 20.2819 21.7577C18.3658 21.9328 16.4805 22.0051 14.5707 22.2917C13.5137 22.4505 12.776 22.7674 11.6512 22.6267C8.54202 22.2374 6.3124 19.4568 4.28882 17.3235C4.01391 17.0334 2.96214 15.7027 2.70124 15.6425C2.60026 15.6192 2.47477 15.6128 2.37555 15.6425C2.07671 15.7318 2.07963 16.0832 2.21737 16.3021C2.46718 16.6996 3.28432 17.5179 3.64678 17.9072V17.9066Z" fill="black"/>
<path d="M27.0692 8.11658C30.8637 7.63681 31.2039 12.7708 27.8688 13.0603C24.3476 13.3661 24.0003 8.50472 27.0692 8.11658Z" fill="black"/>
<path d="M1.92578 10.5041C2.52872 12.8428 5.85155 13.1265 6.82861 10.9126C7.24827 9.96124 7.15897 9.03554 6.42179 8.25517C4.64393 6.37284 1.2604 7.9219 1.92578 10.5041Z" fill="black"/>
<path d="M27.0274 9.42895C28.2898 9.17272 28.6511 11.17 27.248 11.17C26.0579 11.17 26.0182 9.6344 27.0274 9.42895Z" fill="#FBFBFB"/>
<path d="M3.89101 8.22298C5.13131 8.01986 5.34785 9.7627 4.27215 9.94539C2.98808 10.1637 2.72017 8.41442 3.89101 8.22298Z" fill="#FBFBFB"/>
</g>
<defs>
<clipPath id="clip0_1_9606">
<rect width="32" height="32" fill="white"/>
</clipPath>
</defs>
</svg>
