<svg width="16" height="16" viewBox="0 0 16 16" fill="none" xmlns="http://www.w3.org/2000/svg">
<g clip-path="url(#clip0_1_2040)">
<path d="M6.49994 16.0002C6.34193 16.001 6.18743 15.9535 6.0571 15.8642C5.92676 15.7748 5.8268 15.6478 5.77057 15.5002L4.52557 12.2627C4.50035 12.1974 4.46178 12.1382 4.41232 12.0887C4.36286 12.0393 4.30362 12.0007 4.23838 11.9755L0.999941 10.7295C0.852423 10.6729 0.725541 10.5729 0.63604 10.4427C0.546539 10.3125 0.498626 10.1582 0.498626 10.0002C0.498626 9.84215 0.546539 9.68785 0.63604 9.55764C0.725541 9.42742 0.852423 9.3274 0.999941 9.27078L4.23744 8.02578C4.30268 8.00057 4.36193 7.96199 4.41138 7.91254C4.46084 7.86308 4.49941 7.80383 4.52463 7.7386L5.77057 4.50016C5.82718 4.35264 5.9272 4.22576 6.05742 4.13626C6.18764 4.04676 6.34193 3.99884 6.49994 3.99884C6.65795 3.99884 6.81225 4.04676 6.94246 4.13626C7.07268 4.22576 7.1727 4.35264 7.22932 4.50016L8.47432 7.73766C8.49953 7.8029 8.53811 7.86214 8.58756 7.9116C8.63702 7.96106 8.69627 7.99963 8.7615 8.02485L11.9803 9.26328C12.1338 9.32019 12.266 9.42302 12.359 9.55778C12.452 9.69254 12.5012 9.85268 12.4999 10.0164C12.4976 10.1717 12.4486 10.3226 12.3595 10.4498C12.2703 10.5769 12.1451 10.6744 11.9999 10.7295L8.76244 11.9745C8.6972 11.9997 8.63796 12.0383 8.5885 12.0878C8.53904 12.1372 8.50047 12.1965 8.47525 12.2617L7.22932 15.5002C7.17308 15.6478 7.07312 15.7748 6.94279 15.8642C6.81245 15.9535 6.65796 16.001 6.49994 16.0002ZM2.74994 5.50016C2.6573 5.50015 2.56684 5.47208 2.49047 5.41964C2.4141 5.36721 2.35541 5.29286 2.32213 5.20641L1.79525 3.83641C1.78383 3.80645 1.76621 3.77924 1.74354 3.75656C1.72086 3.73389 1.69365 3.71626 1.66369 3.70485L0.293691 3.17797C0.207247 3.14468 0.132915 3.08599 0.0804885 3.00962C0.0280618 2.93325 0 2.84279 0 2.75016C0 2.65753 0.0280618 2.56707 0.0804885 2.4907C0.132915 2.41433 0.207247 2.35563 0.293691 2.32235L1.66369 1.79547C1.69362 1.784 1.72081 1.76636 1.74347 1.74369C1.76614 1.72102 1.78378 1.69384 1.79525 1.66391L2.31744 0.306095C2.34689 0.226158 2.39757 0.155758 2.46402 0.102461C2.53048 0.049163 2.6102 0.0149834 2.69463 0.00359521C2.79599 -0.00872659 2.89856 0.0131417 2.98608 0.0657325C3.0736 0.118323 3.14105 0.198626 3.17775 0.293908L3.70463 1.66391C3.7161 1.69384 3.73374 1.72102 3.75641 1.74369C3.77908 1.76636 3.80626 1.784 3.83619 1.79547L5.20619 2.32235C5.29264 2.35563 5.36697 2.41433 5.41939 2.4907C5.47182 2.56707 5.49988 2.65753 5.49988 2.75016C5.49988 2.84279 5.47182 2.93325 5.41939 3.00962C5.36697 3.08599 5.29264 3.14468 5.20619 3.17797L3.83619 3.70485C3.80623 3.71626 3.77902 3.73389 3.75635 3.75656C3.73367 3.77924 3.71605 3.80645 3.70463 3.83641L3.17775 5.20641C3.14447 5.29286 3.08578 5.36721 3.00941 5.41964C2.93304 5.47208 2.84258 5.50015 2.74994 5.50016ZM12.4999 8.00016C12.3989 8.00013 12.3002 7.96947 12.2169 7.91224C12.1336 7.855 12.0696 7.77387 12.0334 7.67953L11.3196 5.82422C11.3071 5.79153 11.2878 5.76184 11.263 5.73707C11.2383 5.71231 11.2086 5.69303 11.1759 5.68047L9.32057 4.96672C9.22631 4.9304 9.14526 4.86638 9.0881 4.7831C9.03094 4.69982 9.00034 4.60117 9.00034 4.50016C9.00034 4.39914 9.03094 4.3005 9.0881 4.21722C9.14526 4.13393 9.22631 4.06992 9.32057 4.0336L11.1759 3.31985C11.2086 3.30729 11.2383 3.28801 11.263 3.26324C11.2878 3.23848 11.3071 3.20879 11.3196 3.1761L12.0281 1.33391C12.0604 1.24679 12.1158 1.17007 12.1882 1.11191C12.2607 1.05375 12.3476 1.01631 12.4396 1.0036C12.5502 0.990206 12.6621 1.01414 12.7576 1.07161C12.8531 1.12907 12.9266 1.21677 12.9665 1.32078L13.6803 3.1761C13.6928 3.20879 13.7121 3.23848 13.7369 3.26324C13.7616 3.28801 13.7913 3.30729 13.824 3.31985L15.6793 4.0336C15.7736 4.06992 15.8546 4.13393 15.9118 4.21722C15.9689 4.3005 15.9995 4.39914 15.9995 4.50016C15.9995 4.60117 15.9689 4.69982 15.9118 4.7831C15.8546 4.86638 15.7736 4.9304 15.6793 4.96672L13.824 5.68047C13.7913 5.69303 13.7616 5.71231 13.7369 5.73707C13.7121 5.76184 13.6928 5.79153 13.6803 5.82422L12.9665 7.67953C12.9302 7.77387 12.8663 7.855 12.783 7.91224C12.6997 7.96947 12.601 8.00013 12.4999 8.00016Z" fill="#FFBF66"/>
</g>
<defs>
<clipPath id="clip0_1_2040">
<rect width="16" height="16" fill="white"/>
</clipPath>
</defs>
</svg>
