<svg width="500" height="220" viewBox="0 0 500 220" fill="none" xmlns="http://www.w3.org/2000/svg">
<rect x="0.5" y="0.5" width="499" height="219" rx="23.5" fill="#F4F4F4" fill-opacity="0.24"/>
<rect x="0.5" y="0.5" width="499" height="219" rx="23.5" stroke="#E1D1FA"/>
<g filter="url(#filter0_d_1_9317)">
<rect x="40" y="40" width="420" height="56" rx="28" fill="white" shape-rendering="crispEdges"/>
<rect x="40.5" y="40.5" width="419" height="55" rx="27.5" stroke="#A97DF5" shape-rendering="crispEdges"/>
<path d="M58.8409 62.3636V74H57.142V62.3636H58.8409ZM63.6662 74.1932C63.1132 74.1932 62.6132 74.0909 62.1662 73.8864C61.7192 73.678 61.3651 73.3769 61.1037 72.983C60.8461 72.589 60.7173 72.1061 60.7173 71.5341C60.7173 71.0417 60.812 70.6364 61.0014 70.3182C61.1908 70 61.4465 69.7481 61.7685 69.5625C62.0904 69.3769 62.4503 69.2367 62.848 69.142C63.2457 69.0473 63.651 68.9754 64.0639 68.9261C64.5866 68.8655 65.0109 68.8163 65.3366 68.7784C65.6624 68.7367 65.8991 68.6705 66.0469 68.5795C66.1946 68.4886 66.2685 68.3409 66.2685 68.1364V68.0966C66.2685 67.6004 66.1283 67.2159 65.848 66.9432C65.5715 66.6705 65.1586 66.5341 64.6094 66.5341C64.0374 66.5341 63.5866 66.661 63.2571 66.9148C62.9313 67.1648 62.706 67.4432 62.581 67.75L60.9844 67.3864C61.1738 66.8561 61.4503 66.428 61.8139 66.1023C62.1813 65.7727 62.6037 65.5341 63.081 65.3864C63.5582 65.2348 64.0601 65.1591 64.5866 65.1591C64.9351 65.1591 65.3045 65.2008 65.6946 65.2841C66.0885 65.3636 66.456 65.5114 66.7969 65.7273C67.1416 65.9432 67.4238 66.2519 67.6435 66.6534C67.8632 67.0511 67.973 67.5682 67.973 68.2045V74H66.3139V72.8068H66.2457C66.1359 73.0265 65.9711 73.2424 65.7514 73.4545C65.5317 73.6667 65.2495 73.8428 64.9048 73.983C64.5601 74.1231 64.1473 74.1932 63.6662 74.1932ZM64.0355 72.8295C64.5052 72.8295 64.9067 72.7367 65.2401 72.5511C65.5772 72.3655 65.8329 72.1231 66.0071 71.8239C66.1851 71.5208 66.2741 71.197 66.2741 70.8523V69.7273C66.2135 69.7879 66.0961 69.8447 65.9219 69.8977C65.7514 69.947 65.5563 69.9905 65.3366 70.0284C65.117 70.0625 64.9029 70.0947 64.6946 70.125C64.4863 70.1515 64.312 70.1742 64.1719 70.1932C63.8423 70.2348 63.5412 70.3049 63.2685 70.4034C62.9995 70.5019 62.7836 70.6439 62.6207 70.8295C62.4616 71.0114 62.3821 71.2538 62.3821 71.5568C62.3821 71.9773 62.5374 72.2955 62.848 72.5114C63.1586 72.7235 63.5545 72.8295 64.0355 72.8295ZM71.9347 68.8182V74H70.2358V65.2727H71.8665V66.6932H71.9744C72.1752 66.2311 72.4896 65.8598 72.9176 65.5795C73.3494 65.2992 73.893 65.1591 74.5483 65.1591C75.143 65.1591 75.6638 65.2841 76.1108 65.5341C76.5578 65.7803 76.9044 66.1477 77.1506 66.6364C77.3968 67.125 77.5199 67.7292 77.5199 68.4489V74H75.821V68.6534C75.821 68.0208 75.6563 67.5265 75.3267 67.1705C74.9972 66.8106 74.5445 66.6307 73.9688 66.6307C73.5748 66.6307 73.2244 66.7159 72.9176 66.8864C72.6146 67.0568 72.3741 67.3068 72.196 67.6364C72.0218 67.9621 71.9347 68.3561 71.9347 68.8182ZM83.5597 74.1761C82.6998 74.1761 81.9593 73.9924 81.3381 73.625C80.7206 73.2538 80.2434 72.733 79.9062 72.0625C79.5729 71.3883 79.4062 70.5985 79.4062 69.6932C79.4062 68.7992 79.5729 68.0114 79.9062 67.3295C80.2434 66.6477 80.7131 66.1155 81.3153 65.733C81.9214 65.3504 82.6297 65.1591 83.4403 65.1591C83.9328 65.1591 84.41 65.2405 84.8722 65.4034C85.3343 65.5663 85.7491 65.822 86.1165 66.1705C86.4839 66.5189 86.7737 66.9716 86.9858 67.5284C87.1979 68.0814 87.304 68.7538 87.304 69.5455V70.1477H80.3665V68.875H85.6392C85.6392 68.428 85.5483 68.0322 85.3665 67.6875C85.1847 67.339 84.929 67.0644 84.5994 66.8636C84.2737 66.6629 83.8911 66.5625 83.4517 66.5625C82.9744 66.5625 82.5578 66.6799 82.2017 66.9148C81.8494 67.1458 81.5767 67.4489 81.3835 67.8239C81.1941 68.1951 81.0994 68.5985 81.0994 69.0341V70.0284C81.0994 70.6117 81.2017 71.108 81.4062 71.517C81.6146 71.9261 81.9044 72.2386 82.2756 72.4545C82.6468 72.6667 83.0805 72.7727 83.5767 72.7727C83.8987 72.7727 84.1922 72.7273 84.4574 72.6364C84.7225 72.5417 84.9517 72.4015 85.1449 72.2159C85.3381 72.0303 85.4858 71.8011 85.5881 71.5284L87.196 71.8182C87.0672 72.2917 86.8362 72.7064 86.5028 73.0625C86.1733 73.4148 85.7585 73.6894 85.2585 73.8864C84.7623 74.0795 84.196 74.1761 83.5597 74.1761ZM90.3082 74.108C89.9976 74.108 89.7306 73.9981 89.5071 73.7784C89.2836 73.5549 89.1719 73.286 89.1719 72.9716C89.1719 72.661 89.2836 72.3958 89.5071 72.1761C89.7306 71.9527 89.9976 71.8409 90.3082 71.8409C90.6188 71.8409 90.8859 71.9527 91.1094 72.1761C91.3329 72.3958 91.4446 72.661 91.4446 72.9716C91.4446 73.1799 91.3916 73.3712 91.2855 73.5455C91.1832 73.7159 91.0469 73.8523 90.8764 73.9545C90.706 74.0568 90.5166 74.108 90.3082 74.108ZM96.2599 74.1932C95.7069 74.1932 95.2069 74.0909 94.7599 73.8864C94.313 73.678 93.9588 73.3769 93.6974 72.983C93.4399 72.589 93.3111 72.1061 93.3111 71.5341C93.3111 71.0417 93.4058 70.6364 93.5952 70.3182C93.7846 70 94.0402 69.7481 94.3622 69.5625C94.6842 69.3769 95.044 69.2367 95.4418 69.142C95.8395 69.0473 96.2448 68.9754 96.6577 68.9261C97.1804 68.8655 97.6046 68.8163 97.9304 68.7784C98.2562 68.7367 98.4929 68.6705 98.6406 68.5795C98.7884 68.4886 98.8622 68.3409 98.8622 68.1364V68.0966C98.8622 67.6004 98.7221 67.2159 98.4418 66.9432C98.1652 66.6705 97.7524 66.5341 97.2031 66.5341C96.6312 66.5341 96.1804 66.661 95.8509 66.9148C95.5251 67.1648 95.2997 67.4432 95.1747 67.75L93.5781 67.3864C93.7675 66.8561 94.044 66.428 94.4077 66.1023C94.7751 65.7727 95.1974 65.5341 95.6747 65.3864C96.152 65.2348 96.6539 65.1591 97.1804 65.1591C97.5289 65.1591 97.8982 65.2008 98.2884 65.2841C98.6823 65.3636 99.0497 65.5114 99.3906 65.7273C99.7353 65.9432 100.018 66.2519 100.237 66.6534C100.457 67.0511 100.567 67.5682 100.567 68.2045V74H98.9077V72.8068H98.8395C98.7296 73.0265 98.5649 73.2424 98.3452 73.4545C98.1255 73.6667 97.8433 73.8428 97.4986 73.983C97.1539 74.1231 96.741 74.1932 96.2599 74.1932ZM96.6293 72.8295C97.099 72.8295 97.5005 72.7367 97.8338 72.5511C98.1709 72.3655 98.4266 72.1231 98.6009 71.8239C98.7789 71.5208 98.8679 71.197 98.8679 70.8523V69.7273C98.8073 69.7879 98.6899 69.8447 98.5156 69.8977C98.3452 69.947 98.1501 69.9905 97.9304 70.0284C97.7107 70.0625 97.4967 70.0947 97.2884 70.125C97.08 70.1515 96.9058 70.1742 96.7656 70.1932C96.4361 70.2348 96.1349 70.3049 95.8622 70.4034C95.5933 70.5019 95.3774 70.6439 95.2145 70.8295C95.0554 71.0114 94.9759 71.2538 94.9759 71.5568C94.9759 71.9773 95.1312 72.2955 95.4418 72.5114C95.7524 72.7235 96.1482 72.8295 96.6293 72.8295ZM102.83 74V65.2727H104.528V74H102.83ZM103.688 63.9261C103.392 63.9261 103.138 63.8277 102.926 63.6307C102.718 63.4299 102.614 63.1913 102.614 62.9148C102.614 62.6345 102.718 62.3958 102.926 62.1989C103.138 61.9981 103.392 61.8977 103.688 61.8977C103.983 61.8977 104.235 61.9981 104.443 62.1989C104.655 62.3958 104.761 62.6345 104.761 62.9148C104.761 63.1913 104.655 63.4299 104.443 63.6307C104.235 63.8277 103.983 63.9261 103.688 63.9261Z" fill="black"/>
<path d="M109.172 58.6136V77.75H107.649V58.6136H109.172Z" fill="#A97DF5"/>
<path d="M357.25 73.25L346.75 62.75M357.25 62.75L346.75 73.25" stroke="black" stroke-width="1.5" stroke-linecap="round" stroke-linejoin="round"/>
<rect x="372" y="48" width="80" height="40" rx="20" fill="#A97DF5"/>
<path d="M394.672 65.4929C394.619 65.0223 394.4 64.6577 394.016 64.3991C393.631 64.1373 393.147 64.0064 392.564 64.0064C392.146 64.0064 391.785 64.0727 391.48 64.2053C391.175 64.3345 390.938 64.5135 390.769 64.7422C390.603 64.9676 390.521 65.2244 390.521 65.5128C390.521 65.7547 390.577 65.9635 390.69 66.1392C390.806 66.3149 390.956 66.4624 391.142 66.5817C391.331 66.6977 391.533 66.7955 391.749 66.875C391.964 66.9512 392.171 67.0142 392.37 67.0639L393.364 67.3224C393.689 67.402 394.022 67.5097 394.364 67.6456C394.705 67.7815 395.022 67.9605 395.313 68.1825C395.605 68.4046 395.84 68.6797 396.019 69.0078C396.201 69.3359 396.293 69.7287 396.293 70.1861C396.293 70.7628 396.143 71.2749 395.845 71.7223C395.55 72.1697 395.121 72.5227 394.558 72.7812C393.997 73.0398 393.32 73.169 392.524 73.169C391.762 73.169 391.102 73.0481 390.545 72.8061C389.989 72.5642 389.553 72.2211 389.238 71.777C388.923 71.3295 388.749 70.7992 388.716 70.1861H390.257C390.287 70.554 390.406 70.8606 390.615 71.1058C390.827 71.3478 391.097 71.5284 391.425 71.6477C391.757 71.7637 392.12 71.8217 392.514 71.8217C392.948 71.8217 393.335 71.7538 393.673 71.6179C394.014 71.4787 394.282 71.2865 394.478 71.0412C394.674 70.7926 394.771 70.5026 394.771 70.1712C394.771 69.8696 394.685 69.6226 394.513 69.4304C394.344 69.2382 394.113 69.0791 393.822 68.9531C393.533 68.8272 393.207 68.7161 392.842 68.62L391.639 68.2919C390.824 68.0698 390.178 67.7434 389.7 67.3125C389.226 66.8816 388.989 66.3116 388.989 65.6023C388.989 65.0156 389.148 64.5036 389.467 64.0661C389.785 63.6286 390.216 63.2888 390.759 63.0469C391.303 62.8016 391.916 62.679 392.599 62.679C393.288 62.679 393.896 62.8 394.423 63.0419C394.954 63.2839 395.371 63.617 395.676 64.0412C395.981 64.4621 396.14 64.946 396.153 65.4929H394.672ZM402.846 69.8331V65.3636H404.338V73H402.876V71.6776H402.797C402.621 72.0852 402.339 72.425 401.952 72.6967C401.567 72.9652 401.088 73.0994 400.515 73.0994C400.024 73.0994 399.59 72.9917 399.212 72.7763C398.838 72.5575 398.543 72.2344 398.327 71.8068C398.115 71.3793 398.009 70.8506 398.009 70.2209V65.3636H399.496V70.0419C399.496 70.5623 399.64 70.9766 399.928 71.2848C400.216 71.593 400.591 71.7472 401.052 71.7472C401.33 71.7472 401.607 71.6776 401.882 71.5384C402.16 71.3991 402.391 71.1887 402.573 70.907C402.759 70.6252 402.85 70.2673 402.846 69.8331ZM406.455 73V62.8182H407.941V66.6016H408.031C408.117 66.4425 408.241 66.2585 408.403 66.0497C408.566 65.8409 408.791 65.6586 409.08 65.5028C409.368 65.3438 409.749 65.2642 410.223 65.2642C410.839 65.2642 411.39 65.42 411.874 65.7315C412.357 66.0431 412.737 66.4922 413.012 67.0788C413.29 67.6655 413.43 68.3714 413.43 69.1967C413.43 70.022 413.292 70.7296 413.017 71.3196C412.742 71.9062 412.364 72.3587 411.884 72.6768C411.403 72.9917 410.854 73.1491 410.238 73.1491C409.774 73.1491 409.394 73.0713 409.099 72.9155C408.808 72.7597 408.579 72.5774 408.413 72.3686C408.248 72.1598 408.12 71.9742 408.031 71.8118H407.906V73H406.455ZM407.911 69.1818C407.911 69.7187 407.989 70.1894 408.145 70.5938C408.301 70.9981 408.526 71.3146 408.821 71.5433C409.116 71.7687 409.477 71.8814 409.905 71.8814C410.349 71.8814 410.72 71.7637 411.018 71.5284C411.317 71.2898 411.542 70.9666 411.695 70.5589C411.85 70.1513 411.928 69.6922 411.928 69.1818C411.928 68.678 411.852 68.2256 411.7 67.8246C411.55 67.4235 411.325 67.107 411.023 66.875C410.725 66.643 410.352 66.527 409.905 66.527C409.474 66.527 409.109 66.638 408.811 66.8601C408.516 67.0821 408.292 67.392 408.14 67.7898C407.987 68.1875 407.911 68.6515 407.911 69.1818ZM415.099 73V65.3636H416.526V66.6065H416.62C416.779 66.1856 417.039 65.8575 417.401 65.6222C417.762 65.3835 418.195 65.2642 418.698 65.2642C419.209 65.2642 419.636 65.3835 419.981 65.6222C420.329 65.8608 420.586 66.1889 420.752 66.6065H420.831C421.013 66.1989 421.303 65.8741 421.701 65.6321C422.099 65.3868 422.573 65.2642 423.123 65.2642C423.816 65.2642 424.381 65.4813 424.818 65.9155C425.259 66.3497 425.48 67.0043 425.48 67.8793V73H423.993V68.0185C423.993 67.5014 423.852 67.1269 423.57 66.8949C423.289 66.6629 422.952 66.5469 422.561 66.5469C422.077 66.5469 421.701 66.696 421.433 66.9943C421.164 67.2893 421.03 67.6688 421.03 68.1328V73H419.548V67.924C419.548 67.5097 419.419 67.1766 419.161 66.9247C418.902 66.6728 418.566 66.5469 418.151 66.5469C417.87 66.5469 417.61 66.6214 417.371 66.7706C417.136 66.9164 416.945 67.1203 416.799 67.3821C416.657 67.6439 416.585 67.9472 416.585 68.2919V73H415.099ZM427.472 73V65.3636H428.958V73H427.472ZM428.223 64.1854C427.964 64.1854 427.742 64.0992 427.556 63.9268C427.374 63.7512 427.283 63.5424 427.283 63.3004C427.283 63.0552 427.374 62.8464 427.556 62.674C427.742 62.4983 427.964 62.4105 428.223 62.4105C428.481 62.4105 428.702 62.4983 428.884 62.674C429.069 62.8464 429.162 63.0552 429.162 63.3004C429.162 63.5424 429.069 63.7512 428.884 63.9268C428.702 64.0992 428.481 64.1854 428.223 64.1854ZM434.523 65.3636V66.5568H430.352V65.3636H434.523ZM431.47 63.5341H432.957V70.7578C432.957 71.0462 433 71.2633 433.086 71.4091C433.172 71.5516 433.283 71.6494 433.419 71.7024C433.558 71.7521 433.709 71.777 433.872 71.777C433.991 71.777 434.095 71.7687 434.185 71.7521C434.274 71.7356 434.344 71.7223 434.394 71.7124L434.662 72.9403C434.576 72.9735 434.453 73.0066 434.294 73.0398C434.135 73.0762 433.936 73.0961 433.698 73.0994C433.307 73.1061 432.942 73.0365 432.604 72.8906C432.266 72.7448 431.992 72.5194 431.784 72.2145C431.575 71.9096 431.47 71.5268 431.47 71.0661V63.5341Z" fill="white"/>
</g>
<path d="M185.354 130H184.43L187.101 122.727H188.01L190.68 130H189.757L187.584 123.878H187.527L185.354 130ZM185.695 127.159H189.416V127.94H185.695V127.159ZM194.058 130H191.813V122.727H194.157C194.863 122.727 195.466 122.873 195.968 123.164C196.47 123.453 196.855 123.868 197.122 124.411C197.39 124.95 197.524 125.597 197.524 126.349C197.524 127.107 197.389 127.759 197.119 128.306C196.849 128.851 196.456 129.27 195.94 129.563C195.424 129.854 194.796 130 194.058 130ZM192.694 129.219H194.001C194.602 129.219 195.1 129.103 195.496 128.871C195.891 128.639 196.186 128.308 196.38 127.88C196.574 127.451 196.671 126.941 196.671 126.349C196.671 125.762 196.575 125.257 196.384 124.833C196.192 124.407 195.905 124.08 195.524 123.853C195.143 123.623 194.668 123.509 194.1 123.509H192.694V129.219ZM199.881 122.727V130H199.001V122.727H199.881ZM207.414 122.727V130H206.562L202.599 124.29H202.528V130H201.647V122.727H202.5L206.477 128.452H206.548V122.727H207.414ZM214.091 130.114C213.58 130.114 213.14 129.993 212.77 129.751C212.401 129.51 212.117 129.177 211.918 128.754C211.719 128.33 211.62 127.846 211.62 127.301C211.62 126.747 211.722 126.258 211.925 125.835C212.131 125.408 212.418 125.076 212.785 124.837C213.154 124.595 213.585 124.474 214.077 124.474C214.461 124.474 214.806 124.545 215.114 124.688C215.422 124.83 215.674 125.028 215.87 125.284C216.067 125.54 216.189 125.838 216.236 126.179H215.398C215.334 125.93 215.192 125.71 214.972 125.518C214.754 125.324 214.461 125.227 214.091 125.227C213.765 125.227 213.478 125.312 213.232 125.483C212.988 125.651 212.798 125.889 212.66 126.197C212.525 126.502 212.458 126.861 212.458 127.273C212.458 127.694 212.524 128.061 212.657 128.374C212.792 128.686 212.981 128.929 213.225 129.102C213.471 129.274 213.76 129.361 214.091 129.361C214.309 129.361 214.507 129.323 214.684 129.247C214.862 129.171 215.012 129.062 215.135 128.92C215.258 128.778 215.346 128.608 215.398 128.409H216.236C216.189 128.731 216.072 129.021 215.885 129.279C215.7 129.535 215.455 129.738 215.15 129.89C214.847 130.039 214.494 130.114 214.091 130.114ZM219.066 130.128C218.721 130.128 218.407 130.063 218.125 129.933C217.844 129.8 217.62 129.609 217.454 129.361C217.289 129.11 217.206 128.807 217.206 128.452C217.206 128.139 217.267 127.886 217.39 127.692C217.513 127.495 217.678 127.341 217.884 127.23C218.09 127.119 218.317 127.036 218.566 126.982C218.817 126.925 219.069 126.88 219.322 126.847C219.654 126.804 219.922 126.772 220.128 126.751C220.337 126.727 220.488 126.688 220.583 126.634C220.68 126.579 220.728 126.484 220.728 126.349V126.321C220.728 125.971 220.633 125.698 220.441 125.504C220.251 125.31 219.964 125.213 219.578 125.213C219.178 125.213 218.864 125.301 218.637 125.476C218.41 125.651 218.25 125.838 218.157 126.037L217.362 125.753C217.504 125.421 217.693 125.163 217.93 124.979C218.169 124.792 218.43 124.661 218.711 124.588C218.995 124.512 219.275 124.474 219.549 124.474C219.725 124.474 219.926 124.496 220.153 124.538C220.383 124.579 220.604 124.663 220.817 124.79C221.033 124.918 221.211 125.111 221.353 125.369C221.495 125.627 221.566 125.973 221.566 126.406V130H220.728V129.261H220.686C220.629 129.38 220.534 129.506 220.402 129.641C220.269 129.776 220.093 129.891 219.873 129.986C219.652 130.08 219.384 130.128 219.066 130.128ZM219.194 129.375C219.526 129.375 219.805 129.31 220.032 129.18C220.262 129.049 220.435 128.881 220.551 128.675C220.669 128.469 220.728 128.253 220.728 128.026V127.259C220.693 127.301 220.615 127.34 220.494 127.376C220.376 127.409 220.238 127.438 220.082 127.464C219.928 127.488 219.778 127.509 219.631 127.528C219.487 127.545 219.37 127.559 219.28 127.571C219.062 127.599 218.858 127.646 218.669 127.71C218.482 127.771 218.33 127.865 218.214 127.99C218.101 128.113 218.044 128.281 218.044 128.494C218.044 128.786 218.151 129.006 218.367 129.155C218.585 129.302 218.861 129.375 219.194 129.375ZM223.934 126.719V130H223.096V124.545H223.906V125.398H223.977C224.105 125.121 224.299 124.898 224.559 124.73C224.82 124.56 225.156 124.474 225.568 124.474C225.937 124.474 226.26 124.55 226.537 124.702C226.814 124.851 227.03 125.078 227.184 125.384C227.337 125.687 227.414 126.07 227.414 126.534V130H226.576V126.591C226.576 126.162 226.465 125.829 226.242 125.589C226.02 125.348 225.715 125.227 225.326 125.227C225.059 125.227 224.82 125.285 224.609 125.401C224.401 125.517 224.236 125.687 224.115 125.909C223.995 126.132 223.934 126.402 223.934 126.719ZM233.363 130.128C233.018 130.128 232.704 130.063 232.422 129.933C232.141 129.8 231.917 129.609 231.751 129.361C231.585 129.11 231.503 128.807 231.503 128.452C231.503 128.139 231.564 127.886 231.687 127.692C231.81 127.495 231.975 127.341 232.181 127.23C232.387 127.119 232.614 127.036 232.863 126.982C233.114 126.925 233.366 126.88 233.619 126.847C233.95 126.804 234.219 126.772 234.425 126.751C234.633 126.727 234.785 126.688 234.88 126.634C234.977 126.579 235.025 126.484 235.025 126.349V126.321C235.025 125.971 234.929 125.698 234.738 125.504C234.548 125.31 234.261 125.213 233.875 125.213C233.475 125.213 233.161 125.301 232.934 125.476C232.706 125.651 232.547 125.838 232.454 126.037L231.659 125.753C231.801 125.421 231.99 125.163 232.227 124.979C232.466 124.792 232.727 124.661 233.008 124.588C233.292 124.512 233.572 124.474 233.846 124.474C234.022 124.474 234.223 124.496 234.45 124.538C234.68 124.579 234.901 124.663 235.114 124.79C235.33 124.918 235.508 125.111 235.65 125.369C235.792 125.627 235.863 125.973 235.863 126.406V130H235.025V129.261H234.983C234.926 129.38 234.831 129.506 234.699 129.641C234.566 129.776 234.39 129.891 234.169 129.986C233.949 130.08 233.681 130.128 233.363 130.128ZM233.491 129.375C233.823 129.375 234.102 129.31 234.329 129.18C234.559 129.049 234.732 128.881 234.848 128.675C234.966 128.469 235.025 128.253 235.025 128.026V127.259C234.99 127.301 234.912 127.34 234.791 127.376C234.673 127.409 234.535 127.438 234.379 127.464C234.225 127.488 234.075 127.509 233.928 127.528C233.784 127.545 233.666 127.559 233.576 127.571C233.359 127.599 233.155 127.646 232.966 127.71C232.779 127.771 232.627 127.865 232.511 127.99C232.397 128.113 232.341 128.281 232.341 128.494C232.341 128.786 232.448 129.006 232.664 129.155C232.882 129.302 233.157 129.375 233.491 129.375ZM238.231 126.719V130H237.393V124.545H238.203V125.398H238.274C238.402 125.121 238.596 124.898 238.856 124.73C239.117 124.56 239.453 124.474 239.865 124.474C240.234 124.474 240.557 124.55 240.834 124.702C241.111 124.851 241.326 125.078 241.48 125.384C241.634 125.687 241.711 126.07 241.711 126.534V130H240.873V126.591C240.873 126.162 240.762 125.829 240.539 125.589C240.317 125.348 240.011 125.227 239.623 125.227C239.356 125.227 239.117 125.285 238.906 125.401C238.697 125.517 238.533 125.687 238.412 125.909C238.291 126.132 238.231 126.402 238.231 126.719ZM244.848 130.128C244.502 130.128 244.188 130.063 243.907 129.933C243.625 129.8 243.401 129.609 243.236 129.361C243.07 129.11 242.987 128.807 242.987 128.452C242.987 128.139 243.049 127.886 243.172 127.692C243.295 127.495 243.459 127.341 243.665 127.23C243.871 127.119 244.098 127.036 244.347 126.982C244.598 126.925 244.85 126.88 245.103 126.847C245.435 126.804 245.704 126.772 245.91 126.751C246.118 126.727 246.269 126.688 246.364 126.634C246.461 126.579 246.51 126.484 246.51 126.349V126.321C246.51 125.971 246.414 125.698 246.222 125.504C246.033 125.31 245.745 125.213 245.359 125.213C244.959 125.213 244.645 125.301 244.418 125.476C244.191 125.651 244.031 125.838 243.939 126.037L243.143 125.753C243.285 125.421 243.475 125.163 243.711 124.979C243.95 124.792 244.211 124.661 244.493 124.588C244.777 124.512 245.056 124.474 245.331 124.474C245.506 124.474 245.707 124.496 245.934 124.538C246.164 124.579 246.385 124.663 246.598 124.79C246.814 124.918 246.993 125.111 247.135 125.369C247.277 125.627 247.348 125.973 247.348 126.406V130H246.51V129.261H246.467C246.41 129.38 246.316 129.506 246.183 129.641C246.05 129.776 245.874 129.891 245.654 129.986C245.434 130.08 245.165 130.128 244.848 130.128ZM244.976 129.375C245.307 129.375 245.586 129.31 245.814 129.18C246.043 129.049 246.216 128.881 246.332 128.675C246.45 128.469 246.51 128.253 246.51 128.026V127.259C246.474 127.301 246.396 127.34 246.275 127.376C246.157 127.409 246.02 127.438 245.863 127.464C245.709 127.488 245.559 127.509 245.412 127.528C245.268 127.545 245.151 127.559 245.061 127.571C244.843 127.599 244.639 127.646 244.45 127.71C244.263 127.771 244.111 127.865 243.995 127.99C243.882 128.113 243.825 128.281 243.825 128.494C243.825 128.786 243.933 129.006 244.148 129.155C244.366 129.302 244.642 129.375 244.976 129.375ZM249.715 122.727V130H248.877V122.727H249.715ZM251.79 132.045C251.648 132.045 251.522 132.034 251.41 132.01C251.299 131.989 251.222 131.967 251.179 131.946L251.392 131.207C251.596 131.259 251.776 131.278 251.932 131.264C252.089 131.25 252.227 131.18 252.348 131.055C252.471 130.932 252.583 130.732 252.685 130.455L252.841 130.028L250.824 124.545H251.733L253.239 128.892H253.296L254.802 124.545H255.711L253.395 130.795C253.291 131.077 253.162 131.31 253.008 131.495C252.854 131.682 252.676 131.821 252.472 131.911C252.271 132 252.044 132.045 251.79 132.045ZM256.661 130V129.361L259.757 125.384V125.327H256.76V124.545H260.837V125.213L257.825 129.162V129.219H260.936V130H256.661ZM264.358 130.114C263.832 130.114 263.379 129.998 262.998 129.766C262.619 129.531 262.326 129.205 262.12 128.786C261.917 128.364 261.815 127.874 261.815 127.315C261.815 126.757 261.917 126.264 262.12 125.838C262.326 125.41 262.613 125.076 262.98 124.837C263.349 124.595 263.78 124.474 264.272 124.474C264.557 124.474 264.837 124.522 265.114 124.616C265.391 124.711 265.643 124.865 265.87 125.078C266.098 125.289 266.279 125.568 266.414 125.916C266.549 126.264 266.616 126.693 266.616 127.202V127.557H262.412V126.832H265.764C265.764 126.525 265.702 126.25 265.579 126.009C265.459 125.767 265.286 125.576 265.061 125.437C264.838 125.297 264.575 125.227 264.272 125.227C263.939 125.227 263.65 125.31 263.406 125.476C263.165 125.639 262.979 125.852 262.848 126.115C262.718 126.378 262.653 126.66 262.653 126.96V127.443C262.653 127.855 262.724 128.204 262.866 128.491C263.011 128.775 263.211 128.991 263.466 129.141C263.722 129.287 264.019 129.361 264.358 129.361C264.578 129.361 264.777 129.33 264.954 129.268C265.134 129.205 265.289 129.11 265.419 128.984C265.55 128.857 265.65 128.698 265.721 128.509L266.531 128.736C266.446 129.01 266.303 129.252 266.101 129.46C265.9 129.666 265.651 129.827 265.356 129.943C265.06 130.057 264.727 130.114 264.358 130.114ZM271.542 122.727V130H270.704V122.727H271.542ZM273.077 130V124.545H273.915V130H273.077ZM273.503 123.636C273.339 123.636 273.199 123.581 273.08 123.469C272.964 123.358 272.906 123.224 272.906 123.068C272.906 122.912 272.964 122.778 273.08 122.667C273.199 122.556 273.339 122.5 273.503 122.5C273.666 122.5 273.806 122.556 273.922 122.667C274.04 122.778 274.099 122.912 274.099 123.068C274.099 123.224 274.04 123.358 273.922 123.469C273.806 123.581 273.666 123.636 273.503 123.636ZM276.288 126.719V130H275.45V124.545H276.259V125.398H276.33C276.458 125.121 276.652 124.898 276.913 124.73C277.173 124.56 277.509 124.474 277.921 124.474C278.291 124.474 278.614 124.55 278.891 124.702C279.168 124.851 279.383 125.078 279.537 125.384C279.691 125.687 279.768 126.07 279.768 126.534V130H278.93V126.591C278.93 126.162 278.819 125.829 278.596 125.589C278.373 125.348 278.068 125.227 277.68 125.227C277.412 125.227 277.173 125.285 276.962 125.401C276.754 125.517 276.59 125.687 276.469 125.909C276.348 126.132 276.288 126.402 276.288 126.719ZM282.081 128.011L282.066 126.974H282.237L284.623 124.545H285.66L283.117 127.116H283.046L282.081 128.011ZM281.299 130V122.727H282.137V130H281.299ZM284.765 130L282.634 127.301L283.231 126.719L285.831 130H284.765ZM290.602 125.767L289.85 125.98C289.802 125.855 289.732 125.733 289.64 125.614C289.55 125.494 289.427 125.394 289.271 125.316C289.114 125.238 288.914 125.199 288.671 125.199C288.337 125.199 288.059 125.276 287.836 125.43C287.616 125.581 287.506 125.774 287.506 126.009C287.506 126.217 287.582 126.381 287.733 126.502C287.885 126.623 288.121 126.723 288.443 126.804L289.253 127.003C289.741 127.121 290.104 127.302 290.343 127.546C290.582 127.788 290.702 128.099 290.702 128.48C290.702 128.793 290.612 129.072 290.432 129.318C290.254 129.564 290.006 129.759 289.686 129.901C289.367 130.043 288.995 130.114 288.571 130.114C288.015 130.114 287.554 129.993 287.19 129.751C286.825 129.51 286.594 129.157 286.497 128.693L287.293 128.494C287.368 128.788 287.512 129.008 287.722 129.155C287.935 129.302 288.214 129.375 288.557 129.375C288.948 129.375 289.258 129.292 289.487 129.126C289.719 128.958 289.835 128.757 289.835 128.523C289.835 128.333 289.769 128.175 289.636 128.047C289.504 127.917 289.3 127.82 289.026 127.756L288.117 127.543C287.617 127.424 287.25 127.241 287.016 126.992C286.784 126.741 286.668 126.428 286.668 126.051C286.668 125.743 286.754 125.471 286.927 125.234C287.102 124.998 287.34 124.812 287.641 124.677C287.944 124.542 288.287 124.474 288.671 124.474C289.21 124.474 289.634 124.593 289.942 124.83C290.252 125.066 290.472 125.379 290.602 125.767ZM297.205 124.545V125.256H294.264V124.545H297.205ZM295.145 130V123.793C295.145 123.48 295.219 123.22 295.365 123.011C295.512 122.803 295.703 122.647 295.937 122.543C296.171 122.438 296.419 122.386 296.679 122.386C296.885 122.386 297.053 122.403 297.184 122.436C297.314 122.469 297.411 122.5 297.475 122.528L297.233 123.253C297.191 123.239 297.131 123.221 297.056 123.2C296.982 123.178 296.885 123.168 296.764 123.168C296.487 123.168 296.287 123.237 296.164 123.377C296.044 123.517 295.983 123.722 295.983 123.991V130H295.145ZM298.379 130V124.545H299.189V125.369H299.246C299.345 125.099 299.525 124.88 299.786 124.712C300.046 124.544 300.34 124.46 300.666 124.46C300.728 124.46 300.805 124.461 300.897 124.464C300.989 124.466 301.059 124.47 301.107 124.474V125.327C301.078 125.32 301.013 125.309 300.911 125.295C300.812 125.278 300.707 125.27 300.595 125.27C300.33 125.27 300.093 125.326 299.885 125.437C299.679 125.546 299.516 125.697 299.395 125.891C299.277 126.083 299.217 126.302 299.217 126.548V130H298.379ZM304.15 130.114C303.658 130.114 303.225 129.996 302.854 129.762C302.484 129.528 302.196 129.2 301.987 128.778C301.781 128.357 301.678 127.865 301.678 127.301C301.678 126.733 301.781 126.237 301.987 125.813C302.196 125.389 302.484 125.06 302.854 124.826C303.225 124.592 303.658 124.474 304.15 124.474C304.642 124.474 305.073 124.592 305.443 124.826C305.814 125.06 306.103 125.389 306.309 125.813C306.517 126.237 306.622 126.733 306.622 127.301C306.622 127.865 306.517 128.357 306.309 128.778C306.103 129.2 305.814 129.528 305.443 129.762C305.073 129.996 304.642 130.114 304.15 130.114ZM304.15 129.361C304.524 129.361 304.832 129.265 305.073 129.073C305.315 128.881 305.493 128.629 305.609 128.317C305.725 128.004 305.783 127.666 305.783 127.301C305.783 126.937 305.725 126.597 305.609 126.282C305.493 125.967 305.315 125.713 305.073 125.518C304.832 125.324 304.524 125.227 304.15 125.227C303.776 125.227 303.468 125.324 303.227 125.518C302.985 125.713 302.806 125.967 302.69 126.282C302.574 126.597 302.516 126.937 302.516 127.301C302.516 127.666 302.574 128.004 302.69 128.317C302.806 128.629 302.985 128.881 303.227 129.073C303.468 129.265 303.776 129.361 304.15 129.361ZM307.901 130V124.545H308.71V125.398H308.782C308.895 125.107 309.079 124.88 309.332 124.719C309.585 124.556 309.889 124.474 310.245 124.474C310.604 124.474 310.904 124.556 311.143 124.719C311.384 124.88 311.573 125.107 311.708 125.398H311.764C311.904 125.116 312.114 124.892 312.393 124.727C312.672 124.558 313.007 124.474 313.398 124.474C313.886 124.474 314.285 124.627 314.595 124.933C314.905 125.236 315.06 125.708 315.06 126.349V130H314.222V126.349C314.222 125.947 314.112 125.659 313.892 125.487C313.671 125.314 313.412 125.227 313.114 125.227C312.73 125.227 312.433 125.343 312.223 125.575C312.012 125.805 311.907 126.096 311.907 126.449V130H311.054V126.264C311.054 125.954 310.954 125.704 310.752 125.515C310.551 125.323 310.292 125.227 309.975 125.227C309.757 125.227 309.553 125.285 309.364 125.401C309.177 125.517 309.025 125.678 308.909 125.884C308.796 126.088 308.739 126.323 308.739 126.591V130H307.901Z" fill="#4D4D4D"/>
<rect x="23" y="148" width="32" height="32" rx="16" fill="#FAFAFA"/>
<path d="M38.6141 156C34.0743 156 31 158.65 31 163.552V164.552C31 169.654 33.8453 172 38.6141 172C43.1797 172 46.2381 169.61 46.2381 164.554V164H38.6141V156Z" fill="#0161FE"/>
<path d="M46.2273 164V156H38.6133L46.2273 164Z" fill="black"/>
<path d="M66.9512 168H64.258V159.273H67.0705C67.9171 159.273 68.6415 159.447 69.2438 159.797C69.8461 160.143 70.3077 160.642 70.6287 161.293C70.9498 161.94 71.1103 162.716 71.1103 163.619C71.1103 164.528 70.9483 165.311 70.6245 165.967C70.3006 166.621 69.829 167.124 69.2097 167.476C68.5904 167.825 67.8375 168 66.9512 168ZM65.3148 167.062H66.883C67.6046 167.062 68.2026 166.923 68.677 166.645C69.1515 166.366 69.5051 165.97 69.7381 165.456C69.9711 164.942 70.0875 164.33 70.0875 163.619C70.0875 162.915 69.9725 162.308 69.7424 161.8C69.5123 161.288 69.1685 160.896 68.7111 160.624C68.2537 160.348 67.6841 160.21 67.0023 160.21H65.3148V167.062ZM75.4057 168.136C74.8148 168.136 74.2963 167.996 73.8503 167.714C73.4071 167.433 73.0605 167.04 72.8105 166.534C72.5634 166.028 72.4398 165.437 72.4398 164.761C72.4398 164.08 72.5634 163.484 72.8105 162.976C73.0605 162.467 73.4071 162.072 73.8503 161.791C74.2963 161.51 74.8148 161.369 75.4057 161.369C75.9966 161.369 76.5137 161.51 76.9569 161.791C77.4029 162.072 77.7495 162.467 77.9966 162.976C78.2466 163.484 78.3716 164.08 78.3716 164.761C78.3716 165.437 78.2466 166.028 77.9966 166.534C77.7495 167.04 77.4029 167.433 76.9569 167.714C76.5137 167.996 75.9966 168.136 75.4057 168.136ZM75.4057 167.233C75.8546 167.233 76.2239 167.118 76.5137 166.888C76.8034 166.658 77.0179 166.355 77.1571 165.98C77.2963 165.605 77.3659 165.199 77.3659 164.761C77.3659 164.324 77.2963 163.916 77.1571 163.538C77.0179 163.161 76.8034 162.855 76.5137 162.622C76.2239 162.389 75.8546 162.273 75.4057 162.273C74.9569 162.273 74.5875 162.389 74.2978 162.622C74.008 162.855 73.7935 163.161 73.6543 163.538C73.5151 163.916 73.4455 164.324 73.4455 164.761C73.4455 165.199 73.5151 165.605 73.6543 165.98C73.7935 166.355 74.008 166.658 74.2978 166.888C74.5875 167.118 74.9569 167.233 75.4057 167.233ZM82.5659 168.136C81.9522 168.136 81.4238 167.991 80.9806 167.702C80.5375 167.412 80.1966 167.013 79.9579 166.504C79.7193 165.996 79.6 165.415 79.6 164.761C79.6 164.097 79.7221 163.51 79.9664 163.001C80.2136 162.49 80.5574 162.091 80.9977 161.804C81.4409 161.514 81.9579 161.369 82.5488 161.369C83.0091 161.369 83.4238 161.455 83.7931 161.625C84.1625 161.795 84.465 162.034 84.7008 162.341C84.9366 162.648 85.0829 163.006 85.1397 163.415H84.1341C84.0574 163.116 83.8869 162.852 83.6227 162.622C83.3613 162.389 83.0091 162.273 82.5659 162.273C82.1738 162.273 81.8301 162.375 81.5346 162.58C81.242 162.781 81.0133 163.067 80.8485 163.436C80.6866 163.803 80.6056 164.233 80.6056 164.727C80.6056 165.233 80.6852 165.673 80.8443 166.048C81.0062 166.423 81.2335 166.714 81.5261 166.922C81.8216 167.129 82.1681 167.233 82.5659 167.233C82.8272 167.233 83.0645 167.188 83.2775 167.097C83.4906 167.006 83.671 166.875 83.8187 166.705C83.9664 166.534 84.0716 166.33 84.1341 166.091H85.1397C85.0829 166.477 84.9423 166.825 84.7179 167.135C84.4963 167.442 84.2022 167.686 83.8358 167.868C83.4721 168.047 83.0488 168.136 82.5659 168.136ZM91.519 161.455C91.4679 161.023 91.2605 160.688 90.8968 160.449C90.5332 160.21 90.0872 160.091 89.5588 160.091C89.1724 160.091 88.8343 160.153 88.5446 160.278C88.2576 160.403 88.0332 160.575 87.8713 160.794C87.7122 161.013 87.6326 161.261 87.6326 161.54C87.6326 161.773 87.688 161.973 87.7988 162.141C87.9125 162.305 88.0574 162.443 88.2335 162.554C88.4096 162.662 88.5943 162.751 88.7875 162.822C88.9806 162.891 89.1582 162.946 89.3201 162.989L90.2065 163.227C90.4338 163.287 90.6866 163.369 90.965 163.474C91.2463 163.58 91.5147 163.723 91.7704 163.905C92.0289 164.084 92.242 164.314 92.4096 164.595C92.5772 164.876 92.661 165.222 92.661 165.631C92.661 166.102 92.5375 166.528 92.2903 166.909C92.046 167.29 91.688 167.592 91.2164 167.817C90.7477 168.041 90.1781 168.153 89.5076 168.153C88.8826 168.153 88.3414 168.053 87.8841 167.851C87.4295 167.649 87.0716 167.368 86.8102 167.007C86.5517 166.646 86.4054 166.227 86.3713 165.75H87.4622C87.4906 166.08 87.6014 166.352 87.7946 166.568C87.9906 166.781 88.2377 166.94 88.536 167.045C88.8372 167.148 89.161 167.199 89.5076 167.199C89.911 167.199 90.2733 167.134 90.5943 167.003C90.9153 166.869 91.1696 166.685 91.3571 166.449C91.5446 166.21 91.6383 165.932 91.6383 165.614C91.6383 165.324 91.5574 165.088 91.3954 164.906C91.2335 164.724 91.0204 164.577 90.7562 164.463C90.492 164.349 90.2065 164.25 89.8997 164.165L88.8258 163.858C88.144 163.662 87.6042 163.382 87.2065 163.018C86.8088 162.655 86.6099 162.179 86.6099 161.591C86.6099 161.102 86.742 160.676 87.0062 160.312C87.2733 159.946 87.6312 159.662 88.0801 159.46C88.5318 159.256 89.036 159.153 89.5929 159.153C90.1554 159.153 90.6554 159.254 91.0929 159.456C91.5304 159.655 91.877 159.928 92.1326 160.274C92.3912 160.621 92.5275 161.014 92.5417 161.455H91.519ZM97.0066 168.136C96.3759 168.136 95.8319 167.997 95.3745 167.719C94.9199 167.438 94.5691 167.045 94.3219 166.543C94.0776 166.037 93.9554 165.449 93.9554 164.778C93.9554 164.108 94.0776 163.517 94.3219 163.006C94.5691 162.491 94.9128 162.091 95.3532 161.804C95.7963 161.514 96.3134 161.369 96.9043 161.369C97.2452 161.369 97.5819 161.426 97.9142 161.54C98.2466 161.653 98.5492 161.838 98.8219 162.094C99.0946 162.347 99.312 162.682 99.4739 163.099C99.6358 163.517 99.7168 164.031 99.7168 164.642V165.068H94.6713V164.199H98.6941C98.6941 163.83 98.6202 163.5 98.4725 163.21C98.3276 162.92 98.1202 162.692 97.8503 162.524C97.5833 162.357 97.2679 162.273 96.9043 162.273C96.5037 162.273 96.1571 162.372 95.8645 162.571C95.5748 162.767 95.3517 163.023 95.1955 163.338C95.0392 163.653 94.9611 163.991 94.9611 164.352V164.932C94.9611 165.426 95.0463 165.845 95.2168 166.189C95.3901 166.53 95.6301 166.79 95.937 166.969C96.2438 167.145 96.6003 167.233 97.0066 167.233C97.2708 167.233 97.5094 167.196 97.7225 167.122C97.9384 167.045 98.1245 166.932 98.2807 166.781C98.437 166.628 98.5577 166.437 98.6429 166.21L99.6145 166.483C99.5123 166.812 99.3404 167.102 99.0989 167.352C98.8574 167.599 98.5591 167.793 98.204 167.932C97.8489 168.068 97.4498 168.136 97.0066 168.136ZM102.252 164.062V168H101.247V161.455H102.218V162.477H102.303C102.457 162.145 102.69 161.878 103.002 161.676C103.315 161.472 103.718 161.369 104.213 161.369C104.656 161.369 105.044 161.46 105.376 161.642C105.708 161.821 105.967 162.094 106.151 162.46C106.336 162.824 106.428 163.284 106.428 163.841V168H105.423V163.909C105.423 163.395 105.289 162.994 105.022 162.707C104.755 162.418 104.389 162.273 103.923 162.273C103.602 162.273 103.315 162.342 103.062 162.482C102.812 162.621 102.615 162.824 102.47 163.091C102.325 163.358 102.252 163.682 102.252 164.062ZM110.738 168.136C110.192 168.136 109.711 167.999 109.293 167.723C108.876 167.445 108.549 167.053 108.313 166.547C108.077 166.038 107.959 165.438 107.959 164.744C107.959 164.057 108.077 163.46 108.313 162.955C108.549 162.449 108.877 162.058 109.297 161.783C109.718 161.507 110.204 161.369 110.755 161.369C111.181 161.369 111.518 161.44 111.765 161.582C112.015 161.722 112.205 161.881 112.336 162.06C112.469 162.236 112.573 162.381 112.647 162.494H112.732V159.273H113.738V168H112.766V166.994H112.647C112.573 167.114 112.468 167.264 112.331 167.446C112.195 167.625 112.001 167.786 111.748 167.928C111.495 168.067 111.158 168.136 110.738 168.136ZM110.874 167.233C111.278 167.233 111.618 167.128 111.897 166.918C112.175 166.705 112.387 166.411 112.532 166.036C112.677 165.658 112.749 165.222 112.749 164.727C112.749 164.239 112.678 163.811 112.536 163.445C112.394 163.075 112.184 162.788 111.905 162.584C111.627 162.376 111.283 162.273 110.874 162.273C110.448 162.273 110.093 162.382 109.809 162.601C109.528 162.817 109.316 163.111 109.174 163.483C109.035 163.852 108.965 164.267 108.965 164.727C108.965 165.193 109.036 165.616 109.178 165.997C109.323 166.375 109.536 166.676 109.817 166.901C110.101 167.122 110.454 167.233 110.874 167.233Z" fill="#1C1C1C"/>
<rect x="147" y="148" width="32" height="32" rx="16" fill="#FAFAFA"/>
<path d="M165.206 156.036C166.317 155.943 166.603 156.006 167.302 156.503L170.189 158.493C170.666 158.836 170.825 158.93 170.825 159.303V170.221C170.825 170.905 170.57 171.31 169.682 171.372L159.176 171.994C158.509 172.026 158.191 171.932 157.842 171.496L155.715 168.79C155.334 168.292 155.176 167.92 155.176 167.484V157.779C155.176 157.219 155.43 156.752 156.159 156.69L165.206 156.036ZM169.237 159.645L158.922 160.236C158.541 160.267 158.414 160.454 158.414 160.859V170.128C158.414 170.626 158.668 170.812 159.239 170.782L169.111 170.221C169.682 170.19 169.746 169.848 169.746 169.444V160.236C169.746 159.832 169.587 159.614 169.237 159.645ZM168.157 161.356C168.22 161.636 168.157 161.916 167.871 161.948L167.396 162.04V168.883C166.983 169.101 166.602 169.226 166.285 169.226C165.777 169.226 165.649 169.07 165.269 168.604L162.157 163.813V168.449L163.143 168.666C163.142 168.68 163.132 169.226 162.348 169.226L160.158 169.35C160.095 169.225 160.158 168.915 160.38 168.853L160.952 168.698V162.569L160.158 162.507C160.095 162.227 160.254 161.823 160.698 161.791L163.047 161.636L166.285 166.489V162.196L165.459 162.103C165.396 161.76 165.649 161.512 165.967 161.481L168.157 161.356ZM165.587 156.908L156.89 157.53C156.572 157.56 156.508 157.716 156.635 157.841L157.874 158.805C158.381 159.209 158.572 159.179 159.524 159.117L168.507 158.587C168.697 158.587 168.539 158.401 168.476 158.369L166.983 157.312C166.698 157.094 166.317 156.845 165.587 156.908Z" fill="black"/>
<path d="M195.186 159.273V168H194.164L189.408 161.148H189.323V168H188.266V159.273H189.289L194.061 166.142H194.146V159.273H195.186ZM199.824 168.136C199.233 168.136 198.714 167.996 198.268 167.714C197.825 167.433 197.479 167.04 197.229 166.534C196.981 166.028 196.858 165.437 196.858 164.761C196.858 164.08 196.981 163.484 197.229 162.976C197.479 162.467 197.825 162.072 198.268 161.791C198.714 161.51 199.233 161.369 199.824 161.369C200.415 161.369 200.932 161.51 201.375 161.791C201.821 162.072 202.167 162.467 202.415 162.976C202.665 163.484 202.79 164.08 202.79 164.761C202.79 165.437 202.665 166.028 202.415 166.534C202.167 167.04 201.821 167.433 201.375 167.714C200.932 167.996 200.415 168.136 199.824 168.136ZM199.824 167.233C200.273 167.233 200.642 167.118 200.932 166.888C201.221 166.658 201.436 166.355 201.575 165.98C201.714 165.605 201.784 165.199 201.784 164.761C201.784 164.324 201.714 163.916 201.575 163.538C201.436 163.161 201.221 162.855 200.932 162.622C200.642 162.389 200.273 162.273 199.824 162.273C199.375 162.273 199.006 162.389 198.716 162.622C198.426 162.855 198.211 163.161 198.072 163.538C197.933 163.916 197.863 164.324 197.863 164.761C197.863 165.199 197.933 165.605 198.072 165.98C198.211 166.355 198.426 166.658 198.716 166.888C199.006 167.118 199.375 167.233 199.824 167.233ZM207.171 161.455V162.307H203.779V161.455H207.171ZM204.768 159.886H205.774V166.125C205.774 166.409 205.815 166.622 205.897 166.764C205.982 166.903 206.09 166.997 206.221 167.045C206.355 167.091 206.495 167.114 206.643 167.114C206.754 167.114 206.845 167.108 206.916 167.097C206.987 167.082 207.044 167.071 207.086 167.062L207.291 167.966C207.222 167.991 207.127 168.017 207.005 168.043C206.883 168.071 206.728 168.085 206.541 168.085C206.257 168.085 205.978 168.024 205.705 167.902C205.436 167.78 205.211 167.594 205.032 167.344C204.856 167.094 204.768 166.778 204.768 166.398V159.886ZM208.684 168V161.455H209.69V168H208.684ZM209.195 160.364C208.999 160.364 208.83 160.297 208.688 160.163C208.549 160.03 208.48 159.869 208.48 159.682C208.48 159.494 208.549 159.334 208.688 159.2C208.83 159.067 208.999 159 209.195 159C209.392 159 209.559 159.067 209.698 159.2C209.84 159.334 209.911 159.494 209.911 159.682C209.911 159.869 209.84 160.03 209.698 160.163C209.559 160.297 209.392 160.364 209.195 160.364ZM214.191 168.136C213.6 168.136 213.081 167.996 212.635 167.714C212.192 167.433 211.846 167.04 211.596 166.534C211.349 166.028 211.225 165.437 211.225 164.761C211.225 164.08 211.349 163.484 211.596 162.976C211.846 162.467 212.192 162.072 212.635 161.791C213.081 161.51 213.6 161.369 214.191 161.369C214.782 161.369 215.299 161.51 215.742 161.791C216.188 162.072 216.535 162.467 216.782 162.976C217.032 163.484 217.157 164.08 217.157 164.761C217.157 165.437 217.032 166.028 216.782 166.534C216.535 167.04 216.188 167.433 215.742 167.714C215.299 167.996 214.782 168.136 214.191 168.136ZM214.191 167.233C214.64 167.233 215.009 167.118 215.299 166.888C215.589 166.658 215.803 166.355 215.942 165.98C216.081 165.605 216.151 165.199 216.151 164.761C216.151 164.324 216.081 163.916 215.942 163.538C215.803 163.161 215.589 162.855 215.299 162.622C215.009 162.389 214.64 162.273 214.191 162.273C213.742 162.273 213.373 162.389 213.083 162.622C212.793 162.855 212.579 163.161 212.439 163.538C212.3 163.916 212.231 164.324 212.231 164.761C212.231 165.199 212.3 165.605 212.439 165.98C212.579 166.355 212.793 166.658 213.083 166.888C213.373 167.118 213.742 167.233 214.191 167.233ZM219.698 164.062V168H218.692V161.455H219.664V162.477H219.749C219.902 162.145 220.135 161.878 220.448 161.676C220.76 161.472 221.164 161.369 221.658 161.369C222.101 161.369 222.489 161.46 222.821 161.642C223.154 161.821 223.412 162.094 223.597 162.46C223.781 162.824 223.874 163.284 223.874 163.841V168H222.868V163.909C222.868 163.395 222.735 162.994 222.468 162.707C222.2 162.418 221.834 162.273 221.368 162.273C221.047 162.273 220.76 162.342 220.507 162.482C220.257 162.621 220.06 162.824 219.915 163.091C219.77 163.358 219.698 163.682 219.698 164.062Z" fill="#1C1C1C"/>
<rect x="257" y="148" width="32" height="32" rx="16" fill="#FAFAFA"/>
<path d="M267.389 169.054C267.389 167.581 268.583 166.388 270.055 166.388H272.722V169.054C272.722 170.527 271.528 171.721 270.055 171.721C268.583 171.721 267.389 170.527 267.389 169.054Z" fill="#24CB71"/>
<path d="M272.723 155.721V161.054H275.389C276.862 161.054 278.056 159.86 278.056 158.388C278.056 156.915 276.862 155.721 275.389 155.721H272.723Z" fill="#FF7237"/>
<path d="M275.366 166.388C276.839 166.388 278.033 165.194 278.033 163.721C278.033 162.248 276.839 161.054 275.366 161.054C273.893 161.054 272.699 162.248 272.699 163.721C272.699 165.194 273.893 166.388 275.366 166.388Z" fill="#00B6FF"/>
<path d="M267.389 158.388C267.389 159.86 268.583 161.054 270.055 161.054H272.722V155.721H270.055C268.583 155.721 267.389 156.915 267.389 158.388Z" fill="#FF3737"/>
<path d="M267.389 163.721C267.389 165.194 268.583 166.388 270.055 166.388H272.722V161.054H270.055C268.583 161.054 267.389 162.248 267.389 163.721Z" fill="#874FFF"/>
<path d="M298.36 168V159.273H303.593V160.21H299.416V163.159H303.2V164.097H299.416V168H298.36ZM305.266 168V161.455H306.272V168H305.266ZM305.778 160.364C305.581 160.364 305.412 160.297 305.27 160.163C305.131 160.03 305.062 159.869 305.062 159.682C305.062 159.494 305.131 159.334 305.27 159.2C305.412 159.067 305.581 159 305.778 159C305.974 159 306.141 159.067 306.28 159.2C306.422 159.334 306.493 159.494 306.493 159.682C306.493 159.869 306.422 160.03 306.28 160.163C306.141 160.297 305.974 160.364 305.778 160.364ZM310.756 170.591C310.27 170.591 309.852 170.528 309.503 170.403C309.154 170.281 308.862 170.119 308.629 169.918C308.399 169.719 308.216 169.506 308.08 169.278L308.881 168.716C308.972 168.835 309.087 168.972 309.226 169.125C309.365 169.281 309.556 169.416 309.797 169.53C310.041 169.646 310.361 169.705 310.756 169.705C311.284 169.705 311.72 169.577 312.064 169.321C312.408 169.065 312.58 168.665 312.58 168.119V166.79H312.494C312.421 166.909 312.316 167.057 312.179 167.233C312.046 167.406 311.852 167.561 311.6 167.697C311.35 167.831 311.012 167.898 310.585 167.898C310.057 167.898 309.583 167.773 309.162 167.523C308.744 167.273 308.414 166.909 308.169 166.432C307.928 165.955 307.807 165.375 307.807 164.693C307.807 164.023 307.925 163.439 308.161 162.942C308.396 162.442 308.725 162.055 309.145 161.783C309.566 161.507 310.051 161.369 310.602 161.369C311.029 161.369 311.367 161.44 311.617 161.582C311.869 161.722 312.063 161.881 312.196 162.06C312.333 162.236 312.438 162.381 312.512 162.494H312.614V161.455H313.585V168.188C313.585 168.75 313.458 169.207 313.202 169.56C312.949 169.915 312.608 170.175 312.179 170.339C311.753 170.507 311.279 170.591 310.756 170.591ZM310.722 166.994C311.125 166.994 311.466 166.902 311.744 166.717C312.023 166.533 312.235 166.267 312.379 165.92C312.524 165.574 312.597 165.159 312.597 164.676C312.597 164.205 312.526 163.788 312.384 163.428C312.242 163.067 312.031 162.784 311.753 162.58C311.475 162.375 311.131 162.273 310.722 162.273C310.296 162.273 309.941 162.381 309.656 162.597C309.375 162.812 309.164 163.102 309.021 163.466C308.882 163.83 308.813 164.233 308.813 164.676C308.813 165.131 308.884 165.533 309.026 165.882C309.171 166.229 309.384 166.501 309.665 166.7C309.949 166.896 310.301 166.994 310.722 166.994ZM315.426 168V161.455H316.398V162.477H316.483C316.619 162.128 316.84 161.857 317.144 161.663C317.448 161.467 317.813 161.369 318.239 161.369C318.671 161.369 319.03 161.467 319.317 161.663C319.607 161.857 319.833 162.128 319.994 162.477H320.063C320.23 162.139 320.482 161.871 320.817 161.672C321.152 161.47 321.554 161.369 322.023 161.369C322.608 161.369 323.087 161.553 323.459 161.919C323.831 162.283 324.017 162.849 324.017 163.619V168H323.012V163.619C323.012 163.136 322.879 162.791 322.615 162.584C322.351 162.376 322.04 162.273 321.682 162.273C321.222 162.273 320.865 162.412 320.612 162.69C320.36 162.966 320.233 163.315 320.233 163.739V168H319.21V163.517C319.21 163.145 319.09 162.845 318.848 162.618C318.607 162.388 318.296 162.273 317.915 162.273C317.654 162.273 317.409 162.342 317.182 162.482C316.958 162.621 316.776 162.814 316.637 163.061C316.5 163.305 316.432 163.588 316.432 163.909V168H315.426ZM327.782 168.153C327.367 168.153 326.991 168.075 326.653 167.919C326.315 167.76 326.046 167.531 325.847 167.233C325.649 166.932 325.549 166.568 325.549 166.142C325.549 165.767 325.623 165.463 325.771 165.23C325.919 164.994 326.116 164.81 326.363 164.676C326.61 164.543 326.883 164.443 327.181 164.378C327.482 164.31 327.785 164.256 328.089 164.216C328.487 164.165 328.809 164.126 329.056 164.101C329.306 164.072 329.488 164.026 329.602 163.96C329.718 163.895 329.776 163.781 329.776 163.619V163.585C329.776 163.165 329.661 162.838 329.431 162.605C329.204 162.372 328.859 162.256 328.396 162.256C327.916 162.256 327.539 162.361 327.267 162.571C326.994 162.781 326.802 163.006 326.691 163.244L325.737 162.903C325.907 162.506 326.134 162.196 326.419 161.974C326.705 161.75 327.018 161.594 327.356 161.506C327.697 161.415 328.032 161.369 328.362 161.369C328.572 161.369 328.813 161.395 329.086 161.446C329.362 161.494 329.627 161.595 329.883 161.749C330.142 161.902 330.356 162.134 330.526 162.443C330.697 162.753 330.782 163.168 330.782 163.688V168H329.776V167.114H329.725C329.657 167.256 329.544 167.408 329.384 167.57C329.225 167.732 329.014 167.869 328.749 167.983C328.485 168.097 328.163 168.153 327.782 168.153ZM327.936 167.25C328.333 167.25 328.669 167.172 328.941 167.016C329.217 166.859 329.424 166.658 329.563 166.411C329.705 166.163 329.776 165.903 329.776 165.631V164.71C329.734 164.761 329.64 164.808 329.495 164.851C329.353 164.891 329.188 164.926 329.001 164.957C328.816 164.986 328.636 165.011 328.46 165.034C328.286 165.054 328.146 165.071 328.038 165.085C327.776 165.119 327.532 165.175 327.305 165.251C327.08 165.325 326.899 165.437 326.759 165.588C326.623 165.736 326.555 165.937 326.555 166.193C326.555 166.543 326.684 166.807 326.943 166.986C327.204 167.162 327.535 167.25 327.936 167.25Z" fill="#1C1C1C"/>
<rect x="364" y="148" width="32" height="32" rx="16" fill="#FAFAFA"/>
<path d="M375.667 156.667C375.114 156.667 374.667 157.114 374.667 157.667V170.333C374.667 170.886 375.114 171.333 375.667 171.333H384.333C384.885 171.333 385.333 170.886 385.333 170.333V160.667L381.333 156.667H375.667Z" fill="#F4B70A"/>
<path d="M375.667 171.333C375.114 171.333 374.667 170.886 374.667 170.333V170.167C374.667 170.719 375.114 171.167 375.667 171.167H384.333C384.885 171.167 385.333 170.719 385.333 170.167V170.333C385.333 170.886 384.885 171.333 384.333 171.333H375.667Z" fill="#EFA904"/>
<path d="M375.667 156.667C375.114 156.667 374.667 157.114 374.667 157.667V157.833C374.667 157.281 375.114 156.833 375.667 156.833H381.5L381.333 156.667H375.667Z" fill="#F6C028"/>
<path d="M385.333 164.083V160.667L384.75 160.083H381.937C381.714 160.083 381.603 160.353 381.76 160.51L385.333 164.083Z" fill="url(#paint0_linear_1_9317)"/>
<path d="M381.333 156.667L385.333 160.667H382.333C381.781 160.667 381.333 160.219 381.333 159.667V156.667Z" fill="#FADC87"/>
<path fill-rule="evenodd" clip-rule="evenodd" d="M377.667 163.333C377.483 163.333 377.333 163.482 377.333 163.667V168.333C377.333 168.517 377.483 168.667 377.667 168.667H382.333C382.518 168.667 382.667 168.517 382.667 168.333V163.667C382.667 163.482 382.518 163.333 382.333 163.333H377.667ZM382 164.833H378V167.167H382V164.833Z" fill="white"/>
<path d="M411.265 162C411.171 161.713 411.048 161.456 410.894 161.229C410.744 160.999 410.563 160.803 410.353 160.641C410.146 160.479 409.91 160.355 409.646 160.27C409.381 160.185 409.092 160.142 408.776 160.142C408.259 160.142 407.789 160.276 407.366 160.543C406.942 160.81 406.606 161.203 406.356 161.723C406.106 162.243 405.981 162.881 405.981 163.636C405.981 164.392 406.107 165.03 406.36 165.55C406.613 166.07 406.955 166.463 407.387 166.73C407.819 166.997 408.305 167.131 408.844 167.131C409.344 167.131 409.785 167.024 410.165 166.811C410.549 166.595 410.847 166.291 411.06 165.899C411.276 165.504 411.384 165.04 411.384 164.506L411.708 164.574H409.083V163.636H412.407V164.574C412.407 165.293 412.254 165.918 411.947 166.449C411.643 166.98 411.222 167.392 410.685 167.685C410.151 167.974 409.538 168.119 408.844 168.119C408.072 168.119 407.393 167.938 406.808 167.574C406.225 167.21 405.771 166.693 405.444 166.023C405.12 165.352 404.958 164.557 404.958 163.636C404.958 162.946 405.05 162.325 405.235 161.774C405.423 161.22 405.687 160.749 406.028 160.359C406.369 159.97 406.772 159.672 407.238 159.464C407.704 159.257 408.217 159.153 408.776 159.153C409.237 159.153 409.665 159.223 410.063 159.362C410.464 159.499 410.82 159.693 411.133 159.946C411.448 160.196 411.711 160.496 411.921 160.845C412.131 161.192 412.276 161.577 412.356 162H411.265ZM416.74 168.136C416.149 168.136 415.63 167.996 415.184 167.714C414.741 167.433 414.395 167.04 414.145 166.534C413.897 166.028 413.774 165.437 413.774 164.761C413.774 164.08 413.897 163.484 414.145 162.976C414.395 162.467 414.741 162.072 415.184 161.791C415.63 161.51 416.149 161.369 416.74 161.369C417.331 161.369 417.848 161.51 418.291 161.791C418.737 162.072 419.083 162.467 419.331 162.976C419.581 163.484 419.706 164.08 419.706 164.761C419.706 165.437 419.581 166.028 419.331 166.534C419.083 167.04 418.737 167.433 418.291 167.714C417.848 167.996 417.331 168.136 416.74 168.136ZM416.74 167.233C417.189 167.233 417.558 167.118 417.848 166.888C418.137 166.658 418.352 166.355 418.491 165.98C418.63 165.605 418.7 165.199 418.7 164.761C418.7 164.324 418.63 163.916 418.491 163.538C418.352 163.161 418.137 162.855 417.848 162.622C417.558 162.389 417.189 162.273 416.74 162.273C416.291 162.273 415.922 162.389 415.632 162.622C415.342 162.855 415.127 163.161 414.988 163.538C414.849 163.916 414.779 164.324 414.779 164.761C414.779 165.199 414.849 165.605 414.988 165.98C415.127 166.355 415.342 166.658 415.632 166.888C415.922 167.118 416.291 167.233 416.74 167.233ZM423.9 168.136C423.309 168.136 422.79 167.996 422.344 167.714C421.901 167.433 421.555 167.04 421.305 166.534C421.058 166.028 420.934 165.437 420.934 164.761C420.934 164.08 421.058 163.484 421.305 162.976C421.555 162.467 421.901 162.072 422.344 161.791C422.79 161.51 423.309 161.369 423.9 161.369C424.491 161.369 425.008 161.51 425.451 161.791C425.897 162.072 426.244 162.467 426.491 162.976C426.741 163.484 426.866 164.08 426.866 164.761C426.866 165.437 426.741 166.028 426.491 166.534C426.244 167.04 425.897 167.433 425.451 167.714C425.008 167.996 424.491 168.136 423.9 168.136ZM423.9 167.233C424.349 167.233 424.718 167.118 425.008 166.888C425.298 166.658 425.512 166.355 425.651 165.98C425.79 165.605 425.86 165.199 425.86 164.761C425.86 164.324 425.79 163.916 425.651 163.538C425.512 163.161 425.298 162.855 425.008 162.622C424.718 162.389 424.349 162.273 423.9 162.273C423.451 162.273 423.082 162.389 422.792 162.622C422.502 162.855 422.288 163.161 422.148 163.538C422.009 163.916 421.94 164.324 421.94 164.761C421.94 165.199 422.009 165.605 422.148 165.98C422.288 166.355 422.502 166.658 422.792 166.888C423.082 167.118 423.451 167.233 423.9 167.233ZM431.043 170.591C430.557 170.591 430.14 170.528 429.79 170.403C429.441 170.281 429.15 170.119 428.917 169.918C428.686 169.719 428.503 169.506 428.367 169.278L429.168 168.716C429.259 168.835 429.374 168.972 429.513 169.125C429.652 169.281 429.843 169.416 430.084 169.53C430.328 169.646 430.648 169.705 431.043 169.705C431.571 169.705 432.007 169.577 432.351 169.321C432.695 169.065 432.867 168.665 432.867 168.119V166.79H432.782C432.708 166.909 432.603 167.057 432.466 167.233C432.333 167.406 432.14 167.561 431.887 167.697C431.637 167.831 431.299 167.898 430.873 167.898C430.344 167.898 429.87 167.773 429.449 167.523C429.032 167.273 428.701 166.909 428.456 166.432C428.215 165.955 428.094 165.375 428.094 164.693C428.094 164.023 428.212 163.439 428.448 162.942C428.684 162.442 429.012 162.055 429.432 161.783C429.853 161.507 430.338 161.369 430.89 161.369C431.316 161.369 431.654 161.44 431.904 161.582C432.157 161.722 432.35 161.881 432.483 162.06C432.62 162.236 432.725 162.381 432.799 162.494H432.901V161.455H433.873V168.188C433.873 168.75 433.745 169.207 433.489 169.56C433.236 169.915 432.895 170.175 432.466 170.339C432.04 170.507 431.566 170.591 431.043 170.591ZM431.009 166.994C431.412 166.994 431.753 166.902 432.032 166.717C432.31 166.533 432.522 166.267 432.667 165.92C432.811 165.574 432.884 165.159 432.884 164.676C432.884 164.205 432.813 163.788 432.671 163.428C432.529 163.067 432.319 162.784 432.04 162.58C431.762 162.375 431.418 162.273 431.009 162.273C430.583 162.273 430.228 162.381 429.944 162.597C429.662 162.812 429.451 163.102 429.309 163.466C429.169 163.83 429.1 164.233 429.1 164.676C429.1 165.131 429.171 165.533 429.313 165.882C429.458 166.229 429.671 166.501 429.952 166.7C430.236 166.896 430.588 166.994 431.009 166.994ZM436.719 159.273V168H435.713V159.273H436.719ZM441.305 168.136C440.675 168.136 440.131 167.997 439.673 167.719C439.219 167.438 438.868 167.045 438.621 166.543C438.376 166.037 438.254 165.449 438.254 164.778C438.254 164.108 438.376 163.517 438.621 163.006C438.868 162.491 439.212 162.091 439.652 161.804C440.095 161.514 440.612 161.369 441.203 161.369C441.544 161.369 441.881 161.426 442.213 161.54C442.545 161.653 442.848 161.838 443.121 162.094C443.393 162.347 443.611 162.682 443.773 163.099C443.935 163.517 444.016 164.031 444.016 164.642V165.068H438.97V164.199H442.993C442.993 163.83 442.919 163.5 442.771 163.21C442.626 162.92 442.419 162.692 442.149 162.524C441.882 162.357 441.567 162.273 441.203 162.273C440.803 162.273 440.456 162.372 440.163 162.571C439.874 162.767 439.651 163.023 439.494 163.338C439.338 163.653 439.26 163.991 439.26 164.352V164.932C439.26 165.426 439.345 165.845 439.516 166.189C439.689 166.53 439.929 166.79 440.236 166.969C440.543 167.145 440.899 167.233 441.305 167.233C441.57 167.233 441.808 167.196 442.021 167.122C442.237 167.045 442.423 166.932 442.58 166.781C442.736 166.628 442.857 166.437 442.942 166.21L443.913 166.483C443.811 166.812 443.639 167.102 443.398 167.352C443.156 167.599 442.858 167.793 442.503 167.932C442.148 168.068 441.749 168.136 441.305 168.136ZM451.75 168H449.057V159.273H451.869C452.716 159.273 453.44 159.447 454.043 159.797C454.645 160.143 455.107 160.642 455.428 161.293C455.749 161.94 455.909 162.716 455.909 163.619C455.909 164.528 455.747 165.311 455.423 165.967C455.099 166.621 454.628 167.124 454.009 167.476C453.389 167.825 452.636 168 451.75 168ZM450.114 167.062H451.682C452.403 167.062 453.001 166.923 453.476 166.645C453.95 166.366 454.304 165.97 454.537 165.456C454.77 164.942 454.886 164.33 454.886 163.619C454.886 162.915 454.771 162.308 454.541 161.8C454.311 161.288 453.967 160.896 453.51 160.624C453.053 160.348 452.483 160.21 451.801 160.21H450.114V167.062ZM460.205 168.136C459.614 168.136 459.095 167.996 458.649 167.714C458.206 167.433 457.859 167.04 457.609 166.534C457.362 166.028 457.239 165.437 457.239 164.761C457.239 164.08 457.362 163.484 457.609 162.976C457.859 162.467 458.206 162.072 458.649 161.791C459.095 161.51 459.614 161.369 460.205 161.369C460.795 161.369 461.313 161.51 461.756 161.791C462.202 162.072 462.548 162.467 462.795 162.976C463.045 163.484 463.17 164.08 463.17 164.761C463.17 165.437 463.045 166.028 462.795 166.534C462.548 167.04 462.202 167.433 461.756 167.714C461.313 167.996 460.795 168.136 460.205 168.136ZM460.205 167.233C460.653 167.233 461.023 167.118 461.312 166.888C461.602 166.658 461.817 166.355 461.956 165.98C462.095 165.605 462.165 165.199 462.165 164.761C462.165 164.324 462.095 163.916 461.956 163.538C461.817 163.161 461.602 162.855 461.312 162.622C461.023 162.389 460.653 162.273 460.205 162.273C459.756 162.273 459.386 162.389 459.097 162.622C458.807 162.855 458.592 163.161 458.453 163.538C458.314 163.916 458.244 164.324 458.244 164.761C458.244 165.199 458.314 165.605 458.453 165.98C458.592 166.355 458.807 166.658 459.097 166.888C459.386 167.118 459.756 167.233 460.205 167.233ZM467.365 168.136C466.751 168.136 466.223 167.991 465.779 167.702C465.336 167.412 464.995 167.013 464.757 166.504C464.518 165.996 464.399 165.415 464.399 164.761C464.399 164.097 464.521 163.51 464.765 163.001C465.012 162.49 465.356 162.091 465.797 161.804C466.24 161.514 466.757 161.369 467.348 161.369C467.808 161.369 468.223 161.455 468.592 161.625C468.961 161.795 469.264 162.034 469.5 162.341C469.735 162.648 469.882 163.006 469.939 163.415H468.933C468.856 163.116 468.686 162.852 468.422 162.622C468.16 162.389 467.808 162.273 467.365 162.273C466.973 162.273 466.629 162.375 466.333 162.58C466.041 162.781 465.812 163.067 465.647 163.436C465.485 163.803 465.404 164.233 465.404 164.727C465.404 165.233 465.484 165.673 465.643 166.048C465.805 166.423 466.032 166.714 466.325 166.922C466.62 167.129 466.967 167.233 467.365 167.233C467.626 167.233 467.863 167.188 468.076 167.097C468.289 167.006 468.47 166.875 468.618 166.705C468.765 166.534 468.87 166.33 468.933 166.091H469.939C469.882 166.477 469.741 166.825 469.517 167.135C469.295 167.442 469.001 167.686 468.635 167.868C468.271 168.047 467.848 168.136 467.365 168.136ZM476.045 162.92L475.142 163.176C475.085 163.026 475.001 162.879 474.89 162.737C474.782 162.592 474.635 162.473 474.447 162.379C474.26 162.286 474.02 162.239 473.727 162.239C473.326 162.239 472.993 162.331 472.725 162.516C472.461 162.697 472.329 162.929 472.329 163.21C472.329 163.46 472.42 163.658 472.602 163.803C472.784 163.947 473.068 164.068 473.454 164.165L474.426 164.403C475.011 164.545 475.447 164.763 475.734 165.055C476.021 165.345 476.164 165.719 476.164 166.176C476.164 166.551 476.056 166.886 475.841 167.182C475.627 167.477 475.329 167.71 474.946 167.881C474.562 168.051 474.116 168.136 473.608 168.136C472.94 168.136 472.387 167.991 471.95 167.702C471.512 167.412 471.235 166.989 471.119 166.432L472.074 166.193C472.164 166.545 472.336 166.81 472.589 166.986C472.845 167.162 473.179 167.25 473.591 167.25C474.059 167.25 474.431 167.151 474.707 166.952C474.985 166.75 475.125 166.509 475.125 166.227C475.125 166 475.045 165.81 474.886 165.656C474.727 165.5 474.483 165.384 474.153 165.307L473.062 165.051C472.463 164.909 472.022 164.689 471.741 164.391C471.463 164.089 471.324 163.713 471.324 163.261C471.324 162.892 471.427 162.565 471.635 162.281C471.845 161.997 472.13 161.774 472.491 161.612C472.855 161.45 473.267 161.369 473.727 161.369C474.375 161.369 474.883 161.511 475.252 161.795C475.625 162.08 475.889 162.455 476.045 162.92Z" fill="#1C1C1C"/>
<defs>
<filter id="filter0_d_1_9317" x="24" y="24" width="453.5" height="88" filterUnits="userSpaceOnUse" color-interpolation-filters="sRGB">
<feFlood flood-opacity="0" result="BackgroundImageFix"/>
<feColorMatrix in="SourceAlpha" type="matrix" values="0 0 0 0 0 0 0 0 0 0 0 0 0 0 0 0 0 0 127 0" result="hardAlpha"/>
<feOffset/>
<feGaussianBlur stdDeviation="8"/>
<feComposite in2="hardAlpha" operator="out"/>
<feColorMatrix type="matrix" values="0 0 0 0 0.529412 0 0 0 0 0.309804 0 0 0 0 1 0 0 0 0.08 0"/>
<feBlend mode="normal" in2="BackgroundImageFix" result="effect1_dropShadow_1_9317"/>
<feBlend mode="normal" in="SourceGraphic" in2="effect1_dropShadow_1_9317" result="shape"/>
</filter>
<linearGradient id="paint0_linear_1_9317" x1="383.51" y1="164.083" x2="383.51" y2="160" gradientUnits="userSpaceOnUse">
<stop stop-color="#F4B70A"/>
<stop offset="1" stop-color="#E2930A"/>
</linearGradient>
</defs>
</svg>
