<svg width="16" height="16" viewBox="0 0 16 16" fill="none" xmlns="http://www.w3.org/2000/svg">
<path fill-rule="evenodd" clip-rule="evenodd" d="M6.28998 6.28865L2.8576 6.14294C2.55593 6.14603 2.2876 6.48675 2.2876 6.90484C2.2876 7.32294 2.55593 7.66365 2.8576 7.66675L6.28426 7.52103L6.29263 7.52012C6.42282 7.50606 6.85903 7.45896 6.85903 6.90484C6.85903 6.33137 6.42088 6.29848 6.2982 6.28928L6.28998 6.28865ZM3.68403 9.47627L6.22545 9.2777C6.33998 9.26818 6.85903 9.16675 6.85903 8.62199C6.85903 8.45627 6.85903 8.07151 6.22403 7.99341L3.64188 7.95246C3.31474 7.95627 3.0495 8.27294 3.0495 8.66175V8.66961C3.0495 9.07889 3.38284 9.47627 3.68403 9.47627ZM6.18093 2.87937L4.05307 2.66675C3.70855 2.67484 3.43045 3.01175 3.43045 3.42865C3.43045 3.84556 3.71093 4.18532 4.05736 4.19056L6.22403 4.11913C6.53974 4.11913 6.85903 3.97127 6.85903 3.53341C6.85903 3.29008 6.76379 2.90151 6.18093 2.87937ZM6.2445 4.51722L3.23498 4.36913C2.92212 4.3727 2.66855 4.71818 2.66855 5.14484C2.66855 5.57151 2.92212 5.88937 3.23498 5.89294L6.26379 5.80032C6.75546 5.75484 6.85903 5.43056 6.85903 5.14484C6.85903 4.58865 6.46807 4.53222 6.2445 4.51722ZM10.7713 8.6075L10.7577 8.60067L10.7557 8.59974L10.7791 8.55294C10.7804 8.55102 10.7817 8.54912 10.783 8.54723C10.7821 8.54862 10.7811 8.55002 10.7802 8.55143L10.7643 8.58324C10.7615 8.58844 10.7589 8.59371 10.7563 8.59905L10.7643 8.58324C10.7865 8.54124 10.8161 8.50383 10.8516 8.47276C10.8718 8.45588 10.8936 8.44101 10.9169 8.42841C10.9174 8.42814 10.9179 8.42786 10.9184 8.42759L10.9256 8.44149L10.9266 8.44051C10.9792 8.41211 11.0386 8.39677 11.0985 8.39657V8.38103H11.6991C12.2338 8.38091 12.7467 8.16838 13.1248 7.7902C13.5029 7.41201 13.7153 6.89914 13.7153 6.36437V5.44532C13.7153 4.91051 13.5028 4.3976 13.1247 4.01941C12.7465 3.64121 12.2336 3.42872 11.6988 3.42865H10.5372C10.456 3.42846 10.3768 3.40454 10.3091 3.35984C9.76288 3.00318 8.73097 2.66675 7.62002 2.66675C7.44264 2.66675 7.28216 2.67008 7.1374 2.6758C7.10291 2.67702 7.06941 2.6876 7.04046 2.70639C7.01152 2.72518 6.98822 2.75148 6.97306 2.78248C6.9579 2.81348 6.95145 2.84802 6.95439 2.88241C6.95734 2.91679 6.96957 2.94973 6.98978 2.9777L6.99216 2.98103C7.19621 3.27603 7.23907 3.59532 7.23907 3.80961C7.23944 4.01266 7.19735 4.21355 7.11549 4.39937C7.09218 4.45209 7.08013 4.5091 7.08013 4.56675C7.08013 4.6244 7.09218 4.68141 7.11549 4.73413C7.19694 4.92364 7.23894 5.12774 7.23894 5.33401C7.23894 5.54028 7.19694 5.74438 7.11549 5.93389C7.0923 5.98639 7.08031 6.04316 7.08031 6.10056C7.08031 6.15796 7.0923 6.21472 7.11549 6.26722C7.19653 6.45345 7.23835 6.65437 7.23835 6.85746C7.23835 7.06056 7.19653 7.26147 7.11549 7.4477C7.09113 7.50274 7.07854 7.56227 7.07854 7.62246C7.07854 7.68266 7.09113 7.74218 7.11549 7.79722C7.20037 7.98837 7.24254 8.19573 7.23907 8.40484C7.23907 8.60008 7.19145 8.91199 7.04859 9.14722C7.01974 9.1958 7.0023 9.2503 6.9976 9.3066C6.9929 9.3629 7.00105 9.41954 7.02145 9.47222C7.03049 9.49603 7.03954 9.52127 7.04835 9.5477C7.07686 9.63662 7.08388 9.73102 7.06883 9.82318C6.9974 10.2839 6.83859 10.6875 6.67026 11.1127L6.66646 11.1223C6.5943 11.3045 6.51976 11.4928 6.45073 11.6906C6.30454 12.1087 6.34835 12.5287 6.57097 12.8425C6.79549 13.1589 7.16764 13.3334 7.62002 13.3334C7.69078 13.3334 7.76013 13.3137 7.82031 13.2765C7.88049 13.2392 7.92911 13.186 7.96073 13.1227C8.03216 12.9784 8.32383 12.5513 8.63192 12.1013C9.06049 11.4744 9.59264 10.6946 9.94692 10.082L9.94741 10.0812L9.96273 10.0899L9.96566 10.085C10.0915 9.86691 10.2008 9.67373 10.2948 9.50496C10.5651 9.01928 10.71 8.7315 10.7713 8.6075Z" fill="#F3655B"/>
<path d="M2.8576 6.14294L2.85827 6.12706L2.85743 6.12707L2.8576 6.14294ZM6.28998 6.28865L6.29118 6.27282L6.29065 6.27279L6.28998 6.28865ZM2.8576 7.66675L2.85743 7.68264L2.85827 7.68261L2.8576 7.66675ZM6.28426 7.52103L6.28494 7.53693L6.28598 7.53681L6.28426 7.52103ZM6.29263 7.52012L6.29093 7.50434L6.29092 7.50434L6.29263 7.52012ZM6.2982 6.28928L6.297 6.3051L6.29701 6.30511L6.2982 6.28928ZM6.22545 9.2777L6.22669 9.29353L6.22677 9.29352L6.22545 9.2777ZM3.68403 9.47627V9.49219L3.68526 9.4921L3.68403 9.47627ZM6.22403 7.99341L6.22597 7.97757L6.22428 7.97754L6.22403 7.99341ZM3.64188 7.95246L3.64214 7.93659L3.6417 7.93659L3.64188 7.95246ZM4.05307 2.66675L4.05466 2.65083L4.0527 2.65088L4.05307 2.66675ZM6.18093 2.87937L6.17935 2.89519L6.18033 2.89523L6.18093 2.87937ZM4.05736 4.19056L4.05712 4.20645L4.05788 4.20642L4.05736 4.19056ZM6.22403 4.11913V4.10325L6.2235 4.10326L6.22403 4.11913ZM3.23498 4.36913L3.23576 4.35325L3.2348 4.35326L3.23498 4.36913ZM6.2445 4.51722L6.24557 4.50138L6.24528 4.50137L6.2445 4.51722ZM3.23498 5.89294L3.2348 5.90882L3.23546 5.9088L3.23498 5.89294ZM6.26379 5.80032L6.26427 5.81622L6.26525 5.81612L6.26379 5.80032ZM10.7577 8.60067L10.7648 8.58647L10.7644 8.58628L10.7577 8.60067ZM10.7713 8.6075L10.7856 8.61454L10.7926 8.60037L10.7784 8.59331L10.7713 8.6075ZM10.7557 8.59974L10.7415 8.59264L10.7342 8.60723L10.749 8.61413L10.7557 8.59974ZM10.7791 8.55294L10.7658 8.54394L10.7649 8.54584L10.7791 8.55294ZM10.783 8.54723L10.7961 8.55626L10.7701 8.53807L10.783 8.54723ZM10.7802 8.55143L10.7669 8.54249L10.766 8.54433L10.7802 8.55143ZM10.7563 8.59905L10.742 8.59227L10.7705 8.60614L10.7563 8.59905ZM10.8516 8.47276L10.8414 8.46059L10.8411 8.46082L10.8516 8.47276ZM10.9169 8.42841L10.9245 8.44238L10.9246 8.4423L10.9169 8.42841ZM10.9184 8.42759L10.9325 8.42029L10.9251 8.40586L10.9108 8.41366L10.9184 8.42759ZM10.9256 8.44149L10.9115 8.44878L10.9215 8.46806L10.9368 8.45271L10.9256 8.44149ZM10.9266 8.44051L10.9187 8.42593L10.9154 8.42929L10.9266 8.44051ZM11.0985 8.39657L11.0985 8.41244L11.1143 8.41239V8.39657H11.0985ZM11.0985 8.38103V8.36516H11.0826V8.38103H11.0985ZM11.6991 8.38103V8.39691H11.6991L11.6991 8.38103ZM13.1248 7.7902L13.1135 7.77898L13.1248 7.7902ZM13.1247 4.01941L13.1359 4.00818L13.1247 4.01941ZM11.6988 3.42865L11.6988 3.41278H11.6988V3.42865ZM10.5372 3.42865L10.5371 3.44453H10.5372V3.42865ZM10.3091 3.35984L10.3178 3.3466L10.3177 3.34655L10.3091 3.35984ZM7.1374 2.6758L7.13796 2.69166L7.13803 2.69166L7.1374 2.6758ZM7.04046 2.70639L7.03182 2.69307L7.03182 2.69307L7.04046 2.70639ZM6.95439 2.88241L6.97021 2.88105L6.95439 2.88241ZM6.98978 2.9777L7.0027 2.96847L7.00265 2.9684L6.98978 2.9777ZM6.99216 2.98103L7.00522 2.972L7.00508 2.97181L6.99216 2.98103ZM7.23907 3.80961H7.22319V3.80963L7.23907 3.80961ZM7.11549 4.39937L7.13001 4.40579L7.13002 4.40577L7.11549 4.39937ZM7.11549 4.73413L7.13008 4.72786L7.13001 4.72771L7.11549 4.73413ZM7.11549 5.93389L7.13001 5.94031L7.13008 5.94016L7.11549 5.93389ZM7.11549 6.26722L7.13005 6.26089L7.13001 6.26081L7.11549 6.26722ZM7.11549 7.4477L7.13001 7.45413L7.13005 7.45403L7.11549 7.4477ZM7.11549 7.79722L7.10098 7.80365L7.10099 7.80367L7.11549 7.79722ZM7.23907 8.40484L7.22319 8.40458V8.40484H7.23907ZM7.04859 9.14722L7.03502 9.13898L7.03494 9.13912L7.04859 9.14722ZM7.02145 9.47222L7.03629 9.46659L7.03625 9.46649L7.02145 9.47222ZM7.04835 9.5477L7.06347 9.54285L7.06341 9.54268L7.04835 9.5477ZM7.06883 9.82318L7.05316 9.82062L7.05314 9.82074L7.06883 9.82318ZM6.67026 11.1127L6.68502 11.1185V11.1185L6.67026 11.1127ZM6.66646 11.1223L6.6517 11.1164L6.6517 11.1164L6.66646 11.1223ZM6.45073 11.6906L6.46572 11.6958L6.46572 11.6958L6.45073 11.6906ZM6.57097 12.8425L6.55802 12.8516L6.55803 12.8516L6.57097 12.8425ZM7.62002 13.3334V13.3493H7.62002L7.62002 13.3334ZM7.82031 13.2765L7.82866 13.29H7.82866L7.82031 13.2765ZM7.96073 13.1227L7.97493 13.1298L7.97496 13.1297L7.96073 13.1227ZM8.63192 12.1013L8.64502 12.1102L8.64503 12.1102L8.63192 12.1013ZM9.94692 10.082L9.93326 10.0739L9.93318 10.074L9.94692 10.082ZM9.94741 10.0812L9.95528 10.0674L9.94169 10.0596L9.93374 10.0731L9.94741 10.0812ZM9.96273 10.0899L9.95485 10.1037L9.96834 10.1114L9.97634 10.0981L9.96273 10.0899ZM9.96566 10.085L9.97927 10.0932L9.97941 10.093L9.96566 10.085ZM10.2948 9.50496L10.3086 9.51269L10.3086 9.51268L10.2948 9.50496ZM2.8576 6.14294L2.85692 6.1588L6.28931 6.30451L6.28998 6.28865L6.29065 6.27279L2.85827 6.12708L2.8576 6.14294ZM2.2876 6.90484H2.30347C2.30347 6.6991 2.36951 6.51281 2.47211 6.37787C2.57479 6.24282 2.71309 6.1603 2.85776 6.15881L2.8576 6.14294L2.85743 6.12707C2.70044 6.12868 2.55374 6.21806 2.44684 6.35866C2.33985 6.49937 2.27172 6.69249 2.27172 6.90484H2.2876ZM2.8576 7.66675L2.85776 7.65088C2.71309 7.64939 2.57479 7.56687 2.47211 7.43181C2.36951 7.29688 2.30347 7.11058 2.30347 6.90484H2.2876H2.27172C2.27172 7.1172 2.33985 7.31031 2.44684 7.45103C2.55374 7.59163 2.70044 7.68101 2.85743 7.68262L2.8576 7.66675ZM6.28426 7.52103L6.28359 7.50518L2.85692 7.65089L2.8576 7.66675L2.85827 7.68261L6.28494 7.53689L6.28426 7.52103ZM6.29263 7.52012L6.29092 7.50434L6.28255 7.50525L6.28426 7.52103L6.28598 7.53681L6.29435 7.5359L6.29263 7.52012ZM6.85903 6.90484H6.84315C6.84315 7.17691 6.7365 7.32208 6.6159 7.40176C6.49409 7.48224 6.35601 7.49731 6.29093 7.50434L6.29263 7.52012L6.29434 7.53591C6.35944 7.52887 6.50456 7.51337 6.6334 7.42825C6.76345 7.34233 6.8749 7.18689 6.8749 6.90484H6.85903ZM6.2982 6.28928L6.29701 6.30511C6.35831 6.30971 6.49481 6.32013 6.61598 6.39877C6.73587 6.4766 6.84315 6.6229 6.84315 6.90484H6.85903H6.8749C6.8749 6.61332 6.76311 6.45644 6.63326 6.37215C6.50468 6.28868 6.36077 6.27806 6.29939 6.27345L6.2982 6.28928ZM6.28998 6.28865L6.28878 6.30448L6.297 6.3051L6.2982 6.28928L6.29941 6.27345L6.29118 6.27283L6.28998 6.28865ZM6.22545 9.2777L6.22422 9.26188L3.68279 9.46045L3.68403 9.47627L3.68526 9.4921L6.22669 9.29353L6.22545 9.2777ZM6.85903 8.62199H6.84315C6.84315 8.88822 6.7168 9.04511 6.57647 9.13729C6.43531 9.23002 6.27974 9.25726 6.22414 9.26188L6.22545 9.2777L6.22677 9.29352C6.28569 9.28862 6.44691 9.26038 6.5939 9.16382C6.74173 9.06672 6.8749 8.90051 6.8749 8.62199H6.85903ZM6.22403 7.99341L6.22209 8.00917C6.53631 8.04781 6.69006 8.16176 6.7662 8.28327C6.8429 8.40567 6.84315 8.539 6.84315 8.62199H6.85903H6.8749C6.8749 8.53926 6.87515 8.39735 6.7931 8.26641C6.7105 8.13459 6.54674 8.01711 6.22596 7.97766L6.22403 7.99341ZM3.64188 7.95246L3.64163 7.96833L6.22377 8.00929L6.22403 7.99341L6.22428 7.97754L3.64214 7.93659L3.64188 7.95246ZM3.0495 8.66175H3.06538C3.06538 8.27905 3.32599 7.97201 3.64207 7.96833L3.64188 7.95246L3.6417 7.93659C3.30349 7.94053 3.03363 8.26683 3.03363 8.66175H3.0495ZM3.0495 8.66961H3.06538V8.66175H3.0495H3.03363V8.66961H3.0495ZM3.68403 9.47627V9.4604C3.54012 9.4604 3.38558 9.365 3.26619 9.21648C3.14713 9.06836 3.06538 8.87011 3.06538 8.66961H3.0495H3.03363C3.03363 8.87838 3.11855 9.08347 3.24145 9.23637C3.36402 9.38886 3.52674 9.49215 3.68403 9.49215V9.47627ZM4.05307 2.66675L4.0515 2.68254L6.17935 2.89516L6.18093 2.87937L6.18251 2.86357L4.05465 2.65095L4.05307 2.66675ZM3.43045 3.42865H3.44633C3.44633 3.01768 3.72 2.69045 4.05345 2.68262L4.05307 2.66675L4.0527 2.65088C3.6971 2.65923 3.41458 3.00581 3.41458 3.42865H3.43045ZM4.05736 4.19056L4.0576 4.17469C3.72236 4.16962 3.44633 3.83964 3.44633 3.42865H3.43045H3.41458C3.41458 3.85148 3.6995 4.20102 4.05712 4.20643L4.05736 4.19056ZM6.22403 4.11913L6.2235 4.10326L4.05684 4.17469L4.05736 4.19056L4.05788 4.20642L6.22455 4.13499L6.22403 4.11913ZM6.85903 3.53341H6.84315C6.84315 3.74801 6.76517 3.88954 6.65025 3.97788C6.53464 4.06675 6.37974 4.10326 6.22403 4.10326V4.11913V4.135C6.38403 4.135 6.54662 4.09758 6.66959 4.00305C6.79324 3.908 6.8749 3.75667 6.8749 3.53341H6.85903ZM6.18093 2.87937L6.18033 2.89523C6.46793 2.90615 6.63254 3.00717 6.7258 3.1329C6.81961 3.25937 6.84315 3.41342 6.84315 3.53341H6.85903H6.8749C6.8749 3.41007 6.85083 3.24817 6.7513 3.11399C6.65122 2.97907 6.47679 2.87472 6.18153 2.86351L6.18093 2.87937ZM3.23498 4.36913L3.2342 4.38498L6.24372 4.53308L6.2445 4.51722L6.24528 4.50137L3.23576 4.35328L3.23498 4.36913ZM2.66855 5.14484H2.68442C2.68442 4.93454 2.74694 4.74486 2.84725 4.6077C2.94758 4.47052 3.08492 4.38672 3.23516 4.385L3.23498 4.36913L3.2348 4.35326C3.07218 4.35511 2.9263 4.44584 2.82163 4.58896C2.71695 4.73209 2.65268 4.92848 2.65268 5.14484H2.66855ZM3.23498 5.89294L3.23516 5.87707C2.93445 5.87363 2.68442 5.56673 2.68442 5.14484H2.66855H2.65268C2.65268 5.57629 2.9098 5.9051 3.2348 5.90881L3.23498 5.89294ZM6.26379 5.80032L6.2633 5.78445L3.23449 5.87707L3.23498 5.89294L3.23546 5.9088L6.26427 5.81618L6.26379 5.80032ZM6.85903 5.14484H6.84315C6.84315 5.28613 6.81748 5.43481 6.73286 5.55345C6.6487 5.67145 6.50452 5.76211 6.26233 5.78451L6.26379 5.80032L6.26525 5.81612C6.51472 5.79305 6.66816 5.69883 6.75871 5.57189C6.84878 5.44559 6.8749 5.28927 6.8749 5.14484H6.85903ZM6.2445 4.51722L6.24344 4.53306C6.355 4.54055 6.5048 4.5583 6.62668 4.64121C6.74726 4.72325 6.84315 4.87102 6.84315 5.14484H6.85903H6.8749C6.8749 4.86248 6.77532 4.70394 6.64453 4.61496C6.51504 4.52686 6.35758 4.5089 6.24557 4.50139L6.2445 4.51722ZM10.7577 8.60067L10.7506 8.61486L10.7642 8.6217L10.7713 8.6075L10.7784 8.59331L10.7647 8.58647L10.7577 8.60067ZM10.7557 8.59974L10.749 8.61413L10.7509 8.61505L10.7577 8.60067L10.7644 8.58628L10.7624 8.58536L10.7557 8.59974ZM10.7557 8.59974L10.7699 8.60684L10.7933 8.56004L10.7791 8.55294L10.7649 8.54584L10.7415 8.59264L10.7557 8.59974ZM10.7791 8.55294L10.7922 8.56186C10.7934 8.56003 10.7947 8.5582 10.796 8.55638L10.783 8.54723L10.7701 8.53807C10.7687 8.54004 10.7673 8.54202 10.7659 8.54402L10.7791 8.55294ZM10.7802 8.55143L10.7933 8.56029C10.7942 8.55894 10.7952 8.55759 10.7961 8.55626L10.783 8.54723L10.77 8.53819C10.769 8.53965 10.768 8.5411 10.767 8.54256L10.7802 8.55143ZM10.7643 8.58324L10.7784 8.59034L10.7944 8.55853L10.7802 8.55143L10.766 8.54433L10.7501 8.57614L10.7643 8.58324ZM10.7563 8.59905L10.7707 8.60582C10.7731 8.6007 10.7756 8.59565 10.7783 8.59066L10.7643 8.58324L10.7502 8.57582C10.7474 8.58123 10.7446 8.58672 10.742 8.59227L10.7563 8.59905ZM10.7643 8.58324L10.7501 8.57614L10.7422 8.59195L10.7563 8.59905L10.7705 8.60614L10.7784 8.59034L10.7643 8.58324ZM10.8516 8.47276L10.8411 8.46082C10.8042 8.49316 10.7733 8.5321 10.7502 8.57582L10.7643 8.58324L10.7783 8.59066C10.7996 8.55038 10.828 8.5145 10.8621 8.4847L10.8516 8.47276ZM10.8516 8.47276L10.8618 8.48493C10.8811 8.46873 10.9021 8.45446 10.9245 8.44238L10.9169 8.42841L10.9094 8.41445C10.8851 8.42755 10.8624 8.44303 10.8414 8.46059L10.8516 8.47276ZM10.9169 8.42841L10.9246 8.4423C10.9251 8.44204 10.9256 8.44177 10.9261 8.44151L10.9184 8.42759L10.9108 8.41366C10.9103 8.41395 10.9098 8.41424 10.9092 8.41453L10.9169 8.42841ZM10.9256 8.44149L10.9397 8.4342L10.9325 8.42029L10.9184 8.42759L10.9043 8.43488L10.9115 8.44878L10.9256 8.44149ZM10.9266 8.44051L10.9154 8.42929L10.9144 8.43026L10.9256 8.44149L10.9368 8.45271L10.9378 8.45174L10.9266 8.44051ZM11.0985 8.39657L11.0984 8.38069C11.0359 8.3809 10.974 8.39692 10.9191 8.42654L10.9266 8.44051L10.9341 8.45448C10.9845 8.4273 11.0414 8.41263 11.0985 8.41244L11.0985 8.39657ZM11.0985 8.38103H11.0826V8.39657H11.0985H11.1143V8.38103H11.0985ZM11.0985 8.38103V8.39691H11.6991V8.38103V8.36516H11.0985V8.38103ZM11.6991 8.38103L11.6991 8.39691C12.238 8.39678 12.7549 8.18258 13.136 7.80142L13.1248 7.7902L13.1135 7.77898C12.7384 8.15418 12.2296 8.36504 11.6991 8.36516L11.6991 8.38103ZM13.1248 7.7902L13.136 7.80142C13.5171 7.42026 13.7311 6.90335 13.7311 6.36437H13.7153H13.6994C13.6994 6.89493 13.4887 7.40377 13.1135 7.77898L13.1248 7.7902ZM13.7153 6.36437H13.7311V5.44532H13.7153H13.6994V6.36437H13.7153ZM13.7153 5.44532H13.7311C13.7311 4.9063 13.517 4.38935 13.1359 4.00818L13.1247 4.01941L13.1134 4.03063C13.4886 4.40584 13.6994 4.91472 13.6994 5.44532H13.7153ZM13.1247 4.01941L13.1359 4.00818C12.7548 3.62701 12.2379 3.41284 11.6988 3.41278L11.6988 3.42865L11.6988 3.44453C12.2294 3.44459 12.7383 3.65541 13.1134 4.03063L13.1247 4.01941ZM11.6988 3.42865V3.41278H10.5372V3.42865V3.44453H11.6988V3.42865ZM10.5372 3.42865L10.5372 3.41278C10.4592 3.4126 10.3829 3.38959 10.3178 3.3466L10.3091 3.35984L10.3003 3.37309C10.3706 3.41949 10.4529 3.44433 10.5371 3.44453L10.5372 3.42865ZM10.3091 3.35984L10.3177 3.34655C9.76863 2.98798 8.73361 2.65088 7.62002 2.65088V2.66675V2.68262C8.72833 2.68262 9.75712 3.01838 10.3004 3.37313L10.3091 3.35984ZM7.62002 2.66675V2.65088C7.44244 2.65088 7.28175 2.65421 7.13677 2.65994L7.1374 2.6758L7.13803 2.69166C7.28257 2.68595 7.44284 2.68262 7.62002 2.68262V2.66675ZM7.1374 2.6758L7.13683 2.65993C7.09947 2.66126 7.06317 2.67272 7.03182 2.69307L7.04046 2.70639L7.0491 2.7197C7.07564 2.70248 7.10635 2.69278 7.13796 2.69166L7.1374 2.6758ZM7.04046 2.70639L7.03182 2.69307C7.00046 2.71343 6.97522 2.74192 6.9588 2.77551L6.97306 2.78248L6.98732 2.78945C7.00121 2.76104 7.02257 2.73693 7.0491 2.7197L7.04046 2.70639ZM6.97306 2.78248L6.9588 2.77551C6.94238 2.8091 6.93539 2.84651 6.93858 2.88376L6.95439 2.88241L6.97021 2.88105C6.96751 2.84953 6.97342 2.81787 6.98732 2.78945L6.97306 2.78248ZM6.95439 2.88241L6.93858 2.88376C6.94177 2.92101 6.95502 2.95669 6.97691 2.987L6.98978 2.9777L7.00265 2.9684C6.98412 2.94276 6.97291 2.91257 6.97021 2.88105L6.95439 2.88241ZM6.98978 2.9777L6.97686 2.98693L6.97924 2.99026L6.99216 2.98103L7.00508 2.97181L7.0027 2.96847L6.98978 2.9777ZM6.99216 2.98103L6.97911 2.99006C7.18068 3.28149 7.22319 3.59721 7.22319 3.80961H7.23907H7.25494C7.25494 3.59343 7.21173 3.27058 7.00522 2.972L6.99216 2.98103ZM7.23907 3.80961L7.22319 3.80963C7.22357 4.01047 7.18193 4.20917 7.10097 4.39297L7.11549 4.39937L7.13002 4.40577C7.21277 4.21792 7.25532 4.01484 7.25494 3.80958L7.23907 3.80961ZM7.11549 4.39937L7.10098 4.39295C7.07677 4.44769 7.06426 4.50689 7.06426 4.56675H7.08013H7.096C7.096 4.51131 7.10759 4.45649 7.13001 4.40579L7.11549 4.39937ZM7.08013 4.56675H7.06426C7.06426 4.62661 7.07677 4.68581 7.10098 4.74055L7.11549 4.73413L7.13001 4.72771C7.10759 4.67701 7.096 4.62218 7.096 4.56675H7.08013ZM7.11549 4.73413L7.10091 4.7404C7.1815 4.92792 7.22307 5.1299 7.22307 5.33401H7.23894H7.25481C7.25481 5.12559 7.21237 4.91935 7.13008 4.72786L7.11549 4.73413ZM7.23894 5.33401H7.22307C7.22307 5.53812 7.1815 5.7401 7.10091 5.92762L7.11549 5.93389L7.13008 5.94016C7.21237 5.74867 7.25481 5.54243 7.25481 5.33401H7.23894ZM7.11549 5.93389L7.10098 5.92748C7.07688 5.982 7.06444 6.04095 7.06444 6.10056H7.08031H7.09619C7.09619 6.04537 7.10771 5.99079 7.13001 5.94031L7.11549 5.93389ZM7.08031 6.10056H7.06444C7.06444 6.16017 7.07688 6.21912 7.10098 6.27364L7.11549 6.26722L7.13001 6.26081C7.10771 6.21033 7.09619 6.15575 7.09619 6.10056H7.08031ZM7.11549 6.26722L7.10094 6.27356C7.18111 6.45779 7.22248 6.65655 7.22248 6.85746H7.23835H7.25422C7.25422 6.65219 7.21195 6.44912 7.13005 6.26089L7.11549 6.26722ZM7.23835 6.85746H7.22248C7.22248 7.05838 7.18111 7.25714 7.10094 7.44137L7.11549 7.4477L7.13005 7.45403C7.21195 7.26581 7.25422 7.06274 7.25422 6.85746H7.23835ZM7.11549 7.4477L7.10098 7.44127C7.07572 7.49834 7.06266 7.56006 7.06266 7.62246H7.07854H7.09441C7.09441 7.56448 7.10654 7.50714 7.13001 7.45413L7.11549 7.4477ZM7.07854 7.62246H7.06266C7.06266 7.68487 7.07572 7.74659 7.10098 7.80365L7.11549 7.79722L7.13001 7.7908C7.10654 7.73778 7.09441 7.68044 7.09441 7.62246H7.07854ZM7.11549 7.79722L7.10099 7.80367C7.18493 7.9927 7.22663 8.19777 7.2232 8.40458L7.23907 8.40484L7.25494 8.40511C7.25845 8.19368 7.21582 7.98404 7.13 7.79078L7.11549 7.79722ZM7.23907 8.40484H7.22319C7.22319 8.59839 7.17585 8.9071 7.03502 9.13899L7.04859 9.14722L7.06216 9.15546C7.20705 8.91687 7.25494 8.60177 7.25494 8.40484H7.23907ZM7.04859 9.14722L7.03494 9.13912C7.00486 9.18976 6.98668 9.24658 6.98178 9.30528L6.9976 9.3066L7.01342 9.30792C7.01792 9.25402 7.03461 9.20184 7.06224 9.15533L7.04859 9.14722ZM6.9976 9.3066L6.98178 9.30528C6.97688 9.36398 6.98538 9.42302 7.00664 9.47795L7.02145 9.47222L7.03625 9.46649C7.01672 9.41605 7.00892 9.36183 7.01342 9.30792L6.9976 9.3066ZM7.02145 9.47222L7.00661 9.47786C7.01558 9.50148 7.02456 9.52651 7.03329 9.55272L7.04835 9.5477L7.06341 9.54268C7.05453 9.51604 7.04541 9.49059 7.03628 9.46659L7.02145 9.47222ZM7.04835 9.5477L7.03324 9.55255C7.06098 9.63907 7.06781 9.73094 7.05316 9.82062L7.06883 9.82318L7.08449 9.82574C7.09995 9.73111 7.09274 9.63416 7.06347 9.54285L7.04835 9.5477ZM7.06883 9.82318L7.05314 9.82074C6.98203 10.2794 6.82391 10.6814 6.6555 11.1069L6.67026 11.1127L6.68502 11.1185C6.85327 10.6935 7.01277 10.2883 7.08451 9.82561L7.06883 9.82318ZM6.67026 11.1127L6.6555 11.1069L6.6517 11.1164L6.66646 11.1223L6.68122 11.1281L6.68502 11.1185L6.67026 11.1127ZM6.66646 11.1223L6.6517 11.1164C6.57956 11.2987 6.5049 11.4873 6.43575 11.6853L6.45073 11.6906L6.46572 11.6958C6.53462 11.4984 6.60905 11.3104 6.68122 11.1281L6.66646 11.1223ZM6.45073 11.6906L6.43575 11.6853C6.28816 12.1074 6.33195 12.533 6.55802 12.8516L6.57097 12.8425L6.58392 12.8333C6.36476 12.5243 6.32093 12.1099 6.46572 11.6958L6.45073 11.6906ZM6.57097 12.8425L6.55803 12.8516C6.78604 13.173 7.16346 13.3493 7.62002 13.3493V13.3334V13.3175C7.17182 13.3175 6.80495 13.1448 6.58392 12.8333L6.57097 12.8425ZM7.62002 13.3334L7.62002 13.3493C7.69373 13.3493 7.76597 13.3287 7.82866 13.29L7.82031 13.2765L7.81196 13.263C7.75429 13.2986 7.68782 13.3175 7.62002 13.3175L7.62002 13.3334ZM7.82031 13.2765L7.82866 13.29C7.89135 13.2512 7.942 13.1957 7.97493 13.1298L7.96073 13.1227L7.94653 13.1156C7.91623 13.1763 7.86963 13.2273 7.81196 13.263L7.82031 13.2765ZM7.96073 13.1227L7.97496 13.1297C8.01013 13.0587 8.10026 12.9168 8.2208 12.7354C8.34108 12.5545 8.49096 12.3353 8.64502 12.1102L8.63192 12.1013L8.61883 12.0923C8.46479 12.3173 8.31479 12.5367 8.19436 12.7178C8.07418 12.8986 7.98276 13.0424 7.94651 13.1157L7.96073 13.1227ZM8.63192 12.1013L8.64503 12.1102C9.0735 11.4835 9.60602 10.7032 9.96066 10.0899L9.94692 10.082L9.93318 10.074C9.57926 10.686 9.04749 11.4653 8.61882 12.0923L8.63192 12.1013ZM9.94692 10.082L9.96059 10.0901L9.96107 10.0892L9.94741 10.0812L9.93374 10.0731L9.93326 10.0739L9.94692 10.082ZM9.96273 10.0899L9.9706 10.0761L9.95528 10.0674L9.94741 10.0812L9.93953 10.095L9.95485 10.1037L9.96273 10.0899ZM9.96566 10.085L9.95205 10.0769L9.94912 10.0818L9.96273 10.0899L9.97634 10.0981L9.97927 10.0932L9.96566 10.085ZM10.2948 9.50496L10.2809 9.49724C10.187 9.66594 10.0777 9.85904 9.95191 10.0771L9.96566 10.085L9.97941 10.093C10.1053 9.87477 10.2146 9.68152 10.3086 9.51269L10.2948 9.50496ZM10.7713 8.6075L10.7571 8.60047C10.6959 8.72424 10.5511 9.01179 10.2809 9.49725L10.2948 9.50496L10.3086 9.51268C10.5791 9.02676 10.7242 8.73875 10.7856 8.61454L10.7713 8.6075Z" fill="#F3655B"/>
</svg>
