<svg width="16" height="16" viewBox="0 0 16 16" fill="none" xmlns="http://www.w3.org/2000/svg">
<path d="M11 11.5H14.5V8" fill="#B3B3B3"/>
<path d="M1.5 4.5L5.29281 8.29281C5.38567 8.3857 5.49592 8.45938 5.61726 8.50964C5.7386 8.55991 5.86866 8.58579 6 8.58579C6.13134 8.58579 6.2614 8.55991 6.38274 8.50964C6.50408 8.45938 6.61433 8.3857 6.70719 8.29281L8.29281 6.70719C8.38567 6.6143 8.49592 6.54062 8.61726 6.49036C8.7386 6.44009 8.86866 6.41421 9 6.41421C9.13134 6.41421 9.2614 6.44009 9.38274 6.49036C9.50408 6.54062 9.61433 6.6143 9.70719 6.70719L14 11" stroke="black" stroke-width="1.33333" stroke-linecap="round" stroke-linejoin="round"/>
</svg>
