<svg width="80" height="32" viewBox="0 0 80 32" fill="none" xmlns="http://www.w3.org/2000/svg">
<mask id="mask0_1_10902" style="mask-type:alpha" maskUnits="userSpaceOnUse" x="0" y="0" width="80" height="32">
<path d="M8.98633 0.842595C9.14641 0.423256 9.3468 0.323271 9.58691 0.542791C9.74703 0.642654 9.88771 0.862782 9.96777 1.1424C10.0678 1.44173 10.1275 1.64177 10.1475 1.76154C10.228 2.10193 11.0087 3.83936 12.4492 6.95392C13.0296 8.1323 13.6501 9.69033 14.3105 11.5877C14.5908 12.4266 15.3914 14.2246 16.6924 17.0008C17.3527 18.3585 17.793 19.2969 17.9932 19.8162C18.4535 20.8348 19.6944 23.2918 21.7158 27.1863L22.2363 28.2645L22.2568 28.285C22.9173 29.7629 23.4381 30.7019 23.7783 31.1014C23.9181 31.3804 23.9978 31.5799 23.998 31.66C23.998 31.8796 23.7379 31.9998 23.2178 31.9998H20.0947C19.9947 31.9996 19.8748 31.8995 19.7549 31.7C19.6348 31.4804 19.5351 31.2806 19.4551 31.0809C19.375 30.8812 19.2944 30.7012 19.2344 30.5613C19.0942 30.2616 18.8137 29.6024 18.4336 28.5643C18.0534 27.5258 17.7529 26.6868 17.5527 26.0877C17.4726 25.8081 17.2933 25.3684 17.0332 24.8094C16.773 24.2302 16.5927 23.8508 16.4727 23.6112C16.3526 23.2517 16.2524 23.0318 16.1523 22.9119C16.0523 22.7921 15.8915 22.7322 15.6914 22.7322C15.4914 22.7323 15.2315 22.7523 14.9316 22.7723C14.6314 22.7923 14.2905 22.8324 13.9502 22.8524C13.7297 22.9122 13.0094 22.9324 11.7891 22.9324C10.9484 22.9324 10.1072 22.9526 9.30664 23.0125C9.04638 23.0524 8.58594 23.0516 7.92578 23.0516L5.62402 23.0125C5.48402 23.0126 5.38373 23.0724 5.30371 23.1922C5.22379 23.3119 5.16356 23.4516 5.14355 23.6112C5.12354 23.7709 5.06348 23.991 5.06348 23.991L4.80371 25.0692C4.72365 25.4686 4.60349 25.9283 4.4834 26.4676C4.36332 27.0068 4.24314 27.5063 4.16309 27.9656L3.68262 29.8231L3.34277 31.0809C3.26271 31.4404 3.1826 31.6607 3.10254 31.7606C3.04247 31.8802 2.92218 31.9197 2.78223 31.9197H0.219727C0.0798931 31.9196 0 31.8598 0 31.7401C0.000120508 31.6998 0.059841 31.4803 0.179688 31.1414C0.399853 30.6022 0.600138 30.062 0.780273 29.5028C1.84093 25.9281 2.48145 23.5915 2.68164 22.493C2.94184 21.035 3.4826 19.1771 4.2832 16.9002C4.54333 15.9218 4.78331 15.0431 5.02344 14.2244C5.1035 13.805 5.22416 13.3251 5.4043 12.7459C5.94465 10.7289 6.50456 8.83149 7.04492 7.07404L8.12598 3.61896C8.34612 2.72029 8.64612 1.80117 8.98633 0.842595ZM26.9404 1.8006C27.0605 1.80063 27.2008 1.82123 27.3408 1.86115C27.4807 1.90102 27.6007 1.92071 27.7207 1.92072C27.9409 1.92072 28.2213 1.90065 28.5615 1.88068C28.9017 1.84076 29.2419 1.84064 29.582 1.84064L31.2832 1.88068C32.9044 1.88068 34.366 1.9606 35.667 2.10041C35.7675 2.10044 36.1677 2.12062 36.8076 2.18049C37.4681 2.2404 38.3085 2.54028 39.3291 3.09943C40.3699 3.65867 41.4514 4.43771 42.6123 5.43635L42.5723 5.47638C44.2733 6.97428 45.3937 8.77188 45.9541 10.8289C46.4945 12.8861 46.7754 15.1629 46.7754 17.6395C46.7754 18.9377 46.5751 20.3957 46.1348 22.0135C45.6944 23.6313 45.0936 25.1295 44.333 26.5076C43.5725 27.9055 42.6916 28.9238 41.6709 29.5828C40.29 30.4815 38.5691 31.1012 36.5078 31.4608C34.4463 31.8203 32.8244 31.9998 31.6436 31.9998H27.2207C26.9005 31.9998 26.7002 31.9199 26.6201 31.7801C26.5401 31.6403 26.5401 31.4804 26.6201 31.3006C26.66 31.2207 26.6602 31.1005 26.6602 30.9608C26.6601 30.841 26.6396 30.6813 26.6396 30.5018C26.6196 30.322 26.6201 30.0424 26.6201 29.7029C26.6201 28.7443 26.6001 27.8053 26.5801 26.8865L26.5 19.0574L26.54 10.3494C26.54 9.59047 26.52 8.85121 26.5 8.15217C26.48 7.45337 26.4399 6.83441 26.4199 6.31525L26.3398 3.57892C26.3798 2.92027 26.4195 2.46073 26.4795 2.20099C26.5395 1.94135 26.6402 1.8006 26.8203 1.8006H26.9404ZM51.7793 1.06232C51.9192 1.06237 52.0392 1.08241 52.1191 1.10236C52.4793 1.12233 52.8595 1.12189 53.2197 1.12189C53.5798 1.10193 53.9 1.10236 54.1602 1.10236C54.7806 1.10236 55.2618 1.12243 55.542 1.1424H55.582C55.9421 1.18235 56.1822 1.24233 56.3223 1.36213C56.4621 1.48186 56.5419 1.6412 56.542 1.84064C56.542 1.9804 56.522 2.14045 56.502 2.32013C56.4819 2.49988 56.4419 2.65982 56.4219 2.79963C56.1017 5.23617 55.9224 7.77265 55.9023 10.369C55.8623 11.108 55.8623 12.2671 55.8623 13.825L55.9023 19.0574C55.9424 19.4768 55.9424 19.9361 55.9424 20.3953L55.9824 22.1336C56.0425 23.6313 56.0625 24.7496 56.0625 25.4686C56.0625 26.0278 56.0425 26.3478 56.0225 26.4676C55.9825 26.5875 55.9824 26.9067 55.9824 27.4656L56.0225 29.8426C56.0625 30.1821 56.0625 30.6221 56.0625 31.1414C56.1024 31.5205 55.9821 31.7603 55.7422 31.8602C55.502 31.96 55.161 31.9798 54.7607 31.9598H50.8184C50.398 31.9997 50.1172 31.9002 49.9971 31.6805C49.877 31.4608 49.7974 31.1211 49.7773 30.6219C49.7173 30.4222 49.7374 29.8829 49.8574 29.0242C49.9775 28.2255 50.0371 27.5262 50.0371 26.9471C50.0371 26.7474 50.1377 24.7895 50.3379 21.0945C50.518 18.3784 50.5977 16.9001 50.5977 16.6404L50.6777 12.3865L50.7578 8.45197L50.8379 6.11506L50.918 4.55744V2.74006C50.918 1.62158 51.1989 1.06232 51.7793 1.06232ZM78.7588 0.00372809C79.1591 -0.0162446 79.44 0.0431651 79.6201 0.202947C79.8001 0.362679 79.8798 0.622556 79.8799 1.00177C79.8799 1.1216 79.8598 1.44152 79.7998 1.96076C79.7398 2.38019 79.7197 5.25641 79.7197 10.5692V20.3553C79.7197 21.8333 79.7402 23.4517 79.7803 25.2293C79.8403 27.0067 79.8804 28.6043 79.9404 30.0223V30.0028C79.9604 30.6415 80 31.0408 80 31.2606C79.98 31.6599 79.7599 31.8796 79.3398 31.8797C79.1398 31.8797 78.9594 31.8596 78.8193 31.8397C78.6992 31.7997 78.4584 31.7996 78.1182 31.7996C77.7779 31.7996 77.2377 31.8198 76.4775 31.8797C75.6769 31.9396 75.1161 31.9598 74.7959 31.9598C74.2356 31.9598 73.8349 31.8396 73.5547 31.6199C73.2946 31.3802 72.9949 30.9609 72.7148 30.3621L71.9736 28.8836C71.1131 26.9465 70.3323 25.4283 69.6719 24.3299C69.2914 23.6904 68.3513 21.9528 66.8105 19.0975L64.9082 15.5028V18.1385C64.9082 18.3582 64.8887 18.6583 64.8887 18.9979C64.8687 19.3572 64.8682 19.7365 64.9082 20.1756C64.9082 21.6736 64.9287 23.6515 64.9688 26.0682C65.0088 28.4847 65.0889 29.9429 65.1689 30.4422C65.2089 30.5819 65.209 30.7613 65.209 30.9608C65.209 31.2404 65.1484 31.4209 65.0283 31.5008C64.9281 31.5605 64.7082 31.5803 64.3887 31.5604C63.9283 31.5604 63.3871 31.5805 62.7666 31.6404C62.1463 31.7003 61.5461 31.7602 61.0059 31.8201C60.5855 31.8801 60.3051 31.8001 60.165 31.6004C60.025 31.4007 59.9849 30.9614 60.0049 30.2625C60.0049 29.2239 59.9453 27.4058 59.8652 24.7694C59.7452 22.0135 59.6646 19.637 59.6445 17.6199C59.6445 15.5827 59.7051 13.4847 59.7852 11.3875C59.8452 8.7314 59.8652 6.91397 59.8652 5.93537C59.8652 4.61753 59.8046 3.63907 59.7246 3.03986C59.6646 2.52068 59.6445 2.1807 59.6445 2.04084C59.6445 1.52155 59.7251 1.162 59.9053 0.982244C60.0854 0.802583 60.3253 0.702947 60.6055 0.702947C60.7456 0.702949 61.0257 0.72247 61.4658 0.722478C61.9061 0.742448 62.5267 0.642845 63.3271 0.443181C63.6473 0.383271 63.9679 0.363108 64.2881 0.363103C64.4681 0.363103 64.7083 0.363249 65.0283 0.403142C65.3486 0.443088 65.7696 0.443181 66.29 0.443181C66.9503 0.443266 67.5109 0.702366 67.9512 1.2215C68.4115 1.74078 68.8917 2.4601 69.4121 3.41877L69.8525 4.19806C70.1928 4.83711 70.613 5.51626 71.1133 6.23517L71.7539 7.23322V4.85724C71.7539 3.0597 71.7739 1.96071 71.7939 1.52131C71.794 0.962162 71.9742 0.643085 72.3545 0.523259C72.7147 0.403461 73.2748 0.342616 73.9951 0.342595C74.6156 0.342595 75.4368 0.322877 76.4375 0.242986C77.438 0.163114 78.1984 0.0835996 78.7588 0.00372809ZM33.7656 8.11213C33.6656 9.53019 33.625 11.488 33.625 13.9647C33.625 14.2049 33.6856 15.483 33.7656 17.8192C33.8657 18.7978 33.9053 19.7367 33.9053 20.5955L33.8652 26.1873C33.8252 27.0461 33.8252 28.4444 33.8252 30.3416C35.8266 30.4614 37.6479 30.1022 39.2891 29.2635C40.8702 28.4446 42.1917 27.1067 43.2324 25.2293C44.2732 23.3519 44.7939 20.7551 44.7939 17.5994C44.7939 14.4438 44.2727 11.8869 43.252 9.96955C42.2312 8.05241 40.9302 6.61468 39.3691 5.65607C37.768 4.69745 35.9668 4.19753 33.9453 4.17756L33.7656 8.11213ZM9.56738 7.71271C9.48734 7.71271 9.38717 7.93264 9.28711 8.37189C9.18703 8.81129 9.10692 9.15122 9.04688 9.37092C8.52653 11.0485 8.16595 12.3266 7.92578 13.1854C7.80569 13.6048 7.64595 14.1443 7.42578 14.7635C7.20562 15.3826 7.0449 15.8021 6.96484 16.0418C6.88483 16.3413 6.84473 16.5613 6.84473 16.741C6.84489 16.9205 6.96557 17.0008 7.22559 17.0008C7.84602 17.0008 8.7666 16.9802 10.0273 16.9403C11.2883 16.8803 12.0694 16.841 12.3896 16.7811C12.5897 16.7412 12.7701 16.741 12.9102 16.741C13.0502 16.7409 13.25 16.701 13.25 16.701H13.2695C13.3694 16.6611 13.41 16.621 13.4102 16.5613C13.4102 16.5014 13.3496 16.4013 13.2695 16.2215C13.1294 15.9418 12.7899 15.2025 12.2695 14.0242C11.7491 12.8458 11.3886 11.9271 11.1885 11.3279C10.8883 10.629 10.6679 10.05 10.5078 9.59064C10.3477 9.13127 10.2275 8.81141 10.1475 8.63166C10.0874 8.47193 10.0273 8.33198 9.94727 8.1922C9.86726 8.05248 9.80709 7.93222 9.74707 7.85236C9.68718 7.75293 9.62727 7.7128 9.56738 7.71271Z" fill="white"/>
</mask>
<g mask="url(#mask0_1_10902)">
<path d="M-35.5213 -476.273L-21.2439 -472.122L113.262 73.5394L29.8963 49.3066L-35.5213 -476.273Z" fill="#FF7A45"/>
<path d="M-35.5213 -476.272L-6.65339 38.6826L19.6163 46.3186L-35.5213 -476.272Z" fill="#49C17A"/>
<path d="M-29.2623 -358.232L-14.7933 -354.026L123.083 192.616L38.5989 168.058L-29.2623 -358.232Z" fill="#FFBF66"/>
<path d="M-18.5212 -296.273L68.0228 235.448L24.0512 222.666L-18.5212 -296.273Z" fill="#5CCEE5"/>
</g>
</svg>
